#N canvas 887 106 539 645 10;
#X declare -lib mrpeach;
#X declare -lib mrpeach;
#X declare -path ../DIY2;
#X declare -path ../freeframe;
#X declare -path ../k-obj;
#X declare -path ../tweener;
#X declare -path moving;
#X declare -lib mrpeach;
#X obj 179 110 k_udp;
#N canvas 0 22 520 525 ch-speed 0;
#X obj 107 243 metro 100;
#X obj 107 271 f;
#X obj 134 271 + 1;
#X obj 224 284 sel 0 1 2 3;
#X msg 107 420 0;
#X msg 137 421 1;
#X obj 105 467 outlet;
#X obj 160 271 % 64;
#X obj 106 305 mod 4;
#X floatatom 146 305 5 0 0 0 - - -;
#X obj 106 442 change;
#X obj 94 363 sel 0;
#X obj 142 363 sel 31;
#X obj 148 327 / 2;
#X msg 351 310 2;
#X msg 309 309 8;
#X msg 224 308 32;
#X msg 266 309 16;
#X obj 103 103 cnv 15 104 34 empty empty empty 20 12 0 14 -54366 -66577
0;
#X obj 106 105 tgl 30 0 empty empty T 11 15 0 15 -1 -258113 -262144
0 1;
#X obj 141 119 hradio 15 1 0 4 empty empty empty 0 -8 0 10 -262144
-1 -1 3;
#X obj 141 50 loadbang;
#X msg 141 72 3;
#X connect 0 0 1 0;
#X connect 1 0 2 0;
#X connect 1 0 8 0;
#X connect 2 0 7 0;
#X connect 3 0 16 0;
#X connect 3 1 17 0;
#X connect 3 2 15 0;
#X connect 3 3 14 0;
#X connect 4 0 10 0;
#X connect 5 0 10 0;
#X connect 7 0 1 1;
#X connect 8 0 11 0;
#X connect 8 0 12 0;
#X connect 9 0 8 1;
#X connect 9 0 13 0;
#X connect 10 0 6 0;
#X connect 11 0 4 0;
#X connect 12 0 5 0;
#X connect 13 0 12 1;
#X connect 14 0 9 0;
#X connect 15 0 9 0;
#X connect 16 0 9 0;
#X connect 17 0 9 0;
#X connect 19 0 0 0;
#X connect 20 0 3 0;
#X connect 21 0 22 0;
#X connect 22 0 20 0;
#X coords 0 -1 1 1 110 40 2 100 100;
#X restore -36 174 pd ch-speed;
#N canvas 0 22 450 300 signal 0;
#X obj 73 59 inlet;
#X obj 74 154 outlet;
#X obj 68 128 spigot;
#X obj 104 78 loadbang;
#X obj 102 103 tgl 15 0 empty empty empty 17 7 0 10 -262144 -1 -1 1
1;
#X connect 0 0 2 0;
#X connect 2 0 1 0;
#X connect 3 0 4 0;
#X connect 4 0 2 1;
#X coords 0 -1 1 1 20 20 2 100 100;
#X restore -36 221 pd signal;
#N canvas 0 22 450 300 signal 0;
#X obj 73 59 inlet;
#X obj 74 154 outlet;
#X obj 68 128 spigot;
#X obj 104 78 loadbang;
#X obj 102 103 tgl 15 0 empty empty empty 17 7 0 10 -262144 -1 -1 1
1;
#X connect 0 0 2 0;
#X connect 2 0 1 0;
#X connect 3 0 4 0;
#X connect 4 0 2 1;
#X coords 0 -1 1 1 20 20 2 100 100;
#X restore -32 428 pd signal;
#N canvas 0 22 450 300 signal 0;
#X obj 73 59 inlet;
#X obj 74 154 outlet;
#X obj 68 128 spigot;
#X obj 104 78 loadbang;
#X obj 102 103 tgl 15 0 empty empty empty 17 7 0 10 -262144 -1 -1 1
1;
#X connect 0 0 2 0;
#X connect 2 0 1 0;
#X connect 3 0 4 0;
#X connect 4 0 2 1;
#X coords 0 -1 1 1 20 20 2 100 100;
#X restore 178 429 pd signal;
#N canvas 760 384 613 414 choice-a 0;
#X floatatom 88 150 5 0 0 0 - - -;
#X obj 98 333 s eac-module-a;
#X msg 88 201 1 1 \, 2 0 \, 3 0;
#X msg 103 224 1 0 \, 2 1 \, 3 0;
#X msg 119 246 1 0 \, 2 0 \, 3 1;
#X msg 135 269 1 1 \, 2 1 \, 3 1;
#X obj 88 174 sel 0 1 2 3 4;
#X msg 150 293 1 0 \, 2 0 \, 3 0;
#X obj 87 31 gemkeyboard;
#X floatatom 87 54 5 0 0 0 - - -;
#X obj 87 74 sel 18 19 20 21 23;
#X msg 88 96 0;
#X msg 108 120 1;
#X msg 129 146 2;
#X msg 149 98 3;
#X msg 172 126 4;
#X obj 208 74 r resetcolor;
#X obj 208 101 del 100;
#X connect 0 0 6 0;
#X connect 2 0 1 0;
#X connect 3 0 1 0;
#X connect 4 0 1 0;
#X connect 5 0 1 0;
#X connect 6 0 2 0;
#X connect 6 1 3 0;
#X connect 6 2 4 0;
#X connect 6 3 5 0;
#X connect 6 4 7 0;
#X connect 7 0 1 0;
#X connect 8 0 9 0;
#X connect 9 0 10 0;
#X connect 10 0 11 0;
#X connect 10 1 12 0;
#X connect 10 2 13 0;
#X connect 10 3 14 0;
#X connect 10 4 15 0;
#X connect 11 0 0 0;
#X connect 12 0 0 0;
#X connect 13 0 0 0;
#X connect 14 0 0 0;
#X connect 15 0 0 0;
#X connect 16 0 17 0;
#X connect 17 0 15 0;
#X restore 44 222 pd choice-a;
#X obj 264 95 k_effect;
#N canvas 0 22 450 300 meta 0;
#X obj 20 38 declare -path ../DIY2;
#X obj 23 60 declare -path ../freeframe;
#X obj 21 84 declare -path ../k-obj;
#X obj 24 107 declare -path ../tweener;
#X obj 25 155 declare -path moving;
#X text 22 134 [if you want link to mini \, turn off the wifi];
#X text 155 154 2011-12-12 Aluan;
#X restore -8 222 pd meta;
#X obj 214 255 k_win;
#X obj -36 5 module_e;
#X obj 121 188 k_time;
#X obj -32 452 module_a 2;
#X obj 205 453 module_a 3;
#X obj -36 243 module_a 1;
#X obj 335 28 module_c;
#X obj 180 9 module_b;
#X connect 1 0 2 0;
#X connect 1 0 3 0;
#X connect 1 0 4 0;
#X connect 2 0 13 0;
#X connect 3 0 11 0;
#X connect 4 0 12 0;
