#N canvas 54 105 412 438 10;
#X declare -lib mrpeach;
#X declare -path moving;
#X declare -path ../DIY2;
#X declare -path ../freeframe;
#X declare -path ../k-obj;
#X declare -path ../tweener;
#X obj 203 142 a3-control;
#N canvas 314 183 601 242 signal 0;
#X msg -82 182 \; pd dsp 1;
#X obj 120 52 unpackOSC;
#X obj 120 32 udpreceive 9999;
#X obj -109 66 loadbang;
#X msg -109 115 ---------------sound---------------;
#X obj -109 146 print;
#X obj -110 17 import mrpeach;
#X obj -110 42 declare -path moving;
#N canvas 57 392 450 300 al 0;
#X obj 144 59 inlet;
#X floatatom 240 148 5 0 0 0 - - -;
#X obj 240 172 s a1_allvol;
#X obj 144 122 route /1 /2 /3 /allvol;
#X obj 144 86 route /a1;
#X obj 144 153 a1;
#X obj 208 152 a1;
#X obj 176 152 a1;
#X connect 0 0 4 0;
#X connect 1 0 2 0;
#X connect 3 0 5 0;
#X connect 3 1 7 0;
#X connect 3 2 6 0;
#X connect 3 3 1 0;
#X connect 4 0 3 0;
#X restore 120 117 pd al;
#N canvas 0 22 616 413 gem 0;
#X obj 83 219 s v-speed;
#X obj 202 205 s fader;
#X obj 149 254 s v-distance;
#X floatatom 83 151 5 0 0 0 - - -;
#X floatatom 149 182 5 0 0 0 - - -;
#X floatatom 202 181 5 0 0 0 - - -;
#X obj 218 159 s distrotion;
#X obj 149 230 line;
#X obj 264 191 s sx;
#X obj 307 191 s sy;
#X obj 344 191 s scrollvol;
#X obj 83 198 line;
#X msg 83 173 \$1 1000;
#X msg 149 205 \$1 1000;
#X obj 141 87 route /gem;
#X obj 141 60 inlet;
#X obj 209 37 loadbang;
#X msg 209 90 0;
#X obj 209 63 t b b;
#X msg 240 90 4 0;
#X obj 467 256 s gem-3d;
#X obj 292 152 s 3d-tgl;
#X floatatom 356 285 5 0 0 0 - - -;
#X obj 356 309 s gem-flash;
#X obj 406 162 s gem-fade;
#X obj 141 119 route /1 /2 /3 /4 /5 /6 /7 /8 /11 /14 /16;
#X connect 3 0 12 0;
#X connect 4 0 13 0;
#X connect 5 0 1 0;
#X connect 7 0 2 0;
#X connect 11 0 0 0;
#X connect 12 0 11 0;
#X connect 13 0 7 0;
#X connect 14 0 25 0;
#X connect 15 0 14 0;
#X connect 16 0 18 0;
#X connect 17 0 5 0;
#X connect 18 0 17 0;
#X connect 18 1 19 0;
#X connect 19 0 7 0;
#X connect 22 0 23 0;
#X connect 25 0 3 0;
#X connect 25 1 4 0;
#X connect 25 2 5 0;
#X connect 25 3 6 0;
#X connect 25 4 8 0;
#X connect 25 5 9 0;
#X connect 25 6 10 0;
#X connect 25 7 21 0;
#X connect 25 8 20 0;
#X connect 25 9 22 0;
#X connect 25 10 24 0;
#X restore 135 147 pd gem;
#N canvas 42 395 562 351 a2 0;
#X obj -38 85 inlet;
#X obj -38 110 route /a2;
#X floatatom -38 167 5 0 0 0 - - -;
#X floatatom 9 167 5 0 0 0 - - -;
#X obj 56 204 s n-noise;
#X floatatom 103 164 5 0 0 0 - - -;
#X obj 103 185 s a2_allvol;
#X floatatom 56 166 5 0 0 0 - - -;
#X obj 9 193 s bomb;
#X obj -38 140 route /time /bomb /noise /allvol;
#X obj -38 193 s time;
#X obj 187 128 a2;
#X obj 186 149 route /10 /11 /12 /13 /14 /15 /16 /17 /18 /19;
#X obj 187 103 route /0 /1 /2 /3 /4 /5 /6 /7 /8 /9;
#X obj 186 194 route /20 /21 /22 /23 /24 /25 /26 /27 /28 /29;
#X obj 186 241 route /30 /31 /32 /33 /34 /35 /36 /37 /38 /39;
#X obj 212 128 a2;
#X obj 240 129 a2;
#X obj 267 129 a2;
#X obj 294 129 a2;
#X obj 325 128 a2;
#X obj 352 128 a2;
#X obj 380 129 a2;
#X obj 407 129 a2;
#X obj 434 129 a2;
#X obj 186 173 a2;
#X obj 213 173 a2;
#X obj 241 174 a2;
#X obj 268 174 a2;
#X obj 295 174 a2;
#X obj 326 173 a2;
#X obj 353 173 a2;
#X obj 381 174 a2;
#X obj 408 174 a2;
#X obj 435 174 a2;
#X obj 186 216 a2;
#X obj 213 216 a2;
#X obj 241 217 a2;
#X obj 268 217 a2;
#X obj 295 217 a2;
#X obj 326 216 a2;
#X obj 353 216 a2;
#X obj 381 217 a2;
#X obj 408 217 a2;
#X obj 435 217 a2;
#X obj 186 263 a2;
#X obj 213 263 a2;
#X obj 241 264 a2;
#X obj 268 264 a2;
#X obj 295 264 a2;
#X obj 326 263 a2;
#X obj 353 263 a2;
#X obj 381 264 a2;
#X obj 408 264 a2;
#X obj 435 264 a2;
#X obj 53 66 loadbang;
#X msg 53 90 0;
#X connect 0 0 1 0;
#X connect 1 0 9 0;
#X connect 2 0 10 0;
#X connect 3 0 8 0;
#X connect 5 0 6 0;
#X connect 7 0 4 0;
#X connect 9 0 2 0;
#X connect 9 1 3 0;
#X connect 9 2 7 0;
#X connect 9 3 5 0;
#X connect 9 4 13 0;
#X connect 12 0 25 0;
#X connect 12 1 26 0;
#X connect 12 2 27 0;
#X connect 12 3 28 0;
#X connect 12 4 29 0;
#X connect 12 5 30 0;
#X connect 12 6 31 0;
#X connect 12 7 32 0;
#X connect 12 8 33 0;
#X connect 12 9 34 0;
#X connect 12 10 14 0;
#X connect 13 0 11 0;
#X connect 13 1 16 0;
#X connect 13 2 17 0;
#X connect 13 3 18 0;
#X connect 13 4 19 0;
#X connect 13 5 20 0;
#X connect 13 6 21 0;
#X connect 13 7 22 0;
#X connect 13 8 23 0;
#X connect 13 9 24 0;
#X connect 13 10 12 0;
#X connect 14 0 35 0;
#X connect 14 1 36 0;
#X connect 14 2 37 0;
#X connect 14 3 38 0;
#X connect 14 4 39 0;
#X connect 14 5 40 0;
#X connect 14 6 41 0;
#X connect 14 7 42 0;
#X connect 14 8 43 0;
#X connect 14 9 44 0;
#X connect 14 10 15 0;
#X connect 15 0 45 0;
#X connect 15 1 46 0;
#X connect 15 2 47 0;
#X connect 15 3 48 0;
#X connect 15 4 49 0;
#X connect 15 5 50 0;
#X connect 15 6 51 0;
#X connect 15 7 52 0;
#X connect 15 8 53 0;
#X connect 15 9 54 0;
#X connect 55 0 56 0;
#X connect 56 0 7 0;
#X restore 150 103 pd a2;
#N canvas 0 22 407 380 a3 0;
#X obj 180 192 tgl 15 0 empty empty empty 17 7 0 10 -262144 -1 -1 0
1;
#X obj 180 216 s bombbomb;
#X obj 202 156 s explode;
#X obj 74 118 route /1 /2 /3 /4 /5 /6 /7 /8;
#X obj 223 184 s a3-vol;
#X obj 246 267 s noise-s;
#X obj 276 290 s noise-e;
#X obj 245 245 route /9 /10 /11;
#X obj 307 329 s noise-num;
#X obj 74 64 inlet;
#X obj 74 90 route /a3;
#X obj 74 160 a3;
#X obj 138 186 a3;
#X obj 159 154 a3;
#X obj 95 183 a3;
#X obj 116 156 a3;
#X connect 0 0 1 0;
#X connect 3 0 11 0;
#X connect 3 1 14 0;
#X connect 3 2 15 0;
#X connect 3 3 12 0;
#X connect 3 4 13 0;
#X connect 3 5 0 0;
#X connect 3 6 2 0;
#X connect 3 7 4 0;
#X connect 3 8 7 0;
#X connect 7 0 5 0;
#X connect 7 1 6 0;
#X connect 7 2 8 0;
#X connect 9 0 10 0;
#X connect 10 0 3 0;
#X restore 165 182 pd a3;
#X obj -109 89 t b b;
#N canvas 596 357 450 300 effect 0;
#X obj 154 53 inlet;
#X obj 154 114 route /1 /2 /3 /4 /5 /6 /7;
#X obj 154 163 s e-bloom-tgl;
#X obj 154 139 tgl 15 0 empty empty empty 17 7 0 10 -262144 -1 -1 0
1;
#X obj 154 81 route /effect;
#X obj 197 193 tgl 15 0 empty empty empty 17 7 0 10 -262144 -1 -1 0
1;
#X obj 197 217 s e-time-tgl;
#X connect 0 0 4 0;
#X connect 1 0 3 0;
#X connect 1 2 5 0;
#X connect 3 0 2 0;
#X connect 4 0 1 0;
#X connect 5 0 6 0;
#X restore 181 130 pd effect;
#X obj 120 77 t a a a a a a;
#N canvas 88 130 607 367 midi 0;
#X obj 169 31 inlet;
#X obj 165 92 route /16 /17 /18 /19 /20;
#X obj 165 128 s smidi-16;
#X obj 191 154 s smidi-17;
#X obj 229 179 s smidi-18;
#X obj 258 205 s smidi-19;
#X obj 291 232 s smidi-20;
#X obj 167 60 route /midi;
#X obj 324 124 route /0 /1 /2 /3 /4;
#X obj 323 160 s smidi-0;
#X obj 350 185 s smidi-1;
#X obj 388 211 s smidi-2;
#X obj 417 237 s smidi-3;
#X obj 450 264 s smidi-4;
#X connect 0 0 7 0;
#X connect 1 0 2 0;
#X connect 1 1 3 0;
#X connect 1 2 4 0;
#X connect 1 3 5 0;
#X connect 1 4 6 0;
#X connect 1 5 8 0;
#X connect 7 0 1 0;
#X connect 8 0 9 0;
#X connect 8 1 10 0;
#X connect 8 2 11 0;
#X connect 8 3 12 0;
#X connect 8 4 13 0;
#X restore 195 101 pd midi;
#X connect 1 0 14 0;
#X connect 2 0 1 0;
#X connect 3 0 12 0;
#X connect 4 0 5 0;
#X connect 12 0 4 0;
#X connect 12 1 0 0;
#X connect 14 0 8 0;
#X connect 14 1 9 0;
#X connect 14 2 10 0;
#X connect 14 3 11 0;
#X connect 14 4 13 0;
#X connect 14 5 15 0;
#X restore 204 199 pd signal;
#N canvas 198 182 478 417 scroll 0;
#X obj 109 38 r sx;
#X obj 223 37 r sy;
#X floatatom 109 64 5 0 0 0 - - -;
#X floatatom 223 60 5 0 0 0 - - -;
#X obj 138 180 osc~;
#X obj 138 134 mtof~;
#X obj 164 157 +~ 1;
#X obj 138 230 *~;
#X obj 138 335 dac~;
#X obj 223 129 mtof~;
#X obj 248 152 +~ 1;
#X obj 223 225 *~;
#X obj 223 175 phasor~;
#X obj 318 98 r scrollvol;
#X obj 359 182 line;
#X msg 359 150 1 500;
#X msg 318 150 0 500;
#X obj 318 123 sel 0 1;
#X obj 138 261 st-FFTreverb /key;
#X obj 223 83 *~ 40;
#X obj 110 105 expr~ int($v1);
#X obj 223 104 expr~ int($v1);
#X obj 109 84 *~ 34;
#X obj 138 204 *~ 0.2;
#X obj 223 198 *~ 0.2;
#X connect 0 0 2 0;
#X connect 1 0 3 0;
#X connect 2 0 22 0;
#X connect 3 0 19 0;
#X connect 4 0 23 0;
#X connect 5 0 4 0;
#X connect 5 0 6 0;
#X connect 6 0 4 0;
#X connect 7 0 18 0;
#X connect 7 0 18 1;
#X connect 9 0 10 0;
#X connect 9 0 12 0;
#X connect 10 0 12 0;
#X connect 11 0 18 1;
#X connect 11 0 18 0;
#X connect 12 0 24 0;
#X connect 13 0 17 0;
#X connect 14 0 11 1;
#X connect 14 0 7 1;
#X connect 15 0 14 0;
#X connect 16 0 14 0;
#X connect 17 0 16 0;
#X connect 17 1 15 0;
#X connect 18 0 8 0;
#X connect 18 1 8 1;
#X connect 19 0 21 0;
#X connect 20 0 5 0;
#X connect 21 0 9 0;
#X connect 22 0 20 0;
#X connect 23 0 7 0;
#X connect 24 0 11 0;
#X restore 205 262 pd scroll;
#X obj 204 12 a1-control;
#X obj 14 15 catch~ k_vol_l;
#X obj 110 15 catch~ k_vol_r;
#N canvas 0 22 450 300 preset 0;
#X obj 39 36 declare -path ../DIY2;
#X obj 42 58 declare -path ../freeframe;
#X obj 40 82 declare -path ../k-obj;
#X obj 43 105 declare -path ../tweener;
#X restore 204 218 pd preset;
#X obj 14 201 st-EQ3 /key;
#X obj 14 305 dac~;
#N canvas 176 247 890 488 sound 0;
#X floatatom 152 10 5 0 0 0 - - -;
#X obj 152 -16 r gem-flash;
#X obj 123 113 noise~;
#X obj 192 106 phasor~ 0;
#X obj 123 193 *~;
#X obj 192 84 * 40;
#X obj 123 225 *~;
#X obj 192 144 *~ 0.3;
#X obj 152 33 t f f f;
#X obj 121 325 throw~ k_vol_l;
#X obj 218 325 throw~ k_vol_r;
#X obj 123 143 bp~ 1000 5;
#X obj 123 253 st-delayfb /key;
#X msg 209 226 1 1;
#X obj 209 204 loadbang;
#X obj 171 58 k_range 0 1 100 10000;
#N canvas 567 146 873 675 noise-bg 0;
#X obj 178 334 osc~;
#X obj 167 213 mtof;
#X obj 167 126 vsl 15 66 0 127 0 0 empty sl2 empty 0 -9 0 10 -4034
-1 -1 1177 1;
#X obj 167 238 sig~;
#X obj 178 305 +~;
#X obj 196 238 osc~;
#X obj 196 212 mtof;
#X obj 196 126 vsl 15 66 0 127 0 0 empty sl3 empty 0 -9 0 10 -260097
-1 -1 1126 1;
#X obj 211 270 *~ 0;
#X obj 228 126 vsl 15 66 0 1000 0 0 empty sl4 empty 0 -9 0 10 -4160
-1 -1 3204 1;
#X obj 163 419 osc~;
#X obj 164 392 +~;
#X obj 179 363 *~ 0;
#X obj 138 213 mtof;
#X obj 138 238 sig~;
#X obj 165 465 +~;
#X obj 368 334 osc~;
#X obj 340 211 mtof;
#X obj 340 236 sig~;
#X obj 368 305 +~;
#X obj 372 236 osc~;
#X obj 372 210 mtof;
#X obj 381 267 *~ 0;
#X obj 250 399 osc~;
#X obj 251 372 +~;
#X obj 369 363 *~ 0;
#X obj 312 211 mtof;
#X obj 312 236 sig~;
#X obj 166 488 *~ 0;
#X obj 150 536 osc~;
#X obj 150 512 +~;
#X obj 109 213 mtof;
#X obj 189 534 line~;
#X msg 189 514 \$1 50;
#X obj 340 127 vsl 15 66 0 127 0 0 empty sl7 empty 0 -9 0 10 -4034
-1 -1 1331 1;
#X obj 372 126 vsl 15 66 0 127 0 0 empty sl8 empty 0 -9 0 10 -260097
-1 -1 614 1;
#X obj 404 127 vsl 15 66 0 1000 0 0 empty sl9 empty 0 -9 0 10 -4160
-1 -1 65 1;
#X obj 434 127 vsl 15 66 0 1000 0 0 empty sl10 empty 0 -9 0 10 -4160
-1 -1 468 1;
#X obj 312 126 vsl 15 66 0 127 0 0 empty sl6 empty 0 -9 0 10 -4034
-1 -1 2252 1;
#X obj 258 126 vsl 15 66 0 1000 0 0 empty sl5 empty 0 -9 0 10 -4160
-1 -1 4979 1;
#X obj 138 126 vsl 15 66 0 127 0 0 empty sl1 empty 0 -9 0 10 -4034
-1 -1 1638 1;
#X obj 285 126 vsl 15 66 0 1000 0 0 empty sl12 empty 0 -9 0 10 -4160
-1 -1 318 1;
#X obj 109 128 vsl 15 66 0 127 0 0 empty sl11 empty 0 -9 0 10 -4034
-1 -1 358 1;
#N canvas 274 188 888 541 rand 0;
#X obj 403 253 random 1000;
#X obj 196 347 s sl1;
#X obj 327 152 bng 15 250 50 0 empty empty empty 17 7 0 10 -262144
-1 -1;
#X obj 479 252 random 1000;
#X obj 597 389 random 1000;
#X obj 673 388 random 1000;
#X obj 715 243 random 1000;
#X obj 325 102 loadbang;
#X obj 427 82 inlet;
#X obj 196 303 line;
#X msg 196 281 \$1 1000;
#X obj 267 300 line;
#X msg 267 278 \$1 1000;
#X obj 337 299 line;
#X msg 337 277 \$1 1000;
#X obj 402 299 line;
#X msg 402 277 \$1 1000;
#X obj 477 299 line;
#X msg 477 277 \$1 1000;
#X obj 268 344 s sl2;
#X obj 337 343 s sl3;
#X obj 402 343 s sl4;
#X obj 476 344 s sl5;
#X obj 391 439 line;
#X msg 391 417 \$1 1000;
#X obj 462 436 line;
#X msg 462 414 \$1 1000;
#X obj 532 435 line;
#X msg 532 413 \$1 1000;
#X obj 597 435 line;
#X msg 597 413 \$1 1000;
#X obj 672 435 line;
#X msg 672 413 \$1 1000;
#X obj 392 483 s sl6;
#X obj 463 480 s sl7;
#X obj 532 479 s sl8;
#X obj 597 479 s sl9;
#X obj 671 480 s sl10;
#X obj 643 321 s sl11;
#X obj 715 315 s sl12;
#X obj 643 289 line;
#X msg 643 267 \$1 1000;
#X obj 718 289 line;
#X msg 718 267 \$1 1000;
#X obj 267 254 random 50;
#X obj 335 254 random 50;
#X obj 390 391 random 50;
#X obj 461 390 random 50;
#X obj 529 390 random 50;
#X obj 644 243 random 50;
#X obj 196 255 random 50;
#X connect 0 0 16 0;
#X connect 2 0 0 0;
#X connect 2 0 3 0;
#X connect 2 0 4 0;
#X connect 2 0 5 0;
#X connect 2 0 6 0;
#X connect 2 0 44 0;
#X connect 2 0 45 0;
#X connect 2 0 46 0;
#X connect 2 0 47 0;
#X connect 2 0 48 0;
#X connect 2 0 49 0;
#X connect 2 0 50 0;
#X connect 3 0 18 0;
#X connect 4 0 30 0;
#X connect 5 0 32 0;
#X connect 6 0 43 0;
#X connect 7 0 2 0;
#X connect 8 0 2 0;
#X connect 9 0 1 0;
#X connect 10 0 9 0;
#X connect 11 0 19 0;
#X connect 12 0 11 0;
#X connect 13 0 20 0;
#X connect 14 0 13 0;
#X connect 15 0 21 0;
#X connect 16 0 15 0;
#X connect 17 0 22 0;
#X connect 18 0 17 0;
#X connect 23 0 33 0;
#X connect 24 0 23 0;
#X connect 25 0 34 0;
#X connect 26 0 25 0;
#X connect 27 0 35 0;
#X connect 28 0 27 0;
#X connect 29 0 36 0;
#X connect 30 0 29 0;
#X connect 31 0 37 0;
#X connect 32 0 31 0;
#X connect 40 0 38 0;
#X connect 41 0 40 0;
#X connect 42 0 39 0;
#X connect 43 0 42 0;
#X connect 44 0 12 0;
#X connect 45 0 14 0;
#X connect 46 0 24 0;
#X connect 47 0 26 0;
#X connect 48 0 28 0;
#X connect 49 0 41 0;
#X connect 50 0 10 0;
#X restore 458 203 pd rand;
#X obj 458 165 bng 30 250 50 0 empty empty empty 17 7 0 10 -262144
-1 -1;
#X obj 164 442 *~ 0.5;
#X obj 251 422 *~ 0.5;
#X obj 109 238 sig~;
#X obj 150 563 *~;
#X obj 150 586 outlet~;
#X obj 458 111 vsl 30 40 0 1 0 0 empty empty empty 0 -9 0 10 -262144
-1 -1 0 1;
#X obj 138 55 inlet;
#X obj 458 69 r lvl;
#X obj 528 68 inlet;
#X connect 0 0 12 0;
#X connect 1 0 3 0;
#X connect 2 0 1 0;
#X connect 3 0 4 0;
#X connect 4 0 0 0;
#X connect 5 0 8 0;
#X connect 6 0 5 0;
#X connect 7 0 6 0;
#X connect 8 0 4 1;
#X connect 9 0 8 1;
#X connect 10 0 45 0;
#X connect 11 0 10 0;
#X connect 12 0 11 1;
#X connect 13 0 14 0;
#X connect 14 0 11 0;
#X connect 15 0 28 0;
#X connect 16 0 25 0;
#X connect 17 0 18 0;
#X connect 18 0 19 0;
#X connect 19 0 16 0;
#X connect 20 0 22 0;
#X connect 21 0 20 0;
#X connect 22 0 19 1;
#X connect 23 0 46 0;
#X connect 24 0 23 0;
#X connect 25 0 24 1;
#X connect 26 0 27 0;
#X connect 27 0 24 0;
#X connect 28 0 30 1;
#X connect 29 0 48 0;
#X connect 30 0 29 0;
#X connect 31 0 47 0;
#X connect 32 0 48 1;
#X connect 33 0 32 0;
#X connect 34 0 17 0;
#X connect 35 0 21 0;
#X connect 36 0 22 1;
#X connect 37 0 25 1;
#X connect 38 0 26 0;
#X connect 39 0 12 1;
#X connect 40 0 13 0;
#X connect 41 0 28 1;
#X connect 42 0 31 0;
#X connect 44 0 43 0;
#X connect 45 0 15 0;
#X connect 46 0 15 1;
#X connect 47 0 30 0;
#X connect 48 0 49 0;
#X connect 50 0 33 0;
#X connect 51 0 44 0;
#X connect 52 0 50 0;
#X connect 53 0 50 0;
#X coords 0 -1 1 1 400 100 1 100 100;
#X restore 322 68 pd noise-bg;
#X obj 322 178 *~ 0.15;
#X obj 697 13 r smidi-2;
#X obj 322 -43 tgl 15 0 empty empty empty 17 7 0 10 -262144 -1 -1 0
1;
#X obj 340 -43 r e-bloom-tgl;
#X obj 343 -16 r e-time-tgl;
#X obj 324 -16 tgl 15 0 empty empty empty 17 7 0 10 -262144 -1 -1 0
1;
#X obj 325 22 sel 1;
#X connect 0 0 8 0;
#X connect 1 0 0 0;
#X connect 2 0 11 0;
#X connect 3 0 4 1;
#X connect 4 0 6 0;
#X connect 5 0 3 0;
#X connect 6 0 12 0;
#X connect 6 0 12 1;
#X connect 7 0 6 1;
#X connect 8 0 7 0;
#X connect 8 1 15 0;
#X connect 8 2 5 0;
#X connect 11 0 4 0;
#X connect 12 0 9 0;
#X connect 12 1 10 0;
#X connect 13 0 12 2;
#X connect 14 0 13 0;
#X connect 15 0 11 1;
#X connect 16 0 17 0;
#X connect 17 0 9 0;
#X connect 17 0 10 0;
#X connect 18 0 16 1;
#X connect 19 0 23 0;
#X connect 20 0 19 0;
#X connect 21 0 22 0;
#X connect 22 0 23 0;
#X connect 23 0 16 0;
#X restore 204 240 pd sound flash;
#X obj 88 104 tgl 15 0 empty empty empty 17 7 0 10 -262144 -1 -1 0
1;
#X obj 106 104 r e-bloom-tgl;
#N canvas 728 275 604 495 effect-1 0;
#X obj 148 71 inlet~;
#X obj 182 43 inlet~;
#X obj 148 315 outlet~;
#X obj 360 314 outlet~;
#X obj 187 195 st-flanger;
#X obj 256 139 loadbang;
#X msg 256 162 4 0.55;
#X obj 148 153 spigot~;
#X obj 182 123 spigot~;
#X obj 221 94 inlet;
#X connect 0 0 7 0;
#X connect 1 0 8 0;
#X connect 4 0 2 0;
#X connect 4 1 3 0;
#X connect 5 0 6 0;
#X connect 6 0 4 2;
#X connect 7 0 2 0;
#X connect 7 1 4 0;
#X connect 8 0 3 0;
#X connect 8 1 4 1;
#X connect 9 0 8 1;
#X connect 9 0 7 1;
#X restore 14 102 pd effect-1;
#X obj 109 131 r e-time-tgl;
#N canvas 728 275 604 495 effect-1 0;
#X obj 148 71 inlet~;
#X obj 182 43 inlet~;
#X obj 148 315 outlet~;
#X obj 360 314 outlet~;
#X obj 148 153 spigot~;
#X obj 182 123 spigot~;
#X obj 221 94 inlet;
#X obj 187 195 st-phaser /key;
#X connect 0 0 4 0;
#X connect 1 0 5 0;
#X connect 4 0 2 0;
#X connect 4 1 7 0;
#X connect 5 0 3 0;
#X connect 5 1 7 1;
#X connect 6 0 5 1;
#X connect 6 0 4 1;
#X connect 7 0 2 0;
#X connect 7 1 3 0;
#X restore 14 129 pd effect-1;
#X obj 90 131 tgl 15 0 empty empty empty 17 7 0 10 -262144 -1 -1 0
1;
#N canvas 0 22 450 300 midi 0;
#X obj 128 95 r smidi-16;
#X obj 154 121 r smidi-17;
#X obj 192 146 r smidi-18;
#X obj 220 172 r smidi-19;
#X msg 123 208 0 \$1;
#X msg 154 183 1 \$1;
#X msg 180 220 2 \$1;
#X msg 214 211 3 \$1;
#X obj 143 269 outlet;
#X connect 0 0 4 0;
#X connect 1 0 5 0;
#X connect 2 0 6 0;
#X connect 3 0 7 0;
#X connect 4 0 8 0;
#X connect 5 0 8 0;
#X connect 6 0 8 0;
#X connect 7 0 8 0;
#X restore 100 175 pd midi;
#X obj 14 276 *~;
#X obj 49 275 *~;
#X obj 122 54 r smidi-20;
#N canvas 0 22 450 300 fade 0;
#X obj 29 50 r gem-fade;
#X floatatom 29 74 5 0 0 0 - - -;
#X obj 29 124 outlet~;
#X obj 29 98 sig~ 1;
#X obj 103 101 hsl 100 15 0 1 0 0 empty empty empty -2 -8 0 10 -262144
-1 -1 0 1;
#X connect 0 0 1 0;
#X connect 1 0 3 0;
#X connect 1 0 4 0;
#X connect 3 0 2 0;
#X coords 0 -1 1 1 105 15 1 100 100;
#X restore 82 277 pd fade;
#X obj 123 75 r gem-3d;
#N canvas 0 22 495 436 dis 0;
#X obj 118 200 st-bitcrusher /key;
#X obj 246 22 r v-distance;
#X floatatom 245 47 5 0 0 0 - - -;
#X obj 245 69 k_event 1.7 4;
#X obj 321 92 k_event 4 13;
#X obj 115 113 inlet~;
#X obj 164 116 inlet~;
#X obj 125 301 outlet~;
#X obj 276 301 outlet~;
#X msg 321 138 0 \$1;
#X obj 200 98 k_range 1.7 4 0.6 1;
#X msg 228 139 1 \$1;
#X obj 321 117 k_range 4 13 1 0.7;
#X connect 0 0 7 0;
#X connect 0 1 8 0;
#X connect 1 0 2 0;
#X connect 2 0 3 0;
#X connect 3 0 10 0;
#X connect 3 1 4 0;
#X connect 4 0 12 0;
#X connect 5 0 0 0;
#X connect 6 0 0 1;
#X connect 9 0 0 2;
#X connect 10 0 11 0;
#X connect 11 0 0 2;
#X connect 12 0 9 0;
#X restore 14 160 pd dis;
#X obj 202 88 a2-control;
#X obj 202 292 diy2-help;
#X obj 139 329 k_vol;
#X obj 2 330 k_vol;
#X obj 272 328 k_cpu;
#X obj 14 45 k_stereo;
#X connect 4 0 28 0;
#X connect 5 0 28 1;
#X connect 7 0 17 0;
#X connect 7 1 18 0;
#X connect 10 0 12 2;
#X connect 11 0 10 0;
#X connect 12 0 14 0;
#X connect 12 1 14 1;
#X connect 13 0 15 0;
#X connect 14 0 22 0;
#X connect 14 1 22 1;
#X connect 15 0 14 2;
#X connect 16 0 7 2;
#X connect 17 0 8 0;
#X connect 17 0 26 0;
#X connect 18 0 8 1;
#X connect 18 0 25 0;
#X connect 19 0 28 2;
#X connect 20 0 18 1;
#X connect 20 0 17 1;
#X connect 22 0 7 0;
#X connect 22 1 7 1;
#X connect 28 0 12 0;
#X connect 28 1 12 1;
