#N canvas 140 273 972 469 10;
#X obj 103 117 cnv 15 164 30 empty empty empty 20 12 0 14 -170990 -66577
0;
#X obj 649 296 st-phaser /key;
#X obj 649 220 st-pureverb /key;
#X msg 840 219 0 \$1;
#X obj 840 189 r v-speed;
#X obj 130 126 hsl 50 15 0 1 0 0 empty empty vol 5 7 0 10 -258113 -1
-1 4900 1;
#X obj 88 33 loadbang;
#X obj 384 317 st-pureverb /key;
#X obj 384 239 st-vibrato;
#X obj 384 205 catch~ ro;
#X obj 557 16 r v-distance;
#X floatatom 557 59 5 0 0 0 - - -;
#X floatatom 556 101 5 0 0 0 - - -;
#X msg 556 126 2 \$1;
#X obj 107 218 line;
#X obj 107 126 tgl 15 0 empty empty empty 17 7 0 10 -258113 -1 -1 1
1;
#X obj 90 -41 catch~ aa_left;
#X obj 182 -41 catch~ aa_right;
#X msg 88 56 0;
#X obj 145 34 r a1_allvol;
#X floatatom 145 58 5 0 0 0 - - -;
#X obj 437 152 loadbang;
#X msg 399 85 1 \$1;
#X msg 372 144 0 \$1;
#X obj 399 63 expr (($f1-4)/9)*0.7+0.3;
#X obj 372 113 expr (($f1-4)/9)*0.6+0.4;
#X obj 557 38 t f f f;
#X obj 822 393 throw~ \$0-a1-r;
#X obj 649 391 throw~ \$0-a1-l;
#X obj 182 6 throw~ \$0-a1-r;
#X obj 90 6 throw~ \$0-a1-l;
#X obj 384 394 throw~ \$0-a1-l;
#X obj 557 391 throw~ \$0-a1-r;
#X obj 162 244 catch~ \$0-a1-l;
#X obj 288 245 catch~ \$0-a1-r;
#X obj 162 394 throw~ k_vol_l;
#X obj 288 394 throw~ k_vol_r;
#X floatatom 205 105 5 0 0 0 - - -;
#X obj 208 126 hsl 50 15 0 1 0 0 empty empty empty -2 -8 0 10 -262144
-1 -1 2410 1;
#N canvas 0 22 450 300 effect-pain 0;
#X floatatom 86 146 5 0 0 0 - - -;
#X obj 86 121 expr if($f1<0.5 \, ($f1/0.5)*-0.5+1 \, 1-$f1 );
#X obj 127 146 expr abs($f1-1);
#X floatatom 129 165 5 0 0 0 - - -;
#X obj 129 187 sig~;
#X obj 86 170 sig~;
#X obj 86 220 outlet~;
#X obj 129 248 outlet~;
#X obj 86 78 inlet;
#X connect 0 0 2 0;
#X connect 0 0 5 0;
#X connect 1 0 0 0;
#X connect 2 0 3 0;
#X connect 3 0 4 0;
#X connect 4 0 7 0;
#X connect 5 0 6 0;
#X connect 8 0 1 0;
#X restore 205 189 pd effect-pain;
#X obj 162 345 *~;
#X obj 288 341 *~;
#N canvas 0 22 450 300 effect-dis 0;
#X obj 121 -14 expr abs((($f1-4)/9)*0.2-1);
#X obj 121 -42 r v-distance;
#X obj 121 15 sig~;
#X obj 121 50 outlet~;
#X obj 173 51 outlet~;
#X connect 0 0 2 0;
#X connect 1 0 0 0;
#X connect 2 0 3 0;
#X connect 2 0 4 0;
#X restore 197 275 pd effect-dis;
#X obj 162 317 *~;
#X obj 288 315 *~;
#N canvas 0 22 450 300 effect-gain 0;
#X obj 121 15 sig~;
#X obj 121 50 outlet~;
#X obj 173 51 outlet~;
#X obj 121 -42 inlet;
#X connect 0 0 1 0;
#X connect 0 0 2 0;
#X connect 3 0 0 0;
#X restore 177 211 pd effect-gain;
#X obj 162 276 *~;
#X obj 288 278 *~;
#N canvas 545 348 450 300 ctl-dis 0;
#X obj 138 13 r fader;
#X floatatom 138 86 5 0 0 0 - - -;
#X floatatom 138 37 5 0 0 0 - - -;
#X floatatom 279 36 5 0 0 0 - - -;
#X obj 138 110 clip 0.15 0.85;
#X obj 279 12 r v-distance;
#X obj 140 147 outlet;
#X obj 138 60 expr (($f1+$f2))/($f2*2)-0.01;
#X connect 0 0 2 0;
#X connect 1 0 4 0;
#X connect 2 0 7 0;
#X connect 3 0 7 1;
#X connect 4 0 6 0;
#X connect 5 0 3 0;
#X connect 7 0 1 0;
#X restore 205 72 pd ctl-dis;
#X obj 372 39 t f f;
#X obj 372 15 r v-distance;
#X text 451 205 rotate-sound;
#X msg 437 179 0 0.4 \, 1 0.3 \, 3 0.49;
#X obj 556 78 k_range 1 13 1 0;
#X obj 131 150 hsl 50 15 0 1 0 0 empty empty split 5 7 0 10 -258113
-1 -1 4552 1;
#X obj 649 188 *~ 0;
#X obj 692 132 *~ 0;
#X obj 692 106 catch~ a_right;
#X obj 649 161 catch~ a_left;
#X obj 107 149 tgl 15 0 empty empty empty 17 7 0 10 -258113 -1 -1 1
1;
#X obj 32 223 line;
#X floatatom 688 72 5 0 0 0 - - -;
#X msg 107 193 \$1 20000;
#X msg 32 198 \$1 20000;
#X obj 822 112 adc~;
#X connect 1 0 28 0;
#X connect 1 1 27 0;
#X connect 2 0 1 0;
#X connect 2 1 1 1;
#X connect 3 0 1 2;
#X connect 4 0 3 0;
#X connect 5 0 45 0;
#X connect 6 0 18 0;
#X connect 7 0 31 0;
#X connect 7 1 32 0;
#X connect 8 0 7 0;
#X connect 8 1 7 1;
#X connect 9 0 8 0;
#X connect 9 0 8 1;
#X connect 10 0 26 0;
#X connect 11 0 53 0;
#X connect 12 0 13 0;
#X connect 13 0 2 2;
#X connect 13 0 7 2;
#X connect 14 0 5 0;
#X connect 15 0 62 0;
#X connect 16 0 30 0;
#X connect 17 0 29 0;
#X connect 18 0 15 0;
#X connect 19 0 20 0;
#X connect 20 0 15 0;
#X connect 21 0 52 0;
#X connect 22 0 8 2;
#X connect 23 0 8 2;
#X connect 24 0 22 0;
#X connect 25 0 23 0;
#X connect 26 0 11 0;
#X connect 33 0 46 0;
#X connect 34 0 47 0;
#X connect 37 0 38 0;
#X connect 38 0 39 0;
#X connect 39 0 40 1;
#X connect 39 1 41 1;
#X connect 40 0 35 0;
#X connect 41 0 36 0;
#X connect 42 0 43 1;
#X connect 42 1 44 1;
#X connect 43 0 40 0;
#X connect 44 0 41 0;
#X connect 45 0 46 1;
#X connect 45 1 47 1;
#X connect 46 0 43 0;
#X connect 47 0 44 0;
#X connect 48 0 37 0;
#X connect 49 0 25 0;
#X connect 49 1 24 0;
#X connect 50 0 49 0;
#X connect 52 0 8 2;
#X connect 53 0 12 0;
#X connect 54 0 61 0;
#X connect 55 0 2 0;
#X connect 56 0 2 1;
#X connect 57 0 56 0;
#X connect 58 0 55 0;
#X connect 59 0 63 0;
#X connect 60 0 54 0;
#X connect 61 0 55 1;
#X connect 61 0 56 1;
#X connect 62 0 14 0;
#X connect 63 0 60 0;
#X coords 0 -1 1 1 170 70 1 100 100;
