#N canvas 93 167 614 586 10;
#X floatatom 228 284 5 0 0 0 - - -;
#X floatatom 43 275 5 0 0 0 - - -;
#X obj 43 499 throw~ a_left;
#X obj 207 36 inlet;
#X obj 43 240 route /f /v;
#X obj 228 256 route /f /v;
#X floatatom 143 108 5 0 0 0 - - -;
#X obj 143 129 sel 0 1;
#X msg 143 156 0 1;
#X msg 162 184 1 0;
#X obj 143 63 loadbang;
#X msg 143 84 1;
#X floatatom 83 265 5 0 0 0 - - -;
#N canvas 501 106 470 708 jumpsound 0;
#X obj 283 361 line;
#X obj 283 303 tgl 15 0 empty empty empty 17 7 0 10 -262144 -1 -1 0
1;
#X obj 283 271 inlet;
#X obj 184 556 outlet~;
#X obj 242 555 outlet~;
#X obj 242 503 *~ 0;
#X obj 184 503 *~ 0;
#X obj 321 271 loadbang;
#X msg 321 293 0;
#X msg 283 325 \$1 3000;
#X obj 68 270 expr if($f1>0.9 \, 1 \, 0);
#X obj 68 228 k_sig;
#X obj 67 345 perk-bassdrum /key;
#X obj 68 294 change;
#X obj 67 320 sel 1;
#X obj 68 200 phasor~ 4;
#X obj 198 207 loadbang;
#X msg 198 230 0 0.7 \, 1 0.7 \, 2 0.85 \, 3 0.2;
#X obj 184 529 *~ 0.4;
#X obj 242 528 *~ 0.4;
#X obj 84 111 random 8;
#X obj 84 138 + 3;
#X obj 84 76 loadbang;
#X connect 0 0 5 1;
#X connect 0 0 6 1;
#X connect 1 0 9 0;
#X connect 2 0 1 0;
#X connect 5 0 19 0;
#X connect 6 0 18 0;
#X connect 7 0 8 0;
#X connect 8 0 1 0;
#X connect 9 0 0 0;
#X connect 10 0 13 0;
#X connect 11 0 10 0;
#X connect 12 0 6 0;
#X connect 12 0 5 0;
#X connect 13 0 14 0;
#X connect 14 0 12 0;
#X connect 15 0 11 0;
#X connect 16 0 17 0;
#X connect 17 0 12 1;
#X connect 18 0 3 0;
#X connect 19 0 4 0;
#X connect 20 0 21 0;
#X connect 21 0 15 0;
#X connect 22 0 20 0;
#X restore 453 99 pd jumpsound;
#X obj 228 505 throw~ a_right;
#X floatatom 316 101 5 0 0 0 split-speed - -;
#X obj 393 197 route /osc;
#X floatatom 393 219 5 0 0 0 - - -;
#X obj 207 64 route /l /r /soso /jumpsound /zro /yro /xro /jump;
#X obj 393 172 route /ro /motion;
#X obj 43 303 t f f;
#X obj 143 210 s \$0-shade;
#X obj 100 424 r \$0-shade;
#X obj 285 438 r \$0-shade;
#N canvas 594 196 573 584 collision 0;
#X obj 55 18 inlet;
#X obj 143 19 inlet;
#X floatatom 55 110 5 0 0 0 - - -;
#X obj 178 334 *~;
#X obj 55 136 expr if($f1>1 || $f1<0 \, 1 \, 0);
#X obj 280 202 expr~ if($v1>0.5 \, 1 \, 0);
#X obj 178 300 *~;
#X obj 267 359 *~;
#X obj 267 391 *~;
#X obj 55 51 k_s-tweener;
#X obj 178 391 outlet~;
#X obj 267 445 outlet~;
#X obj 178 220 inlet;
#X obj 267 269 inlet;
#X obj 55 161 t f f;
#X obj 82 186 sig~;
#X obj 55 210 sig~;
#X obj 313 266 expr~ fmod($v1+0.5 \, 1);
#X obj 313 293 expr~ if($v1>0.5 \, 1 \, 0);
#X obj 280 175 phasor~ 5;
#X obj 267 306 * 2;
#X obj 178 272 osc~ 440;
#X obj 267 331 osc~ 440;
#X obj -26 158 outlet~;
#X obj -26 129 sig~ 1;
#X obj -26 97 expr 1-$f1;
#X obj 178 359 *~ 0.15;
#X obj 267 415 *~ 0.15;
#X obj 178 247 * 5;
#X connect 0 0 9 0;
#X connect 1 0 9 1;
#X connect 2 0 4 0;
#X connect 2 0 25 0;
#X connect 3 0 26 0;
#X connect 4 0 14 0;
#X connect 5 0 6 1;
#X connect 6 0 3 0;
#X connect 7 0 8 0;
#X connect 8 0 27 0;
#X connect 9 0 2 0;
#X connect 12 0 28 0;
#X connect 13 0 20 0;
#X connect 14 0 16 0;
#X connect 14 1 15 0;
#X connect 15 0 8 1;
#X connect 16 0 3 1;
#X connect 17 0 18 0;
#X connect 18 0 7 1;
#X connect 19 0 5 0;
#X connect 19 0 17 0;
#X connect 20 0 22 0;
#X connect 21 0 6 0;
#X connect 22 0 7 0;
#X connect 24 0 23 0;
#X connect 25 0 24 0;
#X connect 26 0 10 0;
#X connect 27 0 11 0;
#X connect 28 0 21 0;
#X restore 123 371 pd collision;
#X msg 83 344 1 \, 0 \$1;
#X obj 83 370 line~;
#X obj 83 394 *~;
#X obj 83 322 expr $f1/1;
#X obj 83 288 t f f;
#X obj 228 313 t f f;
#X obj 43 471 *~ 0.8;
#X obj 228 483 *~ 0.8;
#N canvas 122 24 491 703 ro-sound 0;
#X obj 7 -102 inlet;
#X obj 172 136 phasor~;
#X obj 172 164 *~ 440;
#X obj 172 210 osc~ 50;
#X obj 125 313 throw~ ro;
#X obj 24 223 *~;
#X obj 24 122 t f f;
#X obj 24 191 phasor~ 600;
#X obj 128 -34 expr abs($f1-0.5)*2;
#X obj 128 -10 expr abs($f1-1);
#X floatatom 128 12 5 0 0 0 - - -;
#X obj 252 -9 expr abs($f1-0.5)*2;
#X obj 253 15 expr abs($f1-1);
#X obj -46 240 *~;
#X obj -46 212 bp~ 100 2;
#X obj -94 -21 expr abs($f1-0.5)*2;
#X obj -94 3 expr abs($f1-1);
#X floatatom -94 24 5 0 0 0 - - -;
#X obj -46 173 noise~;
#X obj 10 -274 sel 0 1 2 3 4;
#X msg 10 -248 3000;
#X msg 25 -231 2500;
#X msg 40 -250 2000;
#X msg 55 -228 1000;
#X obj 10 -326 loadbang;
#X msg 10 -302 0;
#X msg 70 -250 500;
#X floatatom 10 -205 5 0 0 0 - - -;
#X obj 10 -182 t f f f;
#X obj -94 -47 outquart;
#X msg -94 -93 \$1;
#X msg 128 -101 \$1;
#X obj -94 -69 line;
#X obj 128 -80 line;
#X floatatom 156 -100 5 0 0 0 - - -;
#X floatatom -67 -93 5 0 0 0 - - -;
#X obj 156 -127 t b;
#X obj -67 -121 t b;
#X obj 128 -58 insine;
#X obj 128 -175 tgl 15 0 empty empty empty 17 7 0 10 -262144 -1 -1
0 1;
#X obj -94 -172 tgl 15 0 empty empty empty 17 7 0 10 -262144 -1 -1
0 1;
#X obj 128 -153 t f b;
#X obj -94 -149 t f b;
#X obj 252 -33 outquart;
#X msg 252 -79 \$1;
#X obj 252 -55 line;
#X floatatom 279 -79 5 0 0 0 - - -;
#X obj 279 -107 t b;
#X obj 252 -158 tgl 15 0 empty empty empty 17 7 0 10 -262144 -1 -1
0 1;
#X obj 252 -135 t f b;
#X obj 7 52 t f f f f;
#X floatatom 7 30 5 0 0 0 - - -;
#X obj -94 -197 inlet z;
#X obj 128 -205 inlet y;
#X obj 252 -181 inlet x;
#X obj 7 -46 line;
#X msg 7 -73 \$1 100;
#X obj 7 6 expr ($f1*1);
#X obj 172 238 *~;
#X obj 125 281 *~ 1;
#X obj -94 76 *~ 3;
#X obj 24 159 * 0.8;
#X obj 24 248 -~;
#X floatatom 253 39 5 0 0 0 - - -;
#X obj 253 64 sig~;
#X obj 128 35 sig~;
#X obj -94 49 sig~;
#X obj 52 223 /~ 2;
#X obj 253 96 *~ 0.6;
#X obj 128 78 *~ 0.6;
#X connect 0 0 56 0;
#X connect 1 0 2 0;
#X connect 2 0 3 0;
#X connect 3 0 58 0;
#X connect 5 0 62 0;
#X connect 6 0 61 0;
#X connect 7 0 5 0;
#X connect 8 0 9 0;
#X connect 9 0 10 0;
#X connect 10 0 65 0;
#X connect 11 0 12 0;
#X connect 12 0 63 0;
#X connect 13 0 59 0;
#X connect 14 0 13 0;
#X connect 15 0 16 0;
#X connect 16 0 17 0;
#X connect 17 0 66 0;
#X connect 18 0 14 0;
#X connect 19 0 20 0;
#X connect 19 1 21 0;
#X connect 19 2 22 0;
#X connect 19 3 23 0;
#X connect 19 4 26 0;
#X connect 20 0 27 0;
#X connect 21 0 27 0;
#X connect 22 0 27 0;
#X connect 23 0 27 0;
#X connect 24 0 25 0;
#X connect 25 0 19 0;
#X connect 26 0 27 0;
#X connect 27 0 28 0;
#X connect 28 0 35 0;
#X connect 28 1 34 0;
#X connect 28 2 46 0;
#X connect 29 0 15 0;
#X connect 30 0 32 0;
#X connect 31 0 33 0;
#X connect 32 0 29 0;
#X connect 33 0 38 0;
#X connect 34 0 33 1;
#X connect 35 0 32 1;
#X connect 36 0 34 0;
#X connect 37 0 35 0;
#X connect 38 0 8 0;
#X connect 39 0 41 0;
#X connect 40 0 42 0;
#X connect 41 0 31 0;
#X connect 41 1 36 0;
#X connect 42 0 30 0;
#X connect 42 1 37 0;
#X connect 43 0 11 0;
#X connect 44 0 45 0;
#X connect 45 0 43 0;
#X connect 46 0 45 1;
#X connect 47 0 46 0;
#X connect 48 0 49 0;
#X connect 49 0 44 0;
#X connect 49 1 47 0;
#X connect 50 0 14 1;
#X connect 50 1 6 0;
#X connect 50 2 1 0;
#X connect 50 3 2 1;
#X connect 51 0 50 0;
#X connect 52 0 40 0;
#X connect 53 0 39 0;
#X connect 54 0 48 0;
#X connect 55 0 57 0;
#X connect 56 0 55 0;
#X connect 57 0 51 0;
#X connect 58 0 59 0;
#X connect 59 0 4 0;
#X connect 60 0 13 1;
#X connect 61 0 7 0;
#X connect 62 0 59 0;
#X connect 63 0 64 0;
#X connect 64 0 68 0;
#X connect 65 0 69 0;
#X connect 66 0 60 0;
#X connect 67 0 62 1;
#X connect 68 0 58 1;
#X connect 69 0 5 1;
#X connect 69 0 67 0;
#X restore 372 245 pd ro-sound;
#X obj 453 137 throw~ aa_left;
#X obj 522 159 throw~ aa_right;
#X obj 43 445 music_part;
#X obj 228 459 music_part;
#X connect 0 0 30 0;
#X connect 1 0 20 0;
#X connect 3 0 18 0;
#X connect 4 0 1 0;
#X connect 4 1 12 0;
#X connect 5 0 0 0;
#X connect 6 0 7 0;
#X connect 7 0 8 0;
#X connect 7 1 9 0;
#X connect 8 0 21 0;
#X connect 9 0 21 0;
#X connect 10 0 11 0;
#X connect 11 0 6 0;
#X connect 12 0 29 0;
#X connect 13 0 34 0;
#X connect 13 1 35 0;
#X connect 16 0 17 0;
#X connect 17 0 33 1;
#X connect 18 0 4 0;
#X connect 18 1 5 0;
#X connect 18 2 6 0;
#X connect 18 3 15 0;
#X connect 18 4 33 0;
#X connect 18 5 33 2;
#X connect 18 6 33 3;
#X connect 18 7 13 0;
#X connect 18 8 19 0;
#X connect 19 0 16 0;
#X connect 19 1 24 1;
#X connect 20 0 36 0;
#X connect 20 1 24 2;
#X connect 22 0 36 2;
#X connect 23 0 37 2;
#X connect 24 0 27 1;
#X connect 24 1 2 0;
#X connect 24 2 14 0;
#X connect 25 0 26 0;
#X connect 26 0 27 0;
#X connect 27 0 36 1;
#X connect 27 0 37 1;
#X connect 28 0 25 0;
#X connect 29 0 28 0;
#X connect 29 1 24 0;
#X connect 30 0 37 0;
#X connect 30 1 24 3;
#X connect 31 0 2 0;
#X connect 32 0 14 0;
#X connect 36 0 31 0;
#X connect 37 0 32 0;
