#N canvas 493 124 910 712 10;
#X floatatom 416 193 5 0 0 0 - - -;
#X floatatom -16 220 5 0 0 0 - - -;
#X obj -16 428 throw~ a_left;
#X obj 416 413 throw~ a_right;
#X obj 89 129 t f f;
#X msg 89 216 1;
#X msg 121 216 0;
#X obj 106 266 eee-adsr~;
#X obj 194 145 t f f f f;
#X obj 195 219 pack f f f;
#X obj 195 194 * 0.1;
#X obj 211 171 * 0.3;
#X obj 254 170 * 0.5;
#X obj 121 195 delay 800;
#X obj 89 152 t b b f;
#X obj 128 174 / 2;
#X msg 196 242 1 \$1 \, 2 \$2 \, 3 0.1 \, 4 \$3;
#X obj 471 123 t f f;
#X msg 471 210 1;
#X msg 503 210 0;
#X obj 488 260 eee-adsr~;
#X obj 576 139 t f f f f;
#X obj 577 213 pack f f f;
#X obj 577 188 * 0.1;
#X obj 593 165 * 0.3;
#X obj 636 164 * 0.5;
#X obj 503 189 delay 800;
#X obj 471 146 t b b f;
#X obj 510 168 / 2;
#X msg 578 236 1 \$1 \, 2 \$2 \, 3 0.1 \, 4 \$3;
#X obj 720 611 tgl 15 0 empty \$0-tgljump jump 0 -7 0 10 -159808 -1
-1 0 1;
#X obj 722 528 r \$0-monoise;
#X obj 614 555 hsl 30 15 0 255 0 0 empty midi_a7 ambitus 0 -5 0 10
-262144 -1 -1 0 1;
#X obj 666 552 hsl 30 15 0 255 0 0 empty midi_o7 offset 0 -5 0 10 -262144
-1 -1 0 1;
#N canvas 497 53 912 466 sound 0;
#N canvas 708 490 357 288 o1 0;
#X obj 29 28 inlet;
#X obj 29 105 random 100;
#X obj 29 163 + 20;
#X obj 29 190 mtof;
#X obj 29 219 osc~;
#X obj 30 249 outlet~;
#X obj 177 37 r ambitus;
#X floatatom 177 64 5 0 0 0 - - -;
#X obj 237 94 r offset;
#X floatatom 237 119 5 0 0 0 - - -;
#X connect 0 0 1 0;
#X connect 1 0 2 0;
#X connect 2 0 3 0;
#X connect 3 0 4 0;
#X connect 4 0 5 0;
#X connect 6 0 7 0;
#X connect 7 0 1 1;
#X connect 8 0 9 0;
#X connect 9 0 2 1;
#X restore -21 141 pd o1;
#X floatatom 348 88 5 0 0 0 - - -;
#X obj 348 111 s ambitus;
#X floatatom 426 88 5 0 0 0 - - -;
#X obj 426 111 s offset;
#X obj 362 50 inlet;
#X obj 428 53 inlet;
#X obj 291 50 inlet;
#X obj 165 324 outlet~;
#N canvas 708 490 357 288 o1 0;
#X obj 29 28 inlet;
#X obj 29 105 random 100;
#X obj 29 163 + 20;
#X obj 29 190 mtof;
#X obj 29 219 osc~;
#X obj 30 249 outlet~;
#X obj 177 37 r ambitus;
#X floatatom 177 64 5 0 0 0 - - -;
#X obj 237 94 r offset;
#X floatatom 237 119 5 0 0 0 - - -;
#X connect 0 0 1 0;
#X connect 1 0 2 0;
#X connect 2 0 3 0;
#X connect 3 0 4 0;
#X connect 4 0 5 0;
#X connect 6 0 7 0;
#X connect 7 0 1 1;
#X connect 8 0 9 0;
#X connect 9 0 2 1;
#X restore 19 142 pd o1;
#N canvas 708 490 357 288 o1 0;
#X obj 29 28 inlet;
#X obj 29 105 random 100;
#X obj 29 163 + 20;
#X obj 29 190 mtof;
#X obj 29 219 osc~;
#X obj 30 249 outlet~;
#X obj 177 37 r ambitus;
#X floatatom 177 64 5 0 0 0 - - -;
#X obj 237 94 r offset;
#X floatatom 237 119 5 0 0 0 - - -;
#X connect 0 0 1 0;
#X connect 1 0 2 0;
#X connect 2 0 3 0;
#X connect 3 0 4 0;
#X connect 4 0 5 0;
#X connect 6 0 7 0;
#X connect 7 0 1 1;
#X connect 8 0 9 0;
#X connect 9 0 2 1;
#X restore 59 142 pd o1;
#N canvas 708 490 357 288 o1 0;
#X obj 29 28 inlet;
#X obj 29 105 random 100;
#X obj 29 163 + 20;
#X obj 29 190 mtof;
#X obj 29 219 osc~;
#X obj 30 249 outlet~;
#X obj 177 37 r ambitus;
#X floatatom 177 64 5 0 0 0 - - -;
#X obj 237 94 r offset;
#X floatatom 237 119 5 0 0 0 - - -;
#X connect 0 0 1 0;
#X connect 1 0 2 0;
#X connect 2 0 3 0;
#X connect 3 0 4 0;
#X connect 4 0 5 0;
#X connect 6 0 7 0;
#X connect 7 0 1 1;
#X connect 8 0 9 0;
#X connect 9 0 2 1;
#X restore 99 143 pd o1;
#N canvas 708 490 357 288 o1 0;
#X obj 29 28 inlet;
#X obj 29 105 random 100;
#X obj 29 163 + 20;
#X obj 29 190 mtof;
#X obj 29 219 osc~;
#X obj 30 249 outlet~;
#X obj 177 37 r ambitus;
#X floatatom 177 64 5 0 0 0 - - -;
#X obj 237 94 r offset;
#X floatatom 237 119 5 0 0 0 - - -;
#X connect 0 0 1 0;
#X connect 1 0 2 0;
#X connect 2 0 3 0;
#X connect 3 0 4 0;
#X connect 4 0 5 0;
#X connect 6 0 7 0;
#X connect 7 0 1 1;
#X connect 8 0 9 0;
#X connect 9 0 2 1;
#X restore 363 153 pd o1;
#N canvas 708 490 357 288 o1 0;
#X obj 29 28 inlet;
#X obj 29 105 random 100;
#X obj 29 163 + 20;
#X obj 29 190 mtof;
#X obj 29 219 osc~;
#X obj 30 249 outlet~;
#X obj 177 37 r ambitus;
#X floatatom 177 64 5 0 0 0 - - -;
#X obj 237 94 r offset;
#X floatatom 237 119 5 0 0 0 - - -;
#X connect 0 0 1 0;
#X connect 1 0 2 0;
#X connect 2 0 3 0;
#X connect 3 0 4 0;
#X connect 4 0 5 0;
#X connect 6 0 7 0;
#X connect 7 0 1 1;
#X connect 8 0 9 0;
#X connect 9 0 2 1;
#X restore 403 154 pd o1;
#N canvas 708 490 357 288 o1 0;
#X obj 29 28 inlet;
#X obj 29 105 random 100;
#X obj 29 163 + 20;
#X obj 29 190 mtof;
#X obj 29 219 osc~;
#X obj 30 249 outlet~;
#X obj 177 37 r ambitus;
#X floatatom 177 64 5 0 0 0 - - -;
#X obj 237 94 r offset;
#X floatatom 237 119 5 0 0 0 - - -;
#X connect 0 0 1 0;
#X connect 1 0 2 0;
#X connect 2 0 3 0;
#X connect 3 0 4 0;
#X connect 4 0 5 0;
#X connect 6 0 7 0;
#X connect 7 0 1 1;
#X connect 8 0 9 0;
#X connect 9 0 2 1;
#X restore 443 154 pd o1;
#N canvas 708 490 357 288 o1 0;
#X obj 29 28 inlet;
#X obj 29 105 random 100;
#X obj 29 163 + 20;
#X obj 29 190 mtof;
#X obj 29 219 osc~;
#X obj 30 249 outlet~;
#X obj 177 37 r ambitus;
#X floatatom 177 64 5 0 0 0 - - -;
#X obj 237 94 r offset;
#X floatatom 237 119 5 0 0 0 - - -;
#X connect 0 0 1 0;
#X connect 1 0 2 0;
#X connect 2 0 3 0;
#X connect 3 0 4 0;
#X connect 4 0 5 0;
#X connect 6 0 7 0;
#X connect 7 0 1 1;
#X connect 8 0 9 0;
#X connect 9 0 2 1;
#X restore 483 155 pd o1;
#X obj 455 338 outlet~;
#X obj 572 68 inlet;
#X obj 173 273 *~ 0;
#X obj 463 287 *~ 0;
#X connect 0 0 18 0;
#X connect 1 0 2 0;
#X connect 3 0 4 0;
#X connect 5 0 1 0;
#X connect 6 0 3 0;
#X connect 7 0 0 0;
#X connect 7 0 9 0;
#X connect 7 0 10 0;
#X connect 7 0 11 0;
#X connect 7 0 12 0;
#X connect 7 0 13 0;
#X connect 7 0 14 0;
#X connect 7 0 15 0;
#X connect 9 0 18 0;
#X connect 10 0 18 0;
#X connect 11 0 18 0;
#X connect 12 0 19 0;
#X connect 13 0 19 0;
#X connect 14 0 19 0;
#X connect 15 0 19 0;
#X connect 17 0 18 1;
#X connect 17 0 19 1;
#X connect 18 0 8 0;
#X connect 19 0 16 0;
#X restore 592 625 pd sound 7;
#X obj 592 657 *~;
#X obj 649 656 *~;
#X floatatom 611 581 5 0 0 0 - - -;
#X floatatom 663 582 5 0 0 0 - - -;
#X obj 672 466 r \$0-xro-so;
#X obj 746 466 r \$0-yro-so;
#X obj 611 519 + 20;
#X obj 686 523 + 20;
#X obj 671 488 * 0.5;
#X obj 746 491 * 0.5;
#X obj 722 554 / 50;
#X obj -16 396 *~ 0.33;
#X obj 416 383 *~ 0.33;
#X obj -16 352 music_part;
#X obj 416 351 music_part;
#X obj 213 24 inlet;
#X obj 213 48 route /l /r /soso /jumpsound /xro /yro /mononoise /jump
;
#X obj 213 82 route /f /v;
#X obj 290 82 route /f /v;
#X obj 294 140 f;
#X obj 522 412 b;
#X connect 0 0 49 0;
#X connect 1 0 48 0;
#X connect 4 0 14 0;
#X connect 4 1 8 0;
#X connect 5 0 7 0;
#X connect 6 0 7 0;
#X connect 7 0 48 1;
#X connect 8 0 10 0;
#X connect 8 1 11 0;
#X connect 8 2 12 0;
#X connect 9 0 16 0;
#X connect 10 0 9 0;
#X connect 11 0 9 1;
#X connect 12 0 9 2;
#X connect 13 0 6 0;
#X connect 14 0 5 0;
#X connect 14 1 13 0;
#X connect 14 2 15 0;
#X connect 15 0 13 1;
#X connect 16 0 7 1;
#X connect 17 0 27 0;
#X connect 17 1 21 0;
#X connect 18 0 20 0;
#X connect 19 0 20 0;
#X connect 20 0 49 1;
#X connect 21 0 23 0;
#X connect 21 1 24 0;
#X connect 21 2 25 0;
#X connect 22 0 29 0;
#X connect 23 0 22 0;
#X connect 24 0 22 1;
#X connect 25 0 22 2;
#X connect 26 0 19 0;
#X connect 27 0 18 0;
#X connect 27 1 26 0;
#X connect 27 2 28 0;
#X connect 28 0 26 1;
#X connect 29 0 20 1;
#X connect 30 0 35 1;
#X connect 30 0 36 1;
#X connect 31 0 45 0;
#X connect 32 0 37 0;
#X connect 33 0 38 0;
#X connect 34 0 35 0;
#X connect 34 1 36 0;
#X connect 35 0 2 0;
#X connect 36 0 3 0;
#X connect 37 0 34 1;
#X connect 38 0 34 2;
#X connect 39 0 43 0;
#X connect 40 0 44 0;
#X connect 41 0 32 0;
#X connect 42 0 33 0;
#X connect 43 0 41 0;
#X connect 44 0 42 0;
#X connect 45 0 34 3;
#X connect 46 0 2 0;
#X connect 47 0 3 0;
#X connect 48 0 46 0;
#X connect 49 0 47 0;
#X connect 50 0 51 0;
#X connect 51 0 52 0;
#X connect 51 1 53 0;
#X connect 51 2 54 0;
#X connect 51 3 55 0;
#X connect 52 0 1 0;
#X connect 52 1 4 0;
#X connect 53 0 0 0;
#X connect 53 1 17 0;
#X connect 54 0 48 2;
#X connect 54 0 49 2;
#X connect 55 0 34 0;
