#N canvas 117 28 1008 729 10;
#X obj 108 -181 st-FFTreverb;
#X obj 151 -225 catch~ right;
#X obj 108 -203 catch~ left;
#X obj 103 118 cnv 15 164 30 empty empty empty 20 12 0 14 -158451 -66577
0;
#X obj 130 127 hsl 50 15 0 1 0 0 empty empty vol 5 7 0 10 -258113 -1
-1 987 1;
#X obj 108 43 loadbang;
#X obj 212 127 hsl 50 15 0 1 0 0 empty empty empty -2 -8 0 10 -262144
-1 -1 2410 1;
#X obj 108 195 line;
#X obj 108 127 tgl 15 0 empty empty empty 17 7 0 10 -258113 -1 -1 0
1;
#X obj 108 -91 st-bitcrusher /key;
#X obj 438 350 bp~ 100 2;
#X obj 482 323 * 2;
#X obj 438 311 noise~;
#X msg 108 77 0;
#X obj 30 80 r a2_allvol;
#X obj 285 319 *~;
#X obj 155 312 *~;
#X obj 515 348 bp~ 100 2;
#X obj 515 309 noise~;
#X obj 602 347 bp~ 100 2;
#X obj 602 308 noise~;
#X obj 645 320 * 1;
#X obj 558 321 * 3;
#X obj 506 -181 r bomb;
#X obj 506 -130 sel 1;
#X obj 506 -31 line;
#X obj 506 -5 *~;
#X obj 506 24 *~ 1;
#X obj 506 -104 t b b;
#X msg 533 -79 1 0;
#X obj 566 -181 r time;
#X obj 566 -147 pack \$1 0;
#X msg 566 -122 \$2 \$1;
#X msg 566 -101 set \$1 \$2;
#X obj 438 -13 *~;
#X obj 438 -136 noise~;
#X obj 438 56 st-FFTreverb;
#X obj 570 -1 loadbang;
#X obj 438 -111 lop~ 600;
#X obj 108 -15 throw~ \$0-a2-l;
#X obj 281 -15 throw~ \$0-a2-r;
#X obj 418 423 throw~ \$0-a2-l;
#X obj 515 423 throw~ \$0-a2-r;
#X obj 438 131 throw~ \$0-a2-l;
#X obj 611 143 throw~ \$0-a2-r;
#X obj 155 196 catch~ \$0-a2-l;
#X obj 186 165 catch~ \$0-a2-r;
#X msg 108 170 \$1 30000;
#X msg 570 18 3 0.7;
#X obj 155 405 throw~ k_vol_l;
#X obj 285 407 throw~ k_vol_r;
#N canvas 0 22 450 300 effect-pain 0;
#X floatatom 86 146 5 0 0 0 - - -;
#X obj 86 121 expr if($f1<0.5 \, ($f1/0.5)*-0.5+1 \, 1-$f1 );
#X obj 127 146 expr abs($f1-1);
#X floatatom 129 165 5 0 0 0 - - -;
#X obj 129 187 sig~;
#X obj 86 170 sig~;
#X obj 86 220 outlet~;
#X obj 129 248 outlet~;
#X obj 86 78 inlet;
#X connect 0 0 2 0;
#X connect 0 0 5 0;
#X connect 1 0 0 0;
#X connect 2 0 3 0;
#X connect 3 0 4 0;
#X connect 4 0 7 0;
#X connect 5 0 6 0;
#X connect 8 0 1 0;
#X restore 219 223 pd effect-pain;
#X obj 155 244 *~;
#X obj 285 264 *~;
#X floatatom 209 105 5 0 0 0 - - -;
#N canvas 0 22 450 300 effect-gain 0;
#X obj 151 76 inlet;
#X obj 150 159 sig~;
#X obj 150 227 outlet~;
#X obj 207 226 outlet~;
#X connect 0 0 1 0;
#X connect 1 0 2 0;
#X connect 1 0 3 0;
#X restore 170 335 pd effect-gain;
#X obj 155 357 *~;
#X obj 285 360 *~;
#X text 611 -184 bomb-sound;
#X obj 571 -54 randomF 0.4;
#X obj 482 191 r n-noise;
#X text 482 170 bg-sound;
#X obj 482 215 t f f;
#N canvas 0 22 450 300 effect-dis 0;
#X obj 165 145 sig~;
#X obj 165 119 expr (($f1-4)/9)*-0.3+1;
#X obj 165 181 outlet~;
#X obj 165 90 r v-distance;
#X obj 216 181 outlet~;
#X connect 0 0 2 0;
#X connect 0 0 4 0;
#X connect 1 0 0 0;
#X connect 3 0 1 0;
#X restore 170 285 pd effect-dis;
#X text 107 -250 cube-sound;
#N canvas 744 451 358 283 ctl-dis 0;
#X obj 35 -137 r v-speed;
#X msg 35 -88 1 \$1;
#X floatatom 35 -109 5 0 0 0 - - -;
#X text 33 -157 effect-wave;
#X obj 35 49 outlet;
#X obj 100 -137 r v-distance;
#X msg 100 -24 0 \$1;
#X obj 100 -69 expr (($f1-4)/9)*-0.3+1;
#X floatatom 100 -45 5 0 0 0 - - -;
#X floatatom 100 -110 5 0 0 0 - - -;
#X obj 100 -89 t f f;
#X msg 157 4 2 0.49;
#X floatatom 157 -18 5 0 0 0 - - -;
#X obj 230 -11 loadbang;
#X obj 157 -43 expr ((($f1-4)/9)*0.2)+0.5;
#X connect 0 0 2 0;
#X connect 1 0 4 0;
#X connect 2 0 1 0;
#X connect 5 0 9 0;
#X connect 6 0 4 0;
#X connect 7 0 8 0;
#X connect 8 0 6 0;
#X connect 9 0 10 0;
#X connect 10 0 7 0;
#X connect 10 1 14 0;
#X connect 11 0 4 0;
#X connect 12 0 11 0;
#X connect 14 0 12 0;
#X restore 194 -113 pd ctl-dis;
#N canvas 0 22 450 300 ctl-dis 0;
#X obj 209 15 r fader;
#X floatatom 209 36 5 0 0 0 - - -;
#X floatatom 350 40 5 0 0 0 - - -;
#X obj 209 80 clip 0.15 0.85;
#X obj 350 20 r v-distance;
#X obj 212 118 outlet;
#X obj 209 59 expr (($f1+$f2))/($f2*2)-0.01;
#X connect 0 0 1 0;
#X connect 1 0 6 0;
#X connect 2 0 6 1;
#X connect 3 0 5 0;
#X connect 4 0 2 0;
#X connect 6 0 3 0;
#X restore 209 72 pd ctl-dis;
#X obj 482 282 line;
#X msg 482 263 \$1 3000;
#X msg 506 -58 0 500;
#X obj 571 -26 + 0.6;
#N canvas 749 267 450 300 crl-dis 0;
#X obj 86 -126 r v-distance;
#X floatatom 86 -34 5 0 0 0 - - -;
#X floatatom 86 -99 5 0 0 0 - - -;
#X obj 86 -78 t f f;
#X obj 265 -86 loadbang;
#X msg 265 -60 2 0.8;
#X msg 306 -60 3 0.49;
#X obj 163 31 outlet;
#X msg 86 -13 3 \$1;
#X obj 86 -58 expr (($f1-4)/9)*-0.1+0.49;
#X connect 0 0 2 0;
#X connect 1 0 8 0;
#X connect 2 0 3 0;
#X connect 3 0 9 0;
#X connect 4 0 6 0;
#X connect 4 0 5 0;
#X connect 5 0 7 0;
#X connect 6 0 7 0;
#X connect 8 0 7 0;
#X connect 9 0 1 0;
#X restore 194 -206 pd crl-dis;
#X obj 465 -212 bng 15 250 50 0 empty empty empty 17 7 0 10 -262144
-1 -1;
#X obj 482 242 expr 36-$f1;
#X obj 515 388 *~;
#X obj 577 254 *~ 0.4;
#X obj 713 -125 noise~;
#X obj 713 -94 samphold~;
#X obj 845 -126 expr~ fmod($v1+0.5 \, 1);
#X obj 794 -91 samphold~;
#X obj 713 -56 hip~ 7000;
#X obj 794 -66 hip~ 7000;
#X obj 719 -257 loadbang;
#X obj 719 -224 random 7;
#X obj 719 -196 + 2;
#X obj 649 -62 noise~;
#X obj 649 -31 samphold~;
#X obj 718 8 samphold~;
#X obj 649 59 clip~ -1 1;
#X obj 719 -170 * 500;
#X obj 764 -170 phasor~ 16;
#X obj 716 -30 phasor~ 8;
#X obj 718 84 clip~ -1 1;
#X obj 718 33 lop~ 200;
#X obj 649 7 lop~ 200;
#X obj 649 85 *~ 0.1;
#X obj 718 116 *~ 0.1;
#X obj 506 -157 t f b b;
#X obj 718 58 *~ 3;
#X obj 649 34 *~ 3;
#X connect 0 0 9 0;
#X connect 0 1 9 1;
#X connect 1 0 0 1;
#X connect 2 0 0 0;
#X connect 4 0 55 0;
#X connect 4 0 75 0;
#X connect 5 0 13 0;
#X connect 6 0 51 0;
#X connect 7 0 4 0;
#X connect 8 0 47 0;
#X connect 9 0 39 0;
#X connect 9 1 40 0;
#X connect 10 0 74 0;
#X connect 11 0 10 1;
#X connect 12 0 10 0;
#X connect 13 0 8 0;
#X connect 14 0 8 0;
#X connect 15 0 57 0;
#X connect 16 0 56 0;
#X connect 17 0 74 0;
#X connect 18 0 17 0;
#X connect 19 0 74 0;
#X connect 20 0 19 0;
#X connect 21 0 19 1;
#X connect 22 0 17 1;
#X connect 23 0 97 0;
#X connect 24 0 28 0;
#X connect 25 0 26 0;
#X connect 25 0 26 1;
#X connect 26 0 27 0;
#X connect 27 0 34 1;
#X connect 28 0 69 0;
#X connect 28 1 29 0;
#X connect 29 0 25 0;
#X connect 30 0 31 0;
#X connect 31 0 32 0;
#X connect 32 0 33 0;
#X connect 33 0 69 0;
#X connect 34 0 36 0;
#X connect 34 0 36 1;
#X connect 35 0 38 0;
#X connect 36 0 43 0;
#X connect 36 1 44 0;
#X connect 37 0 48 0;
#X connect 38 0 34 0;
#X connect 45 0 52 0;
#X connect 46 0 53 0;
#X connect 47 0 7 0;
#X connect 48 0 36 2;
#X connect 51 0 52 1;
#X connect 51 1 53 1;
#X connect 52 0 16 0;
#X connect 53 0 15 0;
#X connect 54 0 6 0;
#X connect 55 0 56 1;
#X connect 55 1 57 1;
#X connect 56 0 49 0;
#X connect 57 0 50 0;
#X connect 59 0 70 0;
#X connect 60 0 62 0;
#X connect 62 0 73 0;
#X connect 63 0 16 1;
#X connect 63 1 15 1;
#X connect 65 0 9 2;
#X connect 66 0 54 0;
#X connect 67 0 11 0;
#X connect 67 0 22 0;
#X connect 67 0 21 0;
#X connect 68 0 67 0;
#X connect 69 0 25 0;
#X connect 70 0 27 1;
#X connect 71 0 0 2;
#X connect 72 0 97 0;
#X connect 73 0 68 0;
#X connect 74 0 41 0;
#X connect 74 0 42 0;
#X connect 75 0 74 1;
#X connect 76 0 77 0;
#X connect 76 0 79 0;
#X connect 77 0 80 0;
#X connect 78 0 79 1;
#X connect 79 0 81 0;
#X connect 80 0 95 0;
#X connect 81 0 96 0;
#X connect 82 0 83 0;
#X connect 83 0 84 0;
#X connect 84 0 89 0;
#X connect 85 0 86 0;
#X connect 85 0 87 0;
#X connect 86 0 94 0;
#X connect 87 0 93 0;
#X connect 88 0 95 0;
#X connect 89 0 80 1;
#X connect 89 0 81 1;
#X connect 90 0 77 1;
#X connect 90 0 78 0;
#X connect 91 0 86 1;
#X connect 91 0 87 1;
#X connect 92 0 96 0;
#X connect 93 0 98 0;
#X connect 94 0 99 0;
#X connect 95 0 43 0;
#X connect 96 0 44 0;
#X connect 97 0 24 0;
#X connect 97 1 59 0;
#X connect 97 2 83 0;
#X connect 98 0 92 0;
#X connect 99 0 88 0;
#X coords 0 -1 1 1 170 50 1 100 100;
