#N canvas 25 52 1173 688 10;
#X obj 324 -225 st-FFTreverb;
#X obj 367 -296 catch~ right;
#X obj 324 -274 catch~ left;
#X obj 103 118 cnv 15 164 30 empty empty empty 20 12 0 14 -158451 -66577
0;
#X obj 315 361 dac~;
#X obj 315 301 *~ 1;
#X obj 444 306 *~ 1;
#X obj 130 127 hsl 50 15 0 1 0 0 empty empty empty -2 -8 0 10 -258113
-1 -1 4900 1;
#X obj 108 43 loadbang;
#X obj 212 127 hsl 50 15 0 1 0 0 empty empty empty -2 -8 0 10 -262144
-1 -1 2450 1;
#X msg 217 80 0.5;
#X obj 315 201 *~ 1;
#X floatatom 57 288 5 0 0 0 - - -;
#X obj 57 263 expr if($f1<0.5 \, ($f1/0.5)*-0.5+1 \, 1-$f1 );
#X obj 98 288 expr abs($f1-1);
#X floatatom 100 307 5 0 0 0 - - -;
#X obj 446 222 *~ 1;
#X text 130 126 vol;
#X obj 190 127 tgl 15 0 empty empty empty 17 7 0 10 -159808 -1 -1 1
1;
#X obj 36 -2 spigot;
#X obj 190 49 sel 0;
#X obj 36 -141 r fader;
#X floatatom 36 -63 5 0 0 0 - - -;
#X floatatom 36 -110 5 0 0 0 - - -;
#X floatatom 177 -120 5 0 0 0 - - -;
#X obj 36 -87 expr (($f1+$f2))/($f2*2);
#X obj 36 -41 clip 0.15 0.85;
#X obj 315 327 clip~ -1 1;
#X obj 444 332 clip~ -1 1;
#X obj 106 195 line;
#X obj 108 127 tgl 15 0 empty empty empty 17 7 0 10 -258113 -1 -1 1
1;
#X obj 324 -135 st-bitcrusher /key;
#X msg 453 -260 2 \$1;
#X obj 453 -314 loadbang;
#X obj 776 253 bp~ 100 2;
#X obj 820 214 * 2;
#X obj 776 214 noise~;
#X obj 820 108 r n-noise;
#X msg 108 77 0;
#X obj 30 80 r a2_allvol;
#X obj 218 10 sig~;
#X obj 445 269 *~;
#X obj 315 249 *~;
#X obj 255 -117 loadbang;
#X msg 255 -93 4;
#X msg 453 -287 0.8;
#X obj 853 251 bp~ 100 2;
#X obj 853 212 noise~;
#X obj 940 250 bp~ 100 2;
#X obj 940 211 noise~;
#X obj 983 211 * 1;
#X obj 820 133 expr 40-$f1;
#X obj 896 212 * 3;
#X obj 820 173 line;
#X msg 820 154 \$1 3000;
#X msg 370 12 0 \$1;
#X obj 177 -147 r v-distance;
#X msg 464 65 2 \$1;
#X floatatom 464 43 5 0 0 0 - - -;
#X obj 918 -264 r bomb;
#X obj 918 -213 sel 1;
#X obj 922 -114 line;
#X obj 922 -88 *~;
#X obj 918 -240 t f b;
#X obj 922 -59 *~ 1;
#X obj 918 -187 t b b;
#X msg 945 -164 1 0;
#X obj 993 -253 r time;
#X obj 993 -219 pack \$1 0;
#X msg 995 -194 \$2 \$1;
#X msg 995 -173 set \$1 \$2;
#X msg 892 -160 0 1500;
#X obj 854 -96 *~;
#X obj 854 -219 noise~;
#X obj 854 -27 st-FFTreverb;
#X obj 986 -84 loadbang;
#X obj 854 -194 lop~ 600;
#X obj 370 -14 expr (($f1-4)/9)*-0.5+1;
#X obj 549 -136 r v-speed;
#X msg 549 -114 1 \$1;
#X obj 324 -56 throw~ \$0-a2-l;
#X obj 467 -60 throw~ \$0-a2-r;
#X obj 776 327 throw~ \$0-a2-l;
#X obj 873 326 throw~ \$0-a2-r;
#X obj 854 48 throw~ \$0-a2-l;
#X obj 1027 46 throw~ \$0-a2-r;
#X obj 218 -16 expr (($f1-4)/9)*-0.3+1;
#X obj 218 -43 split 4 13;
#X obj 547 75 st-flanger;
#X obj 316 144 spigot~;
#X obj 447 140 spigot~;
#X obj 316 118 catch~ \$0-a2-l;
#X obj 447 117 catch~ \$0-a2-r;
#X obj 533 47 tgl 15 0 empty empty empty 17 7 0 10 -262144 -1 -1 0
1;
#X obj 533 -15 r e-bloom-tgl;
#X obj 444 366 outlet~;
#X obj 260 361 outlet~;
#X obj 650 14 loadbang;
#X obj 464 18 expr ((($f1-4)/9)*0.1)+0.5;
#X msg 106 170 \$1 30000;
#X msg 494 -262 3 0.5;
#X obj 776 297 *~ 2;
#X obj 991 -145 randomF 0.2;
#X obj 991 -117 + 0.8;
#X msg 986 -65 3 0.7;
#X msg 650 37 4 0.55;
#X obj 336 266 * 1.3;
#X connect 0 0 31 0;
#X connect 0 1 31 1;
#X connect 1 0 0 1;
#X connect 2 0 0 0;
#X connect 5 0 27 0;
#X connect 6 0 28 0;
#X connect 7 0 106 0;
#X connect 8 0 10 0;
#X connect 8 0 38 0;
#X connect 9 0 13 0;
#X connect 10 0 9 0;
#X connect 11 0 42 0;
#X connect 12 0 14 0;
#X connect 13 0 11 1;
#X connect 13 0 12 0;
#X connect 14 0 15 0;
#X connect 15 0 16 1;
#X connect 16 0 41 0;
#X connect 18 0 19 1;
#X connect 18 0 20 0;
#X connect 19 0 9 0;
#X connect 20 0 10 0;
#X connect 21 0 23 0;
#X connect 22 0 26 0;
#X connect 23 0 25 0;
#X connect 24 0 25 1;
#X connect 24 0 87 0;
#X connect 25 0 22 0;
#X connect 26 0 19 0;
#X connect 27 0 96 0;
#X connect 27 0 4 0;
#X connect 28 0 4 1;
#X connect 28 0 95 0;
#X connect 29 0 7 0;
#X connect 30 0 99 0;
#X connect 30 0 18 0;
#X connect 31 0 80 0;
#X connect 31 1 81 0;
#X connect 32 0 0 2;
#X connect 33 0 45 0;
#X connect 33 0 100 0;
#X connect 34 0 101 0;
#X connect 35 0 34 1;
#X connect 36 0 34 0;
#X connect 37 0 51 0;
#X connect 38 0 30 0;
#X connect 39 0 30 0;
#X connect 40 0 42 1;
#X connect 40 0 41 1;
#X connect 41 0 6 0;
#X connect 42 0 5 0;
#X connect 43 0 44 0;
#X connect 44 0 87 0;
#X connect 45 0 32 0;
#X connect 46 0 101 0;
#X connect 47 0 46 0;
#X connect 48 0 101 0;
#X connect 49 0 48 0;
#X connect 50 0 48 1;
#X connect 51 0 54 0;
#X connect 52 0 46 1;
#X connect 53 0 35 0;
#X connect 53 0 52 0;
#X connect 53 0 50 0;
#X connect 54 0 53 0;
#X connect 55 0 31 2;
#X connect 56 0 24 0;
#X connect 57 0 31 2;
#X connect 58 0 57 0;
#X connect 59 0 63 0;
#X connect 60 0 65 0;
#X connect 61 0 62 0;
#X connect 61 0 62 1;
#X connect 62 0 64 0;
#X connect 63 0 60 0;
#X connect 63 1 102 0;
#X connect 64 0 72 1;
#X connect 65 0 71 0;
#X connect 65 1 66 0;
#X connect 66 0 61 0;
#X connect 67 0 68 0;
#X connect 68 0 69 0;
#X connect 69 0 70 0;
#X connect 70 0 71 0;
#X connect 71 0 61 0;
#X connect 72 0 74 0;
#X connect 72 0 74 1;
#X connect 73 0 76 0;
#X connect 74 0 84 0;
#X connect 74 1 85 0;
#X connect 75 0 104 0;
#X connect 76 0 72 0;
#X connect 77 0 55 0;
#X connect 78 0 79 0;
#X connect 79 0 31 2;
#X connect 86 0 40 0;
#X connect 87 0 86 0;
#X connect 87 0 77 0;
#X connect 87 0 98 0;
#X connect 88 0 11 0;
#X connect 88 1 16 0;
#X connect 89 0 11 0;
#X connect 89 1 88 0;
#X connect 90 0 16 0;
#X connect 90 1 88 1;
#X connect 91 0 89 0;
#X connect 92 0 90 0;
#X connect 93 0 89 1;
#X connect 93 0 90 1;
#X connect 94 0 93 0;
#X connect 97 0 105 0;
#X connect 98 0 58 0;
#X connect 99 0 29 0;
#X connect 100 0 0 2;
#X connect 101 0 82 0;
#X connect 101 0 83 0;
#X connect 102 0 103 0;
#X connect 103 0 64 1;
#X connect 104 0 74 2;
#X connect 105 0 88 2;
#X connect 106 0 5 1;
#X connect 106 0 6 1;
#X coords 0 -1 1 1 170 50 1 100 100;
