#N canvas 421 22 599 587 10;
#X floatatom 74 24 5 0 0 0 - - -;
#X floatatom 120 23 5 0 0 0 - - -;
#X obj 74 269 osc~;
#X obj 291 249 osc~;
#X obj 74 296 *~;
#X obj 291 276 *~;
#X obj 75 473 throw~ left;
#X obj 291 395 throw~ right;
#X obj 74 -37 inlet;
#X obj 74 -10 route /1 /2 /3 /4 /5;
#X floatatom 157 155 5 0 0 0 - - -;
#X obj 146 375 *~;
#X obj 405 355 *~;
#X obj 118 254 spigot~;
#X obj 157 232 tgl 15 0 empty empty empty 17 7 0 10 -262144 -1 -1 1
1;
#X obj 328 269 spigot~;
#X obj 367 232 tgl 15 0 empty empty empty 17 7 0 10 -262144 -1 -1 1
1;
#X obj 157 203 t f f;
#X floatatom 118 68 5 0 0 0 - - -;
#N canvas 0 22 450 300 speed-vol 0;
#X obj 159 82 inlet;
#X floatatom 160 113 5 0 0 0 - - -;
#X msg 160 168 0.2;
#X msg 193 166 0.2;
#X msg 221 165 0.3;
#X msg 252 164 0.3;
#X obj 160 225 sig~;
#X msg 281 165 0.5;
#X obj 160 250 outlet~;
#X obj 160 137 sel 200 400 600 800 1000;
#X connect 0 0 1 0;
#X connect 1 0 9 0;
#X connect 2 0 6 0;
#X connect 3 0 6 0;
#X connect 4 0 6 0;
#X connect 5 0 6 0;
#X connect 6 0 8 0;
#X connect 7 0 6 0;
#X connect 9 0 2 0;
#X connect 9 1 3 0;
#X connect 9 2 4 0;
#X connect 9 3 5 0;
#X connect 9 4 7 0;
#X restore 194 377 pd speed-vol;
#X obj 74 320 *~;
#X obj 146 411 *~;
#X obj 291 328 *~;
#X obj 405 379 *~;
#X obj 118 145 / 2;
#X msg 118 170 1 \, 0 \$1;
#X obj 118 100 t f f;
#X obj 118 195 line~;
#X floatatom 328 73 5 0 0 0 - - -;
#X obj 74 187 t f f;
#X obj 291 203 t f f;
#N canvas 0 22 450 300 speed-vol 0;
#X obj 159 82 inlet;
#X floatatom 160 113 5 0 0 0 - - -;
#X msg 160 168 0.2;
#X msg 193 166 0.2;
#X msg 221 165 0.3;
#X msg 252 164 0.3;
#X obj 160 225 sig~;
#X msg 281 165 0.5;
#X obj 160 250 outlet~;
#X obj 160 137 sel 200 400 600 800 1000;
#X connect 0 0 1 0;
#X connect 1 0 9 0;
#X connect 2 0 6 0;
#X connect 3 0 6 0;
#X connect 4 0 6 0;
#X connect 5 0 6 0;
#X connect 6 0 8 0;
#X connect 7 0 6 0;
#X connect 9 0 2 0;
#X connect 9 1 3 0;
#X connect 9 2 4 0;
#X connect 9 3 5 0;
#X connect 9 4 7 0;
#X restore 420 247 pd speed-vol;
#X obj 328 145 / 2;
#X msg 328 170 1 \, 0 \$1;
#X obj 328 100 t f f;
#X obj 328 195 line~;
#X obj 146 318 noise~;
#X obj 405 301 noise~;
#X obj 146 344 bp~ 100 1;
#X obj 405 327 bp~ 100 1;
#X obj 171 294 * 2;
#X obj 405 274 * 2;
#X obj 146 437 *~ 0.6;
#X obj 405 402 *~ 0.6;
#X connect 0 0 29 0;
#X connect 1 0 30 0;
#X connect 2 0 4 0;
#X connect 3 0 5 0;
#X connect 4 0 20 0;
#X connect 5 0 22 0;
#X connect 8 0 9 0;
#X connect 9 0 0 0;
#X connect 9 1 18 0;
#X connect 9 2 1 0;
#X connect 9 3 28 0;
#X connect 9 4 10 0;
#X connect 10 0 17 0;
#X connect 11 0 21 0;
#X connect 12 0 23 0;
#X connect 13 0 4 1;
#X connect 13 1 11 1;
#X connect 14 0 13 1;
#X connect 15 0 5 1;
#X connect 15 1 12 1;
#X connect 16 0 15 1;
#X connect 17 0 14 0;
#X connect 17 1 16 0;
#X connect 18 0 26 0;
#X connect 19 0 20 1;
#X connect 19 0 21 1;
#X connect 20 0 6 0;
#X connect 21 0 42 0;
#X connect 22 0 7 0;
#X connect 23 0 43 0;
#X connect 24 0 25 0;
#X connect 25 0 27 0;
#X connect 26 0 24 0;
#X connect 26 1 19 0;
#X connect 27 0 13 0;
#X connect 28 0 34 0;
#X connect 29 0 2 0;
#X connect 29 1 40 0;
#X connect 30 0 3 0;
#X connect 30 1 41 0;
#X connect 31 0 22 1;
#X connect 31 0 23 1;
#X connect 32 0 33 0;
#X connect 33 0 35 0;
#X connect 34 0 32 0;
#X connect 34 1 31 0;
#X connect 35 0 15 0;
#X connect 36 0 38 0;
#X connect 37 0 39 0;
#X connect 38 0 11 0;
#X connect 39 0 12 0;
#X connect 40 0 38 1;
#X connect 41 0 39 1;
#X connect 42 0 6 0;
#X connect 43 0 7 0;
