#N canvas 550 149 732 667 10;
#X obj 103 117 cnv 15 164 30 empty empty empty 20 12 0 14 -125623 -66577
0;
#X obj 102 -100 st-phaser /key;
#X obj 102 -189 st-pureverb /key;
#X obj 102 -227 catch~ sound;
#X obj 131 125 hsl 50 15 0 1 0 0 empty empty vol 5 7 0 10 -258113 -1
-1 4900 1;
#X obj 128 53 loadbang;
#N canvas 329 191 208 358 fireball 0;
#X obj -36 130 noise~;
#X obj -36 256 *~;
#X obj 39 -52 inlet trigger;
#X obj -36 276 outlet~;
#X obj -36 172 lop~ 70;
#X obj -36 193 lop~ 70;
#X obj -36 151 bp~ 70 1;
#X obj 71 102 *~;
#X obj -36 235 hip~ 5;
#X obj 71 58 line;
#X obj 71 79 sig~;
#X obj 71 144 lop~ 5;
#X obj 39 -31 trigger b b;
#X obj 31 123 + 40;
#X msg 111 28 1 100;
#X obj 39 -8 del 100;
#X obj 31 102 * 100;
#X obj 71 124 *~;
#X obj -36 214 *~ 10;
#X msg 40 29 0 3000;
#X connect 0 0 6 0;
#X connect 1 0 3 0;
#X connect 2 0 12 0;
#X connect 4 0 5 0;
#X connect 5 0 18 0;
#X connect 6 0 4 0;
#X connect 7 0 17 0;
#X connect 7 0 17 1;
#X connect 8 0 1 0;
#X connect 9 0 10 0;
#X connect 9 0 16 0;
#X connect 10 0 7 0;
#X connect 10 0 7 1;
#X connect 11 0 1 1;
#X connect 12 0 15 0;
#X connect 12 1 14 0;
#X connect 13 0 5 1;
#X connect 13 0 4 1;
#X connect 13 0 6 1;
#X connect 14 0 9 0;
#X connect 15 0 19 0;
#X connect 16 0 13 0;
#X connect 17 0 11 0;
#X connect 18 0 8 0;
#X connect 19 0 9 0;
#X restore 534 -124 pd fireball;
#N canvas 585 385 245 430 blast 0;
#X obj 16 111 / 200;
#X obj 44 -71 del 80;
#X obj 120 11 random 5;
#X obj 120 33 + 25;
#X obj 120 -15 del 80;
#X obj 16 -131 random 8;
#X obj 16 -109 + 8;
#X obj 44 -48 random 10;
#X obj 44 -26 + 15;
#X obj 157 -132 random 100;
#X obj 81 -131 random 50;
#X obj 75 -173 t b b b b b;
#X obj 16 135 outlet noiseval;
#X obj 11 -272 inlet trigger;
#X connect 0 0 12 0;
#X connect 1 0 4 0;
#X connect 1 0 7 0;
#X connect 2 0 3 0;
#X connect 3 0 0 0;
#X connect 4 0 2 0;
#X connect 5 0 6 0;
#X connect 6 0 0 0;
#X connect 7 0 8 0;
#X connect 8 0 0 0;
#X connect 9 0 4 1;
#X connect 10 0 1 1;
#X connect 11 0 1 0;
#X connect 11 1 5 0;
#X connect 11 2 10 0;
#X connect 11 3 9 0;
#X connect 13 0 11 0;
#X restore 478 -148 pd blast control;
#X obj 478 -195 sel 1;
#X obj 478 -218 r bombbomb;
#X obj 534 -97 *~ 0.15;
#N canvas 567 146 873 675 noise-bg 0;
#X obj 178 334 osc~;
#X obj 167 213 mtof;
#X obj 167 126 vsl 15 66 0 127 0 0 empty sl2 empty 0 -9 0 10 -4034
-1 -1 717 1;
#X obj 167 238 sig~;
#X obj 178 305 +~;
#X obj 196 238 osc~;
#X obj 196 212 mtof;
#X obj 196 126 vsl 15 66 0 127 0 0 empty sl3 empty 0 -9 0 10 -260097
-1 -1 1996 1;
#X obj 211 270 *~ 0;
#X obj 228 126 vsl 15 66 0 1000 0 0 empty sl4 empty 0 -9 0 10 -4160
-1 -1 481 1;
#X obj 163 419 osc~;
#X obj 164 392 +~;
#X obj 179 363 *~ 0;
#X obj 138 213 mtof;
#X obj 138 238 sig~;
#X obj 165 465 +~;
#X obj 368 334 osc~;
#X obj 340 211 mtof;
#X obj 340 236 sig~;
#X obj 368 305 +~;
#X obj 372 236 osc~;
#X obj 372 210 mtof;
#X obj 381 267 *~ 0;
#X obj 250 399 osc~;
#X obj 251 372 +~;
#X obj 369 363 *~ 0;
#X obj 312 211 mtof;
#X obj 312 236 sig~;
#X obj 166 488 *~ 0;
#X obj 150 536 osc~;
#X obj 150 512 +~;
#X obj 109 213 mtof;
#X obj 189 534 line~;
#X msg 189 514 \$1 50;
#X obj 340 127 vsl 15 66 0 127 0 0 empty sl7 empty 0 -9 0 10 -4034
-1 -1 1945 1;
#X obj 372 126 vsl 15 66 0 127 0 0 empty sl8 empty 0 -9 0 10 -260097
-1 -1 1945 1;
#X obj 404 127 vsl 15 66 0 1000 0 0 empty sl9 empty 0 -9 0 10 -4160
-1 -1 6493 1;
#X obj 434 127 vsl 15 66 0 1000 0 0 empty sl10 empty 0 -9 0 10 -4160
-1 -1 2431 1;
#X obj 312 126 vsl 15 66 0 127 0 0 empty sl6 empty 0 -9 0 10 -4034
-1 -1 205 1;
#X obj 258 126 vsl 15 66 0 1000 0 0 empty sl5 empty 0 -9 0 10 -4160
-1 -1 3055 1;
#X obj 138 126 vsl 15 66 0 127 0 0 empty sl1 empty 0 -9 0 10 -4034
-1 -1 1433 1;
#X obj 285 126 vsl 15 66 0 1000 0 0 empty sl12 empty 0 -9 0 10 -4160
-1 -1 1098 1;
#X obj 109 128 vsl 15 66 0 127 0 0 empty sl11 empty 0 -9 0 10 -4034
-1 -1 2252 1;
#N canvas 274 188 888 541 rand 0;
#X obj 403 253 random 1000;
#X obj 196 347 s sl1;
#X obj 327 152 bng 15 250 50 0 empty empty empty 17 7 0 10 -262144
-1 -1;
#X obj 479 252 random 1000;
#X obj 597 389 random 1000;
#X obj 673 388 random 1000;
#X obj 715 243 random 1000;
#X obj 325 102 loadbang;
#X obj 427 82 inlet;
#X obj 196 303 line;
#X msg 196 281 \$1 1000;
#X obj 267 300 line;
#X msg 267 278 \$1 1000;
#X obj 337 299 line;
#X msg 337 277 \$1 1000;
#X obj 402 299 line;
#X msg 402 277 \$1 1000;
#X obj 477 299 line;
#X msg 477 277 \$1 1000;
#X obj 268 344 s sl2;
#X obj 337 343 s sl3;
#X obj 402 343 s sl4;
#X obj 476 344 s sl5;
#X obj 391 439 line;
#X msg 391 417 \$1 1000;
#X obj 462 436 line;
#X msg 462 414 \$1 1000;
#X obj 532 435 line;
#X msg 532 413 \$1 1000;
#X obj 597 435 line;
#X msg 597 413 \$1 1000;
#X obj 672 435 line;
#X msg 672 413 \$1 1000;
#X obj 392 483 s sl6;
#X obj 463 480 s sl7;
#X obj 532 479 s sl8;
#X obj 597 479 s sl9;
#X obj 671 480 s sl10;
#X obj 643 321 s sl11;
#X obj 715 315 s sl12;
#X obj 643 289 line;
#X msg 643 267 \$1 1000;
#X obj 718 289 line;
#X msg 718 267 \$1 1000;
#X obj 267 254 random 50;
#X obj 335 254 random 50;
#X obj 390 391 random 50;
#X obj 461 390 random 50;
#X obj 529 390 random 50;
#X obj 644 243 random 50;
#X obj 196 255 random 50;
#X connect 0 0 16 0;
#X connect 2 0 0 0;
#X connect 2 0 3 0;
#X connect 2 0 4 0;
#X connect 2 0 5 0;
#X connect 2 0 6 0;
#X connect 2 0 44 0;
#X connect 2 0 45 0;
#X connect 2 0 46 0;
#X connect 2 0 47 0;
#X connect 2 0 48 0;
#X connect 2 0 49 0;
#X connect 2 0 50 0;
#X connect 3 0 18 0;
#X connect 4 0 30 0;
#X connect 5 0 32 0;
#X connect 6 0 43 0;
#X connect 7 0 2 0;
#X connect 8 0 2 0;
#X connect 9 0 1 0;
#X connect 10 0 9 0;
#X connect 11 0 19 0;
#X connect 12 0 11 0;
#X connect 13 0 20 0;
#X connect 14 0 13 0;
#X connect 15 0 21 0;
#X connect 16 0 15 0;
#X connect 17 0 22 0;
#X connect 18 0 17 0;
#X connect 23 0 33 0;
#X connect 24 0 23 0;
#X connect 25 0 34 0;
#X connect 26 0 25 0;
#X connect 27 0 35 0;
#X connect 28 0 27 0;
#X connect 29 0 36 0;
#X connect 30 0 29 0;
#X connect 31 0 37 0;
#X connect 32 0 31 0;
#X connect 40 0 38 0;
#X connect 41 0 40 0;
#X connect 42 0 39 0;
#X connect 43 0 42 0;
#X connect 44 0 12 0;
#X connect 45 0 14 0;
#X connect 46 0 24 0;
#X connect 47 0 26 0;
#X connect 48 0 28 0;
#X connect 49 0 41 0;
#X connect 50 0 10 0;
#X restore 458 203 pd rand;
#X obj 458 165 bng 30 250 50 0 empty empty empty 17 7 0 10 -262144
-1 -1;
#X obj 164 442 *~ 0.5;
#X obj 251 422 *~ 0.5;
#X obj 109 238 sig~;
#X obj 150 563 *~;
#X obj 150 586 outlet~;
#X obj 458 111 vsl 30 40 0 1 0 0 empty empty empty 0 -9 0 10 -262144
-1 -1 780 1;
#X obj 138 55 inlet;
#X obj 458 69 r lvl;
#X connect 0 0 12 0;
#X connect 1 0 3 0;
#X connect 2 0 1 0;
#X connect 3 0 4 0;
#X connect 4 0 0 0;
#X connect 5 0 8 0;
#X connect 6 0 5 0;
#X connect 7 0 6 0;
#X connect 8 0 4 1;
#X connect 9 0 8 1;
#X connect 10 0 45 0;
#X connect 11 0 10 0;
#X connect 12 0 11 1;
#X connect 13 0 14 0;
#X connect 14 0 11 0;
#X connect 15 0 28 0;
#X connect 16 0 25 0;
#X connect 17 0 18 0;
#X connect 18 0 19 0;
#X connect 19 0 16 0;
#X connect 20 0 22 0;
#X connect 21 0 20 0;
#X connect 22 0 19 1;
#X connect 23 0 46 0;
#X connect 24 0 23 0;
#X connect 25 0 24 1;
#X connect 26 0 27 0;
#X connect 27 0 24 0;
#X connect 28 0 30 1;
#X connect 29 0 48 0;
#X connect 30 0 29 0;
#X connect 31 0 47 0;
#X connect 32 0 48 1;
#X connect 33 0 32 0;
#X connect 34 0 17 0;
#X connect 35 0 21 0;
#X connect 36 0 22 1;
#X connect 37 0 25 1;
#X connect 38 0 26 0;
#X connect 39 0 12 1;
#X connect 40 0 13 0;
#X connect 41 0 28 1;
#X connect 42 0 31 0;
#X connect 44 0 43 0;
#X connect 45 0 15 0;
#X connect 46 0 15 1;
#X connect 47 0 30 0;
#X connect 48 0 49 0;
#X connect 50 0 33 0;
#X connect 51 0 44 0;
#X connect 52 0 50 0;
#X coords 0 -1 1 1 400 100 1 100 100;
#X restore 309 -54 pd noise-bg;
#X obj 295 232 +~;
#X obj 420 229 +~;
#N canvas 143 170 222 478 blast 0;
#X obj 3 -21 noise~;
#X obj 4 211 *~;
#X obj 4 90 clip~ -1 1;
#X obj 4 46 hip~ 20;
#X obj 4 191 bp~ 6000 1;
#X obj 105 97 *~;
#X obj 4 171 cos~;
#X obj 76 -67 -;
#X obj 28 -62 * 7000;
#X obj 76 -94 swap 1;
#X obj 4 271 hip~ 20;
#X obj 4 251 hip~ 20;
#X obj 4 231 hip~ 20;
#X obj 4 151 *~;
#X obj 20 131 +~ 0.5;
#X obj 4 24 vcf~ 7000 2;
#X obj 40 0 line~;
#X obj 6 -145 inlet;
#X obj 6 -124 t b f f;
#X msg 28 -41 \$1 30;
#X obj 4 68 *~ 50;
#X obj 76 -22 + 1.5;
#X obj 76 -43 * 3.5;
#X obj 4 311 outlet~;
#X obj 4 291 *~ 0.3;
#X obj 105 71 vline~;
#X msg 105 48 1 \, 0 \$1;
#X obj 105 24 f;
#X obj 28 -92 pow 2;
#X obj 121 2 * 5000;
#X connect 0 0 15 0;
#X connect 1 0 12 0;
#X connect 2 0 13 0;
#X connect 3 0 20 0;
#X connect 4 0 1 0;
#X connect 5 0 1 1;
#X connect 5 0 14 0;
#X connect 6 0 4 0;
#X connect 7 0 22 0;
#X connect 7 0 29 0;
#X connect 8 0 19 0;
#X connect 9 0 7 0;
#X connect 9 1 7 1;
#X connect 10 0 24 0;
#X connect 11 0 10 0;
#X connect 12 0 11 0;
#X connect 13 0 6 0;
#X connect 14 0 13 1;
#X connect 15 0 3 0;
#X connect 16 0 15 1;
#X connect 17 0 18 0;
#X connect 18 0 27 0;
#X connect 18 1 28 0;
#X connect 18 2 9 0;
#X connect 19 0 16 0;
#X connect 20 0 2 0;
#X connect 21 0 15 2;
#X connect 22 0 21 0;
#X connect 24 0 23 0;
#X connect 25 0 5 0;
#X connect 25 0 5 1;
#X connect 26 0 25 0;
#X connect 27 0 26 0;
#X connect 28 0 8 0;
#X connect 29 0 27 1;
#X restore 478 -124 pd blast;
#X obj 478 -99 *~ 0.02;
#X obj 478 -75 *~ 2;
#X obj 23 81 r a3-vol;
#X obj 309 -110 r explode;
#X obj 209 125 hsl 50 15 0 1 0 0 empty empty empty -2 -8 0 10 -262144
-1 -1 2884 1;
#X msg 128 76 0;
#X obj 294 166 catch~ \$0-a3-l;
#X obj 420 168 catch~ \$0-a3-r;
#X obj 309 65 throw~ \$0-a3-l;
#X obj 332 92 throw~ \$0-a3-r;
#X obj 102 -5 throw~ \$0-a3-l;
#X obj 195 -6 throw~ \$0-a3-r;
#X obj 295 350 throw~ k_vol_l;
#X obj 420 353 throw~ k_vol_r;
#X floatatom 206 105 5 0 0 0 - - -;
#N canvas 0 22 450 300 effect-pain 0;
#X floatatom 86 146 5 0 0 0 - - -;
#X obj 86 121 expr if($f1<0.5 \, ($f1/0.5)*-0.5+1 \, 1-$f1 );
#X obj 127 146 expr abs($f1-1);
#X floatatom 129 165 5 0 0 0 - - -;
#X obj 129 187 sig~;
#X obj 86 170 sig~;
#X obj 86 220 outlet~;
#X obj 129 248 outlet~;
#X obj 86 78 inlet;
#X connect 0 0 2 0;
#X connect 0 0 5 0;
#X connect 1 0 0 0;
#X connect 2 0 3 0;
#X connect 3 0 4 0;
#X connect 4 0 7 0;
#X connect 5 0 6 0;
#X connect 8 0 1 0;
#X restore 322 231 pd effect-pain;
#X obj 420 265 *~;
#X obj 295 270 *~;
#N canvas 0 22 450 300 effect-gain 0;
#X obj 151 76 inlet;
#X obj 150 159 sig~;
#X obj 150 227 outlet~;
#X obj 207 226 outlet~;
#X connect 0 0 1 0;
#X connect 1 0 2 0;
#X connect 1 0 3 0;
#X restore 327 266 pd effect-gain;
#X obj 295 294 *~;
#X obj 420 293 *~;
#X obj 109 125 tgl 15 0 empty empty empty 17 7 0 10 -258113 -1 -1 1
1;
#N canvas 720 288 450 300 ctl-dis 0;
#X obj 45 -91 r v-distance;
#X floatatom 45 -68 5 0 0 0 - - -;
#X obj 44 -19 expr 1-$f1;
#X msg 44 29 2 \$1;
#X floatatom 44 5 5 0 0 0 - - -;
#X obj 44 -43 / 26;
#X obj 44 59 outlet;
#X connect 0 0 1 0;
#X connect 1 0 5 0;
#X connect 2 0 4 0;
#X connect 3 0 6 0;
#X connect 4 0 3 0;
#X connect 5 0 2 0;
#X restore 188 -208 pd ctl-dis;
#N canvas 0 22 283 232 ctl-v-speed 0;
#X msg -183 9 0 \$1;
#X obj -183 -16 r v-speed;
#X obj -212 -89 loadbang;
#X msg -212 -67 0 0.3 \, 1 1 \, 2 0.4 \, 3 0 \, 4 1 \, 5 0.2;
#X obj -212 52 outlet;
#X connect 0 0 4 0;
#X connect 1 0 0 0;
#X connect 2 0 3 0;
#X connect 3 0 4 0;
#X restore 171 -122 pd ctl-v-speed;
#N canvas 0 22 450 300 ctl-dis 0;
#X obj -122 -123 r fader;
#X floatatom -122 -45 5 0 0 0 - - -;
#X floatatom -122 -92 5 0 0 0 - - -;
#X obj 19 -125 r v-distance;
#X floatatom 19 -102 5 0 0 0 - - -;
#X obj -122 -23 clip 0.15 0.85;
#X obj -122 7 outlet;
#X obj -122 -69 expr (($f1+$f2))/($f2*2)-0.01;
#X connect 0 0 2 0;
#X connect 1 0 5 0;
#X connect 2 0 7 0;
#X connect 3 0 4 0;
#X connect 4 0 7 1;
#X connect 5 0 6 0;
#X connect 7 0 1 0;
#X restore 206 73 pd ctl-dis;
#X floatatom 103 199 5 0 0 0 - - -;
#X obj 478 -172 t b b b b;
#X obj 44 204 s lvl;
#X obj 78 52 line;
#X msg 78 27 \$1 15000;
#X obj 103 177 line;
#X msg 103 152 \$1 500;
#X obj 43 179 * 0.2;
#X obj 294 192 *~ 1;
#X obj 420 195 *~ 1;
#X connect 1 0 25 0;
#X connect 1 1 26 0;
#X connect 2 0 1 0;
#X connect 2 1 1 1;
#X connect 3 0 2 0;
#X connect 3 0 2 1;
#X connect 4 0 33 0;
#X connect 4 0 46 0;
#X connect 5 0 20 0;
#X connect 6 0 10 0;
#X connect 7 0 14 0;
#X connect 8 0 41 0;
#X connect 9 0 8 0;
#X connect 10 0 16 0;
#X connect 11 0 23 0;
#X connect 11 0 24 0;
#X connect 12 0 32 0;
#X connect 13 0 31 0;
#X connect 14 0 15 0;
#X connect 15 0 16 0;
#X connect 16 0 12 1;
#X connect 16 0 13 1;
#X connect 17 0 36 0;
#X connect 18 0 11 0;
#X connect 19 0 30 0;
#X connect 20 0 4 0;
#X connect 21 0 48 0;
#X connect 22 0 49 0;
#X connect 29 0 19 0;
#X connect 30 0 32 1;
#X connect 30 1 31 1;
#X connect 31 0 35 0;
#X connect 32 0 34 0;
#X connect 33 0 34 1;
#X connect 33 1 35 1;
#X connect 34 0 27 0;
#X connect 35 0 28 0;
#X connect 36 0 44 0;
#X connect 37 0 2 2;
#X connect 38 0 1 2;
#X connect 39 0 29 0;
#X connect 40 0 47 0;
#X connect 41 0 11 0;
#X connect 41 1 7 0;
#X connect 41 2 6 0;
#X connect 43 0 4 0;
#X connect 44 0 43 0;
#X connect 45 0 40 0;
#X connect 46 0 45 0;
#X connect 47 0 42 0;
#X connect 48 0 12 0;
#X connect 49 0 13 0;
#X coords 0 -1 1 1 170 50 1 100 100;
