#N canvas 550 224 497 448 10;
#X obj 117 72 mtof;
#X obj 118 390 throw~ sound;
#X obj 117 -5 inlet;
#X floatatom 138 255 5 0 0 0 - - -;
#X obj 117 49 + 40;
#X obj 117 19 route /1 /2;
#X obj 118 362 *~;
#X obj 138 304 sig~;
#X obj 138 278 expr 1-$f1;
#X obj 117 94 syn-cz10 /key;
#X obj 137 328 *~ 0.5;
#X connect 0 0 9 0;
#X connect 2 0 5 0;
#X connect 3 0 8 0;
#X connect 4 0 0 0;
#X connect 5 0 4 0;
#X connect 5 1 3 0;
#X connect 6 0 1 0;
#X connect 7 0 10 0;
#X connect 8 0 7 0;
#X connect 9 0 6 0;
#X connect 10 0 6 1;
