#N canvas 359 399 900 395 10;
#X floatatom 110 75 5 0 0 0 - - -;
#X floatatom 230 80 5 0 0 0 - - -;
#X floatatom 351 85 5 0 0 0 - - -;
#X floatatom 468 86 5 0 0 0 - - -;
#X msg 110 97 send /a2 /0 /1 \$1;
#X msg 230 124 send /a2 /0 /2 \$1;
#X obj 109 54 r l_o_\$1;
#X obj 229 58 r l_v_\$1;
#X obj 351 62 r r_o_\$1;
#X obj 468 64 r r_v_\$1;
#X msg 351 106 send /a2 /0 /3 \$1;
#X msg 468 130 send /a2 /0 /4 \$1;
#X obj 249 172 outlet;
#X obj 110 -161 loadbang;
#X obj 110 -76 t b f;
#X msg 110 -19 adddollar 1;
#X obj 110 -105 t f f f f;
#X obj 228 -76 t b f;
#X msg 228 -19 adddollar 1;
#X obj 352 -75 t b f;
#X msg 352 -18 adddollar 1;
#X obj 473 -74 t b f;
#X msg 473 -17 adddollar 1;
#X msg 137 -52 set send /a2 /\$1 /1;
#X msg 255 -52 set send /a2 /\$1 /2;
#X msg 379 -50 set send /a2 /\$1 /3;
#X msg 500 -49 set send /a2 /\$1 /4;
#X floatatom 696 72 5 0 0 0 - - -;
#X obj 666 -82 t b f;
#X msg 666 -25 adddollar 1;
#X msg 661 122 send /a2 /0 /5 \$1;
#X obj 696 50 r dir-\$1;
#X msg 693 -57 set send /a2 /\$1 /5;
#X obj 110 -132 + \$1;
#X connect 0 0 4 0;
#X connect 1 0 5 0;
#X connect 2 0 10 0;
#X connect 3 0 11 0;
#X connect 4 0 12 0;
#X connect 5 0 12 0;
#X connect 6 0 0 0;
#X connect 7 0 1 0;
#X connect 8 0 2 0;
#X connect 9 0 3 0;
#X connect 10 0 12 0;
#X connect 11 0 12 0;
#X connect 13 0 33 0;
#X connect 14 0 15 0;
#X connect 14 1 23 0;
#X connect 15 0 4 0;
#X connect 16 0 14 0;
#X connect 16 1 17 0;
#X connect 16 2 19 0;
#X connect 16 3 21 0;
#X connect 16 3 28 0;
#X connect 17 0 18 0;
#X connect 17 1 24 0;
#X connect 18 0 5 0;
#X connect 19 0 20 0;
#X connect 19 1 25 0;
#X connect 20 0 10 0;
#X connect 21 0 22 0;
#X connect 21 1 26 0;
#X connect 22 0 11 0;
#X connect 23 0 4 0;
#X connect 24 0 5 0;
#X connect 25 0 10 0;
#X connect 26 0 11 0;
#X connect 27 0 30 0;
#X connect 28 0 29 0;
#X connect 28 1 32 0;
#X connect 29 0 30 0;
#X connect 30 0 12 0;
#X connect 31 0 27 0;
#X connect 32 0 30 0;
#X connect 33 0 16 0;
