#N canvas 769 175 447 455 10;
#X obj 24 13 inlet;
#X obj 73 14 inlet;
#X floatatom 24 41 5 0 0 0 - - -;
#X msg 123 188 send /a3 /1 /1 \$1;
#X obj 123 0 loadbang;
#X obj 123 29 + \$1;
#X obj 123 85 t b f;
#X msg 123 142 adddollar 1;
#X obj 123 56 t f f f f;
#X obj 273 84 t b f;
#X obj 96 283 s toudp;
#X obj 96 261 packOSC;
#X msg 150 108 set send /a3 /\$1 /1;
#X floatatom 201 3 5 0 0 0 - - -;
#X msg 300 108 set send /a3 /\$1 /2;
#X msg 273 206 send /a3 /1 /2 \$1;
#X msg 274 139 adddollar 1;
#X connect 0 0 2 0;
#X connect 1 0 15 0;
#X connect 2 0 3 0;
#X connect 3 0 11 0;
#X connect 4 0 5 0;
#X connect 5 0 8 0;
#X connect 6 0 7 0;
#X connect 6 1 12 0;
#X connect 7 0 3 0;
#X connect 8 0 6 0;
#X connect 8 1 9 0;
#X connect 9 0 16 0;
#X connect 9 1 14 0;
#X connect 11 0 10 0;
#X connect 12 0 3 0;
#X connect 13 0 5 0;
#X connect 14 0 15 0;
#X connect 15 0 11 0;
#X connect 16 0 15 0;
