#N canvas 101 139 807 587 10;
#X floatatom 169 80 5 0 0 0 - - -;
#X floatatom 286 82 5 0 0 0 - - -;
#X obj 168 59 r l_o_\$1;
#X obj 229 58 r l_v_\$1;
#X obj 286 59 r r_o_\$1;
#X obj 345 60 r r_v_\$1;
#X obj 129 371 osc~;
#X obj 466 379 osc~;
#X msg 169 102 /1 \$1;
#X msg 286 103 /3 \$1;
#X obj 169 142 route /1 /2 /3 /4;
#X obj 194 282 t f f;
#X msg 194 369 1;
#X msg 226 369 0;
#X obj 211 419 eee-adsr~;
#X obj 299 298 t f f f f;
#X obj 300 347 * 0.1;
#X obj 316 324 * 0.3;
#X obj 359 323 * 0.5;
#X obj 226 348 delay 800;
#X obj 194 305 t b b f;
#X obj 233 327 / 2;
#X obj 129 398 *~;
#X obj 466 406 *~;
#X obj 208 200 unpack f f;
#X obj 419 143 unpack f f;
#X msg 301 395 1 \$1 \, 2 \$2 \, 3 \$3 \, 4 \$4;
#X obj 518 219 t f f;
#X msg 518 306 1;
#X msg 550 306 0;
#X obj 535 356 eee-adsr~;
#X obj 623 235 t f f f f;
#X obj 624 284 * 0.1;
#X obj 640 261 * 0.3;
#X obj 683 260 * 0.5;
#X obj 550 285 delay 800;
#X obj 518 242 t b b f;
#X obj 557 264 / 2;
#X msg 625 332 1 \$1 \, 2 \$2 \, 3 \$3 \, 4 \$4;
#X obj 466 432 *~ 0.2;
#X obj 129 422 *~ 0.2;
#X obj 300 372 pack f f 0.3 f;
#X obj 624 309 pack f f 0.3 f;
#X obj 128 453 throw~ left;
#X obj 466 462 throw~ right;
#X connect 0 0 8 0;
#X connect 1 0 9 0;
#X connect 2 0 0 0;
#X connect 3 0 24 0;
#X connect 4 0 1 0;
#X connect 5 0 25 0;
#X connect 6 0 22 0;
#X connect 7 0 23 0;
#X connect 8 0 10 0;
#X connect 9 0 10 0;
#X connect 10 0 6 0;
#X connect 10 2 7 0;
#X connect 11 0 20 0;
#X connect 11 1 15 0;
#X connect 12 0 14 0;
#X connect 13 0 14 0;
#X connect 14 0 22 1;
#X connect 15 0 16 0;
#X connect 15 1 17 0;
#X connect 15 2 18 0;
#X connect 16 0 41 0;
#X connect 17 0 41 1;
#X connect 18 0 41 3;
#X connect 19 0 13 0;
#X connect 20 0 12 0;
#X connect 20 1 19 0;
#X connect 20 2 21 0;
#X connect 21 0 19 1;
#X connect 22 0 40 0;
#X connect 23 0 39 0;
#X connect 24 0 11 0;
#X connect 24 1 40 1;
#X connect 25 0 27 0;
#X connect 25 1 39 1;
#X connect 26 0 14 1;
#X connect 27 0 36 0;
#X connect 27 1 31 0;
#X connect 28 0 30 0;
#X connect 29 0 30 0;
#X connect 30 0 23 1;
#X connect 31 0 32 0;
#X connect 31 1 33 0;
#X connect 31 2 34 0;
#X connect 32 0 42 0;
#X connect 33 0 42 1;
#X connect 34 0 42 3;
#X connect 35 0 29 0;
#X connect 36 0 28 0;
#X connect 36 1 35 0;
#X connect 36 2 37 0;
#X connect 37 0 35 1;
#X connect 38 0 30 1;
#X connect 39 0 44 0;
#X connect 40 0 43 0;
#X connect 41 0 26 0;
#X connect 42 0 38 0;
