#N canvas 836 47 468 758 10;
#X obj 103 103 cnv 15 94 94 empty empty empty 20 12 0 14 -233017 -66577
0;
#X text 201 33 x = x0 + rsin(theta)*cos(phi);
#X text 201 43 y = y0 + rsin(theta)*sin(phi);
#X text 201 53 z = z0 + rcos(theta);
#X text 201 63 0 <= phi <= 2pi;
#X text 201 73 0 <= theta <= pi;
#X obj 7 -97 rotateXYZ 90 0 0;
#N canvas 273 205 768 643 end 0;
#X obj 33 523 translateXYZ;
#X obj 336 429 expr cos($f1);
#X obj 56 397 t f f f;
#X obj 214 395 t f f;
#X obj 198 429 expr sin($f1)*sin($f2);
#X obj 56 430 expr sin($f1)*cos($f2);
#X obj 56 465 * 2;
#X obj 86 465 * 2;
#X obj 111 465 * 2;
#X obj 33 23 gemhead;
#X obj 33 283 t a b b;
#X obj 433 414 deg2rad;
#X obj 433 441 / 2;
#X obj 576 448 * 360;
#X obj 576 470 deg2rad;
#X obj 433 391 * 360;
#X obj 433 47 inlet;
#X obj 433 96 f 1;
#X obj 433 116 +;
#X obj 433 165 t f f;
#X obj 576 552 tabwrite phi_end;
#X obj 433 554 tabwrite theta_end;
#X obj 33 175 t a b b b;
#X obj 158 215 f 1;
#X obj 158 235 +;
#X obj 159 323 tabread phi_end;
#X obj 56 358 tabread theta_end;
#X obj 33 201 separator;
#X obj 576 416 / 99;
#X obj 33 230 alpha;
#X obj 628 470 tabread phi_start;
#X obj 576 356 t b f f;
#X obj 448 478 tabread theta_start;
#X obj 576 504 +;
#X obj 433 308 t b f f;
#X obj 433 506 +;
#X obj 33 66 t a b b b;
#X obj 51 98 v rx;
#X obj 81 98 v ry;
#X obj 111 98 v rz;
#X obj 33 126 rotateXYZ;
#X obj 572 183 inlet;
#X obj 572 237 t b f;
#X obj 151 70 r \$0-num;
#X obj 434 72 repeat 20;
#X obj 433 144 % 20;
#X obj 32 151 repeat 20;
#X obj 158 263 % 20;
#X obj 110 379 r \$0-radius;
#X obj 32 258 colorRGB 1 1 1 1;
#X obj 33 546 sphere 0.02 30;
#X obj 34 -14 inlet;
#X obj 108 496 * 1;
#X obj 83 496 * 1;
#X obj 53 496 * 1;
#X msg 192 493 \$1 \$1 \$1;
#X obj 192 514 unpack f f f;
#X obj 158 286 t f f f f;
#X obj 192 471 expr if($f1>20 \, 1.3 \, 1);
#X floatatom 572 208 5 0 0 0 - - -;
#X floatatom 656 434 5 0 0 0 - - -;
#X obj 433 340 randomF 1;
#X obj 576 385 randomF 1;
#X obj 572 266 t b b;
#X obj 618 267 t f f;
#X connect 0 0 50 0;
#X connect 1 0 8 0;
#X connect 2 0 5 0;
#X connect 2 1 4 0;
#X connect 2 2 1 0;
#X connect 3 0 5 1;
#X connect 3 1 4 1;
#X connect 4 0 7 0;
#X connect 5 0 6 0;
#X connect 6 0 54 0;
#X connect 7 0 53 0;
#X connect 8 0 52 0;
#X connect 10 0 0 0;
#X connect 11 0 12 0;
#X connect 12 0 35 0;
#X connect 13 0 14 0;
#X connect 14 0 33 0;
#X connect 15 0 11 0;
#X connect 16 0 44 0;
#X connect 17 0 18 0;
#X connect 18 0 45 0;
#X connect 19 0 34 0;
#X connect 19 1 31 0;
#X connect 22 0 27 0;
#X connect 22 1 23 0;
#X connect 23 0 24 0;
#X connect 24 0 47 0;
#X connect 25 0 3 0;
#X connect 26 0 2 0;
#X connect 27 0 29 0;
#X connect 28 0 13 0;
#X connect 28 0 60 0;
#X connect 29 0 49 0;
#X connect 30 0 33 1;
#X connect 31 0 62 0;
#X connect 31 1 20 1;
#X connect 31 2 30 0;
#X connect 32 0 35 1;
#X connect 33 0 20 0;
#X connect 34 0 61 0;
#X connect 34 1 21 1;
#X connect 34 2 32 0;
#X connect 35 0 21 0;
#X connect 36 0 40 0;
#X connect 36 1 37 0;
#X connect 36 2 38 0;
#X connect 36 3 39 0;
#X connect 37 0 40 1;
#X connect 38 0 40 2;
#X connect 39 0 40 3;
#X connect 40 0 46 0;
#X connect 41 0 59 0;
#X connect 42 0 63 0;
#X connect 42 1 64 0;
#X connect 43 0 44 1;
#X connect 43 0 45 1;
#X connect 43 0 46 1;
#X connect 43 0 47 1;
#X connect 44 0 17 0;
#X connect 45 0 18 1;
#X connect 45 0 19 0;
#X connect 46 0 22 0;
#X connect 47 0 24 1;
#X connect 47 0 57 0;
#X connect 48 0 6 1;
#X connect 48 0 7 1;
#X connect 48 0 8 1;
#X connect 49 0 10 0;
#X connect 51 0 9 0;
#X connect 52 0 0 3;
#X connect 53 0 0 2;
#X connect 54 0 0 1;
#X connect 55 0 56 0;
#X connect 56 0 54 1;
#X connect 56 1 53 1;
#X connect 56 2 52 1;
#X connect 57 0 26 0;
#X connect 57 1 25 0;
#X connect 57 2 58 0;
#X connect 58 0 55 0;
#X connect 59 0 42 0;
#X connect 61 0 15 0;
#X connect 62 0 28 0;
#X connect 63 0 34 0;
#X connect 63 1 31 0;
#X connect 64 0 61 1;
#X connect 64 1 62 1;
#X restore 104 376 pd end;
#X obj 101 344 t b b b;
#N canvas 464 324 535 425 copy_end 0;
#X obj 72 41 inlet;
#X obj 72 89 f 1;
#X obj 72 109 +;
#X obj 210 250 tabread theta_end;
#X obj 210 282 tabwrite theta_start;
#X obj 107 189 t f f f;
#X obj 72 164 t f f;
#X obj 72 229 t f f f;
#X obj 91 280 tabread phi_end;
#X obj 91 322 tabwrite phi_start;
#X obj 141 60 r \$0-num;
#X obj 72 65 repeat 20;
#X obj 71 137 % 20;
#X connect 0 0 11 0;
#X connect 1 0 2 0;
#X connect 2 0 12 0;
#X connect 3 0 4 0;
#X connect 5 1 3 0;
#X connect 5 2 4 1;
#X connect 6 0 7 0;
#X connect 6 1 5 0;
#X connect 7 1 8 0;
#X connect 7 2 9 1;
#X connect 8 0 9 0;
#X connect 10 0 11 1;
#X connect 10 0 12 1;
#X connect 11 0 1 0;
#X connect 12 0 2 1;
#X connect 12 0 6 0;
#X restore 171 375 pd copy_end;
#X obj 127 -171 table theta_start 100;
#X obj 127 -151 table theta_end 100;
#X obj 127 -132 table phi_start 100;
#X obj 127 -110 table phi_end 100;
#X obj 127 -89 table phi_motion 100;
#X obj 127 -71 table theta_motion 100;
#X obj 7 -183 t a b b b;
#X obj 25 -153 v rx;
#X obj 55 -153 v ry;
#X obj 85 -153 v rz;
#X obj 7 -126 rotateXYZ;
#X obj 101 298 loadbang;
#X obj 101 322 bng 15 250 50 0 empty empty empty 17 7 0 10 -262144
-1 -1;
#X obj -2 52 v rx;
#X obj 34 51 v ry;
#X obj 69 51 v rz;
#X floatatom -2 26 5 0 0 0 - - -;
#X floatatom 34 27 5 0 0 0 - - -;
#X floatatom 69 26 5 0 0 0 - - -;
#X obj 7 -208 gemhead 0;
#N canvas 405 48 1035 782 motion============ 0;
#X obj 34 486 translateXYZ;
#X obj 210 328 expr cos($f1);
#X obj 186 226 t f f;
#X obj 87 360 expr sin($f1)*sin($f2);
#X obj 57 333 expr sin($f1)*cos($f2);
#X obj 57 437 * 2;
#X obj 87 437 * 2;
#X obj 112 437 * 2;
#X obj 103 98 f 1;
#X obj 129 98 +;
#X obj 34 98 separator;
#X obj 186 202 tabread phi_motion;
#X obj 57 276 tabread theta_motion;
#X obj 34 -39 t a b b b;
#X obj 51 -9 v rx;
#X obj 81 -9 v ry;
#X obj 111 -9 v rz;
#X obj 34 18 rotateXYZ;
#X obj 57 305 t f f f===================;
#N canvas 494 208 629 509 motion2 0;
#X obj 91 369 -;
#X obj 76 401 *;
#X obj 76 437 +;
#X obj 271 361 -;
#X obj 256 393 *;
#X obj 256 428 +;
#X obj 21 11 inlet;
#X obj 256 258 f;
#X obj 21 88 f 1;
#X obj 48 88 +;
#X obj 76 463 tabwrite theta_motion;
#X obj 256 463 tabwrite phi_motion;
#X obj 271 284 t f f f;
#X obj 91 279 t f f f;
#X obj 76 250 f;
#X obj 21 38 t b f f;
#X obj 21 65 repeat 10;
#X obj 76 88 % 10;
#X obj 76 221 t b f;
#X obj 256 231 t b f;
#X obj 110 310 tabread theta_end;
#X obj 91 347 tabread theta_start;
#X obj 290 309 tabread phi_end;
#X obj 271 339 tabread phi_start;
#X obj 107 29 r \$0-num;
#X floatatom 479 268 5 0 0 0 - - -;
#X obj 479 241 tabread dis_size;
#X obj 198 189 expr abs($f1-0.5)*2;
#X obj 67 10 bng 15 250 50 0 empty empty empty 17 7 0 10 -262144 -1
-1;
#X obj 428 212 t b f f f;
#X obj 462 350 tabread pos;
#X obj 477 415 tabwrite pos;
#X obj 437 349 f 0;
#X obj 437 381 +;
#X obj 198 144 tabread pos;
#X obj 76 117 t f f f f======================;
#X obj 198 244 outlet;
#X text 322 191 1 0 1;
#X obj 480 293 expr 8-$f1;
#X obj 197 166 / 400;
#X obj 477 385 % 400;
#X connect 0 0 1 1;
#X connect 1 0 2 0;
#X connect 2 0 10 0;
#X connect 3 0 4 1;
#X connect 4 0 5 0;
#X connect 5 0 11 0;
#X connect 6 0 15 0;
#X connect 7 0 4 0;
#X connect 8 0 9 0;
#X connect 9 0 17 0;
#X connect 12 0 23 0;
#X connect 12 1 22 0;
#X connect 12 2 11 1;
#X connect 13 0 21 0;
#X connect 13 1 20 0;
#X connect 13 2 10 1;
#X connect 14 0 1 0;
#X connect 15 0 16 0;
#X connect 16 0 8 0;
#X connect 17 0 9 1;
#X connect 17 0 35 0;
#X connect 18 0 14 0;
#X connect 18 1 13 0;
#X connect 19 0 7 0;
#X connect 19 1 12 0;
#X connect 20 0 2 1;
#X connect 20 0 0 1;
#X connect 21 0 0 0;
#X connect 22 0 5 1;
#X connect 22 0 3 1;
#X connect 23 0 3 0;
#X connect 24 0 16 1;
#X connect 24 0 17 1;
#X connect 25 0 38 0;
#X connect 26 0 25 0;
#X connect 27 0 14 1;
#X connect 27 0 7 1;
#X connect 27 0 36 0;
#X connect 28 0 15 0;
#X connect 29 0 32 0;
#X connect 29 1 31 1;
#X connect 29 2 30 0;
#X connect 29 3 26 0;
#X connect 30 0 33 1;
#X connect 32 0 33 0;
#X connect 33 0 40 0;
#X connect 34 0 39 0;
#X connect 35 0 18 0;
#X connect 35 1 19 0;
#X connect 35 2 34 0;
#X connect 35 3 29 0;
#X connect 38 0 32 1;
#X connect 39 0 27 0;
#X connect 40 0 31 0;
#X restore -43 -38 pd motion2;
#X obj -43 -71 inlet;
#X obj 34 176 separator;
#X obj 275 528 pack f f f;
#X obj -24 96 tgl 15 0 empty empty empty 17 7 0 10 -262144 -1 -1 1
1;
#X obj 34 123 alpha;
#X obj -24 73 loadbang;
#X obj 151 16 r \$0-num;
#X obj 34 -62 gemhead 2000;
#X obj 34 50 repeat 20;
#X obj 157 98 % 20;
#X obj 102 382 r \$0-radius;
#X obj 34 -101 inlet;
#X obj 33 554 sphere 0.05 100;
#X obj 33 508 colorRGB 1 0 0 0.9;
#X obj 33 531 separator;
#X obj 56 460 * 1;
#X obj 86 460 * 1;
#X obj 111 460 * 1;
#N canvas 525 111 915 656 line================= 0;
#X obj 344 1 inlet;
#X obj 344 21 separator;
#X obj 269 224 separator;
#X obj 672 446 expr cos($f1);
#X obj 648 400 t f f;
#X obj 549 478 expr sin($f1)*sin($f2);
#X obj 519 451 expr sin($f1)*cos($f2);
#X obj 519 502 * 2;
#X obj 549 502 * 2;
#X obj 574 502 * 2;
#X obj 519 423 t f f f===================;
#X obj 496 569 translateXYZ;
#X obj 573 321 -;
#X obj 561 237 tabread theta_start;
#X obj 573 299 tabread theta_end;
#X obj 534 214 t f f;
#X obj 519 330 f;
#X obj 726 324 -;
#X obj 726 302 tabread phi_end;
#X obj 705 225 t f f;
#X obj 647 324 f;
#X obj 647 350 *;
#X obj 519 356 *;
#X obj 519 381 +;
#X obj 647 377 +;
#X obj 561 261 t f f;
#X obj 732 272 t f f;
#X obj 732 250 tabread phi_start;
#X obj 269 267 alpha;
#X obj 371 97 f 0;
#X obj 398 97 + 1;
#X obj 426 96 % 30;
#X obj 344 42 repeat 30;
#X obj 371 127 / 30;
#X obj 447 19 r \$0-line;
#X obj 296 159 tgl 15 0 empty empty empty 17 7 0 10 -262144 -1 -1 1
1;
#N canvas 611 296 375 439 color 0;
#X obj 52 59 inlet;
#X obj 154 58 inlet;
#X obj 52 345 outlet;
#X obj 76 91 inlet;
#X floatatom 75 174 5 0 0 0 - - -;
#X floatatom 121 206 5 0 0 0 - - -;
#X obj 75 150 expr abs(1-(2*abs($f1-0.5)));
#X obj 75 114 t f f f;
#X obj 52 286 colorRGB 0 0 0 1;
#X obj 121 180 expr (2*abs($f1-0.5));
#X obj 154 88 expr if($f1<20 \, 1 \, 2);
#X obj 75 234 gate 2;
#X obj 121 233 gate 2;
#X connect 0 0 8 0;
#X connect 1 0 10 0;
#X connect 3 0 7 0;
#X connect 4 0 11 1;
#X connect 5 0 12 1;
#X connect 6 0 4 0;
#X connect 7 0 6 0;
#X connect 7 1 9 0;
#X connect 8 0 2 0;
#X connect 9 0 5 0;
#X connect 10 0 11 0;
#X connect 10 0 12 0;
#X connect 11 0 8 1;
#X connect 11 1 8 2;
#X connect 12 0 8 3;
#X connect 12 1 8 3;
#X restore 236 314 pd color;
#X obj 496 594 scale 1;
#X obj 443 421 r \$0-radius;
#X obj 496 616 sphere 0.02 5;
#X obj 133 368 expr abs(1-(abs(($f1)-0.5)*2))*1+0.4;
#X obj 519 542 * 1;
#X obj 549 542 * 1;
#X obj 574 542 * 1;
#X obj 296 132 loadbang;
#X obj 534 129 inlet;
#X obj 344 70 t a b;
#X obj 371 152 t f f f f f=====;
#X msg 699 400 \$1 \$1 \$1;
#X obj 699 421 unpack f f f;
#X obj 699 378 expr if($f1>20 \, 1.3 \, 1);
#X obj 534 154 t f f f f;
#X connect 0 0 1 0;
#X connect 1 0 32 0;
#X connect 2 0 28 0;
#X connect 3 0 9 0;
#X connect 4 0 6 1;
#X connect 4 1 5 1;
#X connect 5 0 8 0;
#X connect 6 0 7 0;
#X connect 7 0 41 0;
#X connect 8 0 42 0;
#X connect 9 0 43 0;
#X connect 10 0 6 0;
#X connect 10 1 5 0;
#X connect 10 2 3 0;
#X connect 11 0 37 0;
#X connect 12 0 22 1;
#X connect 13 0 25 0;
#X connect 14 0 12 0;
#X connect 15 0 14 0;
#X connect 15 1 13 0;
#X connect 16 0 22 0;
#X connect 17 0 21 1;
#X connect 18 0 17 0;
#X connect 19 0 18 0;
#X connect 19 1 27 0;
#X connect 20 0 21 0;
#X connect 21 0 24 0;
#X connect 22 0 23 0;
#X connect 23 0 10 0;
#X connect 24 0 4 0;
#X connect 25 0 23 1;
#X connect 25 1 12 1;
#X connect 26 0 24 1;
#X connect 26 1 17 1;
#X connect 27 0 26 0;
#X connect 28 0 36 0;
#X connect 29 0 30 0;
#X connect 29 0 33 0;
#X connect 30 0 31 0;
#X connect 31 0 29 1;
#X connect 32 0 46 0;
#X connect 33 0 47 0;
#X connect 34 0 32 1;
#X connect 34 0 31 1;
#X connect 34 0 33 1;
#X connect 35 0 28 1;
#X connect 36 0 11 0;
#X connect 37 0 39 0;
#X connect 38 0 7 1;
#X connect 38 0 8 1;
#X connect 38 0 9 1;
#X connect 40 0 37 1;
#X connect 41 0 11 1;
#X connect 42 0 11 2;
#X connect 43 0 11 3;
#X connect 44 0 35 0;
#X connect 45 0 51 0;
#X connect 46 0 2 0;
#X connect 46 1 29 0;
#X connect 47 0 40 0;
#X connect 47 1 36 1;
#X connect 47 2 16 0;
#X connect 47 3 20 0;
#X connect 48 0 49 0;
#X connect 49 0 41 1;
#X connect 49 1 42 1;
#X connect 49 2 43 1;
#X connect 50 0 48 0;
#X connect 51 0 15 0;
#X connect 51 1 19 0;
#X connect 51 2 50 0;
#X connect 51 3 36 2;
#X restore 154 166 pd line=================;
#N canvas 0 22 227 323 text================= 0;
#X obj -13 243 loadbang;
#X obj -91 157 colorRGB 1 1 1 1;
#X msg -67 204 text N-\$1;
#X obj -91 87 separator;
#X obj -67 240 text2d;
#X obj -91 109 translateXYZ 0.1 0.3 0.1;
#X msg -13 266 10;
#X obj -91 59 inlet;
#X obj -67 179 inlet;
#X connect 0 0 6 0;
#X connect 1 0 4 0;
#X connect 2 0 4 0;
#X connect 3 0 5 0;
#X connect 5 0 1 0;
#X connect 6 0 4 1;
#X connect 7 0 3 0;
#X connect 8 0 2 0;
#X restore -124 554 pd text=================;
#X obj 30 241 t f f;
#X obj 34 147 t a a;
#N canvas 554 244 450 300 center-line========== 0;
#X obj 163 27 inlet;
#X obj 241 47 inlet;
#X obj 163 67 separator;
#X obj 163 200 curve 2;
#X obj 87 149 loadbang;
#X msg 87 174 draw point;
#X msg 282 139 0 0 0;
#X obj 281 118 t b;
#X obj 163 124 colorRGB 1 1 1 1;
#X obj 163 152 GEMglPointSize 1;
#X connect 0 0 2 0;
#X connect 1 0 7 0;
#X connect 1 0 3 1;
#X connect 2 0 8 0;
#X connect 4 0 5 0;
#X connect 5 0 3 0;
#X connect 6 0 3 2;
#X connect 7 0 6 0;
#X connect 8 0 9 0;
#X connect 9 0 3 0;
#X restore 134 555 pd center-line==========;
#X obj 34 74 t a a b=====;
#X obj 151 45 t f f;
#X msg 180 389 \$1 \$1 \$1;
#X obj 180 410 unpack f f f;
#X obj 303 327 expr if($f1>20 \, 1.3 \, 1);
#X obj 203 461 expr if($f1>20 \, 0 \, 1);
#X obj 335 461 expr if($f1>20 \, 1 \, 0);
#X obj 157 122 t f f f f f;
#X obj 282 421 t f f;
#X connect 0 0 33 0;
#X connect 1 0 7 0;
#X connect 2 0 4 1;
#X connect 2 1 3 1;
#X connect 3 0 6 0;
#X connect 4 0 5 0;
#X connect 5 0 35 0;
#X connect 6 0 36 0;
#X connect 7 0 37 0;
#X connect 8 0 9 0;
#X connect 9 0 29 0;
#X connect 10 0 24 0;
#X connect 11 0 2 0;
#X connect 12 0 18 0;
#X connect 13 0 17 0;
#X connect 13 1 14 0;
#X connect 13 2 15 0;
#X connect 13 3 16 0;
#X connect 14 0 17 1;
#X connect 15 0 17 2;
#X connect 16 0 17 3;
#X connect 17 0 28 0;
#X connect 18 0 4 0;
#X connect 18 1 3 0;
#X connect 18 2 1 0;
#X connect 20 0 19 0;
#X connect 21 0 0 0;
#X connect 22 0 42 1;
#X connect 23 0 24 1;
#X connect 24 0 41 0;
#X connect 25 0 23 0;
#X connect 26 0 44 0;
#X connect 27 0 13 0;
#X connect 28 0 43 0;
#X connect 29 0 9 1;
#X connect 29 0 50 0;
#X connect 30 0 5 1;
#X connect 30 0 6 1;
#X connect 30 0 7 1;
#X connect 31 0 27 0;
#X connect 33 0 34 0;
#X connect 33 0 39 0;
#X connect 34 0 32 0;
#X connect 35 0 0 1;
#X connect 35 0 22 0;
#X connect 36 0 0 2;
#X connect 36 0 22 1;
#X connect 37 0 0 3;
#X connect 37 0 22 2;
#X connect 40 0 39 1;
#X connect 40 1 12 0;
#X connect 41 0 21 0;
#X connect 41 1 42 0;
#X connect 43 0 10 0;
#X connect 43 1 38 0;
#X connect 43 2 8 0;
#X connect 44 0 28 1;
#X connect 44 1 29 1;
#X connect 45 0 46 0;
#X connect 46 0 35 1;
#X connect 46 1 36 1;
#X connect 46 2 37 1;
#X connect 47 0 45 0;
#X connect 48 0 33 1;
#X connect 49 0 33 3;
#X connect 50 0 40 0;
#X connect 50 1 11 0;
#X connect 50 2 38 1;
#X connect 50 3 47 0;
#X connect 50 4 51 0;
#X connect 51 0 48 0;
#X connect 51 1 49 0;
#X restore -34 119 pd motion============;
#X obj 109 180 hsl 50 15 0.1 1 0 0 empty empty distance 2 8 0 10 -262144
-1 -1 4900 1;
#N canvas 468 201 873 699 start 0;
#X obj 21 430 translateXYZ;
#X obj 259 331 expr cos($f1);
#X obj 187 169 t f f;
#X obj 152 306 expr sin($f1)*sin($f2);
#X obj 46 275 expr sin($f1)*cos($f2);
#X obj 46 356 * 2;
#X obj 76 356 * 2;
#X obj 101 356 * 2;
#X obj 23 -73 gemhead;
#X obj 23 207 t a b b;
#X obj 23 92 t a b b b;
#X obj 159 41 f 1;
#X obj 159 61 +;
#X obj 187 143 tabread phi_start;
#X obj 46 233 tabread theta_start;
#X obj 23 132 separator;
#X obj 23 159 alpha;
#X obj 23 48 rotateXYZ;
#X obj 23 -36 t a b b b;
#X obj 41 -6 v rx;
#X obj 71 -6 v ry;
#X obj 101 -6 v rz;
#X obj 46 254 t f f f=============================;
#X obj 200 -42 r \$0-num;
#X obj 159 90 % 20;
#X obj 22 72 repeat 20;
#X obj 62 304 r \$0-radius;
#X obj 374 386 distance_n;
#X floatatom 374 411 5 0 0 0 - - -;
#X obj 653 271 expr cos($f1);
#X obj 373 239 t f f f;
#X obj 531 237 t f f;
#X obj 515 271 expr sin($f1)*sin($f2);
#X obj 373 272 expr sin($f1)*cos($f2);
#X obj 373 307 * 2;
#X obj 403 307 * 2;
#X obj 428 307 * 2;
#X obj 363 52 f 1;
#X obj 391 50 +;
#X obj 531 211 tabread phi_end;
#X obj 373 200 tabread theta_end;
#X obj 419 49 % 20;
#X obj 427 221 r \$0-radius;
#X obj 420 93 t f f;
#X obj 462 93 t f f;
#X obj 813 148 expr cos($f1);
#X obj 533 116 t f f f;
#X obj 691 114 t f f;
#X obj 675 148 expr sin($f1)*sin($f2);
#X obj 533 149 expr sin($f1)*cos($f2);
#X obj 533 184 * 2;
#X obj 563 184 * 2;
#X obj 588 184 * 2;
#X obj 587 98 r \$0-radius;
#X obj 374 348 pack f f f;
#X obj 449 348 pack f f f;
#X obj 414 -5 r \$0-num;
#X obj 363 25 repeat 20;
#X obj 420 71 t f f f;
#X obj 363 -25 inlet;
#X obj 374 441 tabwrite dis_size;
#X obj 533 77 tabread theta_start;
#X obj 691 88 tabread phi_start;
#X obj 23 182 colorRGB 1 1 1 1;
#X obj 21 453 sphere 0.02 30;
#X obj 25 -105 inlet;
#X obj 100 388 * 1;
#X obj 75 388 * 1;
#X obj 45 388 * 1;
#X msg 148 410 \$1 \$1 \$1;
#X obj 148 431 unpack f f f;
#X obj 160 113 t f f f;
#X obj 148 388 expr if($f1>20 \, 1.3 \, 1);
#X connect 0 0 64 0;
#X connect 1 0 7 0;
#X connect 2 0 4 1;
#X connect 2 1 3 1;
#X connect 3 0 6 0;
#X connect 4 0 5 0;
#X connect 5 0 68 0;
#X connect 6 0 67 0;
#X connect 7 0 66 0;
#X connect 9 0 0 0;
#X connect 10 0 15 0;
#X connect 10 1 11 0;
#X connect 11 0 12 0;
#X connect 12 0 24 0;
#X connect 13 0 2 0;
#X connect 14 0 22 0;
#X connect 15 0 16 0;
#X connect 16 0 63 0;
#X connect 17 0 25 0;
#X connect 18 0 17 0;
#X connect 18 1 19 0;
#X connect 18 2 20 0;
#X connect 18 3 21 0;
#X connect 19 0 17 1;
#X connect 20 0 17 2;
#X connect 21 0 17 3;
#X connect 22 0 4 0;
#X connect 22 1 3 0;
#X connect 22 2 1 0;
#X connect 23 0 24 1;
#X connect 23 0 25 1;
#X connect 24 0 12 1;
#X connect 24 0 71 0;
#X connect 25 0 10 0;
#X connect 26 0 5 1;
#X connect 26 0 6 1;
#X connect 26 0 7 1;
#X connect 27 0 28 0;
#X connect 28 0 60 0;
#X connect 29 0 36 0;
#X connect 30 0 33 0;
#X connect 30 1 32 0;
#X connect 30 2 29 0;
#X connect 31 0 33 1;
#X connect 31 1 32 1;
#X connect 32 0 35 0;
#X connect 33 0 34 0;
#X connect 34 0 54 0;
#X connect 35 0 54 1;
#X connect 36 0 54 2;
#X connect 37 0 38 0;
#X connect 38 0 41 0;
#X connect 39 0 31 0;
#X connect 40 0 30 0;
#X connect 41 0 38 1;
#X connect 41 0 58 0;
#X connect 42 0 34 1;
#X connect 42 0 35 1;
#X connect 42 0 36 1;
#X connect 43 0 40 0;
#X connect 43 1 39 0;
#X connect 44 0 61 0;
#X connect 44 1 62 0;
#X connect 45 0 52 0;
#X connect 46 0 49 0;
#X connect 46 1 48 0;
#X connect 46 2 45 0;
#X connect 47 0 49 1;
#X connect 47 1 48 1;
#X connect 48 0 51 0;
#X connect 49 0 50 0;
#X connect 50 0 55 0;
#X connect 51 0 55 1;
#X connect 52 0 55 2;
#X connect 53 0 50 1;
#X connect 53 0 51 1;
#X connect 53 0 52 1;
#X connect 54 0 27 0;
#X connect 55 0 27 1;
#X connect 56 0 57 1;
#X connect 56 0 41 1;
#X connect 57 0 37 0;
#X connect 58 0 43 0;
#X connect 58 1 44 0;
#X connect 58 2 60 1;
#X connect 59 0 57 0;
#X connect 61 0 46 0;
#X connect 62 0 47 0;
#X connect 63 0 9 0;
#X connect 65 0 8 0;
#X connect 66 0 0 3;
#X connect 67 0 0 2;
#X connect 68 0 0 1;
#X connect 69 0 70 0;
#X connect 70 0 68 1;
#X connect 70 1 67 1;
#X connect 70 2 66 1;
#X connect 71 0 14 0;
#X connect 71 1 13 0;
#X connect 71 2 72 0;
#X connect 72 0 69 0;
#X restore -2 373 pd start;
#X obj 109 161 hsl 50 15 1 40 0 0 empty empty track 2 8 0 10 -262144
-1 -1 0 1;
#X obj 205 146 s \$0-num;
#X floatatom 175 117 3 0 0 0 - - -;
#X obj 205 99 i;
#X obj 109 141 hsl 50 15 0.2 2 0 0 empty empty radius 2 8 0 10 -262144
-1 -1 4900 1;
#X obj 28 163 loadbang;
#X msg 28 184 2;
#X obj 14 303 s \$0-radius;
#X obj 202 302 s \$0-line;
#X floatatom 202 280 5 0 0 0 - - -;
#X obj 202 259 i;
#X msg 119 -272 \; theta_start const 0 \; theta_end const 0 \; theta_motion
const 0 \; phi_start const 0 \; phi_end const 0 \; phi_motion const
0 \;;
#X obj 127 -47 table dis_size 100;
#X obj 128 -23 table pos 100;
#X obj 106 107 tgl 30 0 empty empty R 11 15 0 15 -258113 -1 -1 1 1
;
#X obj -34 94 metro 20;
#X obj 7 -70 colorRGB 1 0 0 1;
#X obj 141 107 tgl 30 0 empty empty H 11 15 0 15 -258113 -1 -1 1 1
;
#X obj 169 144 vsl 15 50 10 100 0 0 empty empty empty 0 -9 0 10 -262144
-1 -1 4900 1;
#X obj 141 40 loadbang;
#X msg 141 64 0;
#X obj 7 -34 sphere 0.1 50;
#X text 274 169 1.R=run;
#X text 274 189 2.H=gemhead;
#X obj 106 230 t b f;
#X floatatom 106 209 5 0 0 0 - - -;
#X connect 6 0 49 0;
#X connect 8 0 32 1;
#X connect 8 1 7 1;
#X connect 8 2 9 0;
#X connect 16 0 20 0;
#X connect 16 1 17 0;
#X connect 16 2 18 0;
#X connect 16 3 19 0;
#X connect 17 0 20 1;
#X connect 18 0 20 2;
#X connect 19 0 20 3;
#X connect 20 0 6 0;
#X connect 21 0 22 0;
#X connect 22 0 8 0;
#X connect 26 0 23 0;
#X connect 27 0 24 0;
#X connect 28 0 25 0;
#X connect 29 0 16 0;
#X connect 31 0 58 0;
#X connect 33 0 36 0;
#X connect 35 0 34 0;
#X connect 36 0 35 0;
#X connect 37 0 40 0;
#X connect 38 0 39 0;
#X connect 39 0 37 0;
#X connect 42 0 41 0;
#X connect 43 0 42 0;
#X connect 47 0 48 0;
#X connect 48 0 30 0;
#X connect 49 0 54 0;
#X connect 50 0 30 1;
#X connect 50 0 32 0;
#X connect 50 0 7 0;
#X connect 50 0 29 0;
#X connect 51 0 43 0;
#X connect 52 0 53 0;
#X connect 53 0 50 0;
#X connect 57 0 22 0;
#X connect 57 1 7 2;
#X connect 58 0 57 0;
#X coords 0 -1 1 1 100 100 2 100 100;
