#N canvas 383 221 748 559 10;
#X msg 199 80 0 \, 1 \$1;
#X floatatom 234 333 5 0 0 0 - - -;
#X floatatom 199 35 5 0 0 0 - - -;
#X obj 199 104 line;
#X floatatom 321 385 5 0 0 0 - - -;
#X floatatom 363 385 5 0 0 0 - - -;
#X obj 199 8 inlet;
#X obj 321 360 inlet;
#X obj 363 359 inlet;
#X obj 234 456 outlet;
#X obj 234 429 expr $f1*($f3-$f2)+$f2;
#X obj 103 131 hradio 15 1 0 6 empty empty empty 0 -8 0 10 -262144
-1 -1 0;
#X obj 234 183 spigot;
#X obj 302 187 spigot;
#X obj 377 188 spigot;
#X obj 453 186 spigot;
#X obj 40 52 loadbang;
#X msg 41 78 0;
#X obj 36 21 inlet;
#X obj 234 213 inquart;
#X obj 531 188 spigot;
#X obj 607 186 spigot;
#X obj 102 175 sel 0 1 2 3 4 5;
#X msg 4 213 1 0 0 0 0 0;
#X msg 76 215 0 1 0 0 0 0;
#X msg 95 248 0 0 1 0 0 0;
#X msg 108 272 0 0 0 1 0 0;
#X msg 155 204 0 0 0 0 1 0;
#X msg 168 227 0 0 0 0 0 1;
#X obj 102 322 unpack f f f f f f;
#X floatatom 115 37 5 0 0 0 - - -;
#X obj 115 58 sel 4 5;
#X obj 198 56 - 0;
#X msg 114 82 100;
#X msg 151 82 0;
#X obj 437 458 outlet;
#X obj 377 212 inback;
#X obj 234 361 * 1;
#X obj 453 211 outback;
#X obj 302 212 outquart;
#X obj 531 212 inelastic;
#X obj 607 211 outelastic;
#X connect 0 0 3 0;
#X connect 1 0 37 0;
#X connect 2 0 32 0;
#X connect 3 0 12 0;
#X connect 3 0 13 0;
#X connect 3 0 14 0;
#X connect 3 0 15 0;
#X connect 3 0 20 0;
#X connect 3 0 21 0;
#X connect 3 0 35 0;
#X connect 4 0 10 1;
#X connect 5 0 10 2;
#X connect 6 0 2 0;
#X connect 7 0 4 0;
#X connect 8 0 5 0;
#X connect 10 0 9 0;
#X connect 11 0 22 0;
#X connect 12 0 19 0;
#X connect 13 0 39 0;
#X connect 14 0 36 0;
#X connect 15 0 38 0;
#X connect 16 0 17 0;
#X connect 17 0 11 0;
#X connect 18 0 11 0;
#X connect 18 0 30 0;
#X connect 19 0 1 0;
#X connect 20 0 40 0;
#X connect 21 0 41 0;
#X connect 22 0 23 0;
#X connect 22 1 24 0;
#X connect 22 2 25 0;
#X connect 22 3 26 0;
#X connect 22 4 27 0;
#X connect 22 5 28 0;
#X connect 23 0 29 0;
#X connect 24 0 29 0;
#X connect 25 0 29 0;
#X connect 26 0 29 0;
#X connect 27 0 29 0;
#X connect 28 0 29 0;
#X connect 29 0 12 1;
#X connect 29 1 13 1;
#X connect 29 2 14 1;
#X connect 29 3 15 1;
#X connect 29 4 20 1;
#X connect 29 5 21 1;
#X connect 30 0 31 0;
#X connect 31 0 33 0;
#X connect 31 1 33 0;
#X connect 31 2 34 0;
#X connect 32 0 0 0;
#X connect 33 0 32 1;
#X connect 34 0 32 1;
#X connect 36 0 1 0;
#X connect 37 0 10 0;
#X connect 38 0 1 0;
#X connect 39 0 1 0;
#X connect 40 0 1 0;
#X connect 41 0 1 0;
#X coords 0 -1 1 1 95 50 1 100 100;
