#N canvas 616 407 329 260 10;
#X obj 103 116 cnv 15 144 40 empty empty empty 20 12 0 14 -158451 -66577
0;
#X obj 107 122 tgl 30 0 empty empty H 11 15 0 15 -119110 -262144 -158451
1 1;
#X obj 142 122 tgl 30 0 empty empty A 11 15 0 15 -262144 -1 -1 1 1
;
#N canvas 596 139 738 652 wave==== 0;
#X obj 271 30 gemhead;
#X floatatom 117 32 5 0 0 2 height - -;
#X msg 100 268 draw point;
#X obj 117 -35 loadbang;
#X msg 117 61 height \$1;
#X obj 20 320 loadbang;
#X floatatom 462 -15 5 0 0 0 - - -;
#X obj 271 -37 inlet;
#X obj 271 55 alpha;
#X obj 465 -37 hsl 128 15 0 1 0 0 empty empty empty -2 -8 0 10 -262144
-1 -1 12700 1;
#X obj 462 -107 inlet;
#X obj 462 -61 line;
#X msg 153 -6 0;
#X obj 277 257 rotateXYZ 90 0 0;
#X msg 134 320 draw line;
#X msg 117 293 draw fill;
#X msg 206 216 noise \$1;
#X obj 206 163 inlet;
#X obj 100 196 inlet;
#X obj 100 231 sel 0 1 2;
#X obj 271 82 colorRGB 1 1 1 0;
#X obj 277 338 t a b;
#X obj 20 344 t b b b;
#X msg 462 -84 \$1 30000;
#X obj 277 283 scaleXYZ 40 40 1;
#X obj 277 205 t a b;
#X obj 304 228 f;
#X obj 336 228 + 0.1;
#X obj 376 228 fmod 360;
#X obj 251 454 newWave 250;
#X obj 435 352 t a b;
#X obj 271 136 t a a;
#X obj 397 439 newWave 200;
#X obj 271 168 separator;
#X obj 439 161 separator;
#X obj 439 262 rotateXYZ 90 0 0;
#X obj 439 288 scaleXYZ 40 40 1;
#X obj 439 210 t a b;
#X obj 466 233 f;
#X obj 498 233 + 0.1;
#X obj 538 233 fmod 360;
#X msg 117 -8 0.02;
#X obj 271 108 translateXYZ 0 -10 0;
#X msg 20 373 K1 0.3;
#X obj 206 191 * 7;
#X obj 439 184 translateXYZ 0 18 0;
#X obj 345 32 tgl 15 0 empty empty empty 17 7 0 10 -262144 -1 -1 0
1;
#X msg 320 -16 auto 0;
#X obj 462 14 * 0.5;
#X msg 40 404 D1 0.02;
#X connect 0 0 8 0;
#X connect 1 0 4 0;
#X connect 2 0 29 0;
#X connect 2 0 32 0;
#X connect 3 0 12 0;
#X connect 3 0 41 0;
#X connect 4 0 29 0;
#X connect 4 0 32 0;
#X connect 5 0 22 0;
#X connect 6 0 48 0;
#X connect 7 0 0 0;
#X connect 8 0 20 0;
#X connect 9 0 6 0;
#X connect 10 0 23 0;
#X connect 11 0 9 0;
#X connect 12 0 0 0;
#X connect 13 0 24 0;
#X connect 14 0 29 0;
#X connect 14 0 32 0;
#X connect 15 0 29 0;
#X connect 15 0 32 0;
#X connect 16 0 29 0;
#X connect 16 0 32 0;
#X connect 17 0 44 0;
#X connect 18 0 19 0;
#X connect 19 0 2 0;
#X connect 19 1 14 0;
#X connect 19 2 15 0;
#X connect 20 0 42 0;
#X connect 21 0 29 0;
#X connect 21 1 29 0;
#X connect 22 0 43 0;
#X connect 22 1 49 0;
#X connect 22 2 2 0;
#X connect 23 0 11 0;
#X connect 24 0 21 0;
#X connect 25 0 13 0;
#X connect 25 1 26 0;
#X connect 26 0 27 0;
#X connect 26 0 13 3;
#X connect 27 0 28 0;
#X connect 28 0 26 1;
#X connect 30 0 32 0;
#X connect 30 1 32 0;
#X connect 31 0 33 0;
#X connect 31 1 34 0;
#X connect 33 0 25 0;
#X connect 34 0 45 0;
#X connect 35 0 36 0;
#X connect 36 0 30 0;
#X connect 37 0 35 0;
#X connect 37 1 38 0;
#X connect 38 0 39 0;
#X connect 38 0 35 3;
#X connect 39 0 40 0;
#X connect 40 0 38 1;
#X connect 41 0 1 0;
#X connect 42 0 31 0;
#X connect 43 0 29 0;
#X connect 43 0 32 0;
#X connect 44 0 16 0;
#X connect 45 0 37 0;
#X connect 46 0 8 1;
#X connect 47 0 8 0;
#X connect 48 0 20 4;
#X connect 49 0 29 0;
#X connect 49 0 32 0;
#X restore 99 225 pd wave====;
#X floatatom 58 102 5 0 0 0 - - -;
#X obj 106 48 loadbang;
#X msg 106 70 0;
#X obj 191 225 s effect-tgl;
#X obj 191 178 sel 0;
#X msg 191 202 0;
#X obj 199 137 hradio 15 1 0 3 empty empty empty 0 -8 0 10 -262144
-1 -1 2;
#X obj 58 25 r tomodule_c;
#X msg 189 70 2;
#X obj 234 35 r gogosize;
#X obj 234 62 random 2;
#X connect 1 0 3 2;
#X connect 2 0 3 3;
#X connect 2 0 8 0;
#X connect 4 0 3 1;
#X connect 5 0 6 0;
#X connect 5 0 12 0;
#X connect 6 0 1 0;
#X connect 8 0 9 0;
#X connect 9 0 7 0;
#X connect 10 0 3 0;
#X connect 11 0 4 0;
#X connect 12 0 10 0;
#X connect 13 0 14 0;
#X connect 14 0 10 0;
#X coords 0 -1 1 1 150 60 1 100 100;
