#N canvas 455 69 985 696 10;
#X obj 103 116 cnv 15 144 60 empty empty empty 20 12 0 14 -158451 -66577
0;
#X obj 106 142 tgl 30 0 empty empty D 11 15 0 15 -33892 -262144 -158451
1 1;
#X floatatom 140 121 5 0 0 2 - - -;
#X obj 583 174 pack f f;
#X floatatom 317 147 5 0 0 0 - - -;
#X floatatom 459 140 5 0 0 0 - - -;
#X floatatom 628 148 5 0 0 0 - choice_num -;
#X obj 676 174 pack f f;
#X floatatom 721 148 5 0 0 0 - choice_num -;
#X obj 583 195 s tran_x_route;
#X obj 676 195 s tran_y_route;
#X obj 317 171 pack f f;
#X floatatom 362 143 5 0 0 0 - choice_num -;
#X obj 317 192 s size_x_route;
#X obj 471 173 pack f f;
#X floatatom 516 147 5 0 0 0 - choice_num -;
#X obj 471 194 s size_y_route;
#X obj 330 217 s size_x_drog_route;
#X obj 459 217 s size_y_drog_route;
#X floatatom 583 149 5 0 0 0 - - -;
#X floatatom 676 152 5 0 0 0 - - -;
#X obj 317 90 r sx;
#X obj 459 90 r sy;
#X obj 583 98 r tx;
#X obj 676 96 r ty;
#X obj 553 43 sel 0;
#X obj 2 320 +;
#X obj 2 342 +;
#X obj 2 365 +;
#X obj 2 389 +;
#X obj 2 413 +;
#X obj 2 437 +;
#X obj 2 461 +;
#X obj 2 483 +;
#X obj 2 506 +;
#X floatatom 2 557 5 0 0 0 - - -;
#X obj 2 277 r add-obj;
#X obj 2 300 bng 15 250 50 0 empty empty empty 17 7 0 10 -262144 -1
-1;
#X obj 2 533 +;
#X obj 195 320 +;
#X obj 195 342 +;
#X obj 195 365 +;
#X obj 195 389 +;
#X obj 195 415 +;
#X obj 195 441 +;
#X obj 195 468 +;
#X obj 195 491 +;
#X obj 195 514 +;
#X obj 195 540 +;
#X obj 224 328 +;
#X obj 224 350 +;
#X obj 224 373 +;
#X obj 223 397 +;
#X obj 223 421 +;
#X obj 223 445 +;
#X obj 223 469 +;
#X obj 223 491 +;
#X obj 223 514 +;
#X obj 223 540 +;
#X obj 425 331 +;
#X obj 425 353 +;
#X obj 425 376 +;
#X obj 425 400 +;
#X obj 425 424 +;
#X obj 425 448 +;
#X obj 459 118 v \$0-bsy;
#X obj 317 118 v \$0-bsx;
#X obj 583 122 v \$0-btx;
#X obj 676 122 v \$0-bty;
#X obj 553 65 t b b b b b b;
#X obj 485 390 s gogosize;
#X obj 178 143 bng 30 250 50 0 gospeed empty S 11 15 0 15 -119110 -1
-262144;
#X obj 485 274 *;
#X floatatom 556 332 5 0 0 0 - - -;
#X obj 485 365 sel 1;
#X obj 141 143 tgl 30 0 empty empty A 11 15 0 15 -262144 -1 -1 1 1
;
#X obj 141 248 s module2_alpha;
#X obj 141 227 line;
#X floatatom 80 250 5 0 0 0 - - -;
#X msg 466 439 1;
#X obj 215 143 tgl 30 0 empty empty empty 17 7 0 10 -262144 -1 -1 0
1;
#X floatatom 213 120 5 0 0 0 - - -;
#X obj 213 56 loadbang;
#X obj 257 149 s timeme;
#X obj 499 417 s gem-ra-color;
#X msg 141 207 \$1 15000;
#X msg 522 308 1;
#N canvas 684 203 503 535 udpsend=============== 0;
#X obj 83 -194 b-s 0;
#X obj 140 106 s toudp;
#X obj 25 75 packOSC;
#X obj 101 74 packOSC;
#X obj 205 72 packOSC;
#X obj 281 71 packOSC;
#X obj 83 -170 b-s 1;
#X obj 83 -148 b-s 2;
#X obj 83 -125 b-s 3;
#X obj 83 -103 b-s 4;
#X obj 83 -81 b-s 5;
#X obj 83 -59 b-s 6;
#X obj 83 -36 b-s 7;
#X obj 82 -15 b-s 8;
#X obj 83 8 b-s 9;
#X obj 159 -195 b-s 10;
#X obj 159 -171 b-s 11;
#X obj 159 -149 b-s 12;
#X obj 159 -126 b-s 13;
#X obj 159 -104 b-s 14;
#X obj 159 -82 b-s 15;
#X obj 159 -60 b-s 16;
#X obj 159 -37 b-s 17;
#X obj 158 -16 b-s 18;
#X obj 159 7 b-s 19;
#X obj 263 -197 b-s 20;
#X obj 263 -173 b-s 21;
#X obj 263 -151 b-s 22;
#X obj 263 -128 b-s 23;
#X obj 263 -106 b-s 24;
#X obj 263 -84 b-s 25;
#X obj 263 -62 b-s 26;
#X obj 263 -39 b-s 27;
#X obj 262 -18 b-s 28;
#X obj 263 5 b-s 29;
#X obj 339 -198 b-s 30;
#X obj 339 -174 b-s 31;
#X obj 339 -152 b-s 32;
#X obj 339 -129 b-s 33;
#X obj 339 -107 b-s 34;
#X obj 339 -85 b-s 35;
#X obj 339 -63 b-s 36;
#X obj 339 -40 b-s 37;
#X obj 338 -19 b-s 38;
#X obj 339 4 b-s 39;
#X obj 75 202 packOSC;
#X obj 75 225 s toudp;
#X msg 75 170 send /a2 /allvol \$1;
#X msg 197 141 send /a2 /noise \$1;
#X msg 139 276 send /a2 /bomb \$1;
#X msg 139 226 send /a2 /time \$1;
#X obj 75 144 r a2-allvol;
#X obj 197 121 r a2-noise;
#X obj 139 255 r a2-bomb;
#X obj 139 203 r timeme;
#X connect 0 0 2 0;
#X connect 2 0 1 0;
#X connect 3 0 1 0;
#X connect 4 0 1 0;
#X connect 5 0 1 0;
#X connect 6 0 2 0;
#X connect 7 0 2 0;
#X connect 8 0 2 0;
#X connect 9 0 2 0;
#X connect 10 0 2 0;
#X connect 11 0 2 0;
#X connect 12 0 2 0;
#X connect 13 0 2 0;
#X connect 14 0 2 0;
#X connect 15 0 3 0;
#X connect 16 0 3 0;
#X connect 17 0 3 0;
#X connect 18 0 3 0;
#X connect 19 0 3 0;
#X connect 20 0 3 0;
#X connect 21 0 3 0;
#X connect 22 0 3 0;
#X connect 23 0 3 0;
#X connect 24 0 3 0;
#X connect 25 0 4 0;
#X connect 26 0 4 0;
#X connect 27 0 4 0;
#X connect 28 0 4 0;
#X connect 29 0 4 0;
#X connect 30 0 4 0;
#X connect 31 0 4 0;
#X connect 32 0 4 0;
#X connect 33 0 4 0;
#X connect 34 0 4 0;
#X connect 35 0 5 0;
#X connect 36 0 5 0;
#X connect 37 0 5 0;
#X connect 38 0 5 0;
#X connect 39 0 5 0;
#X connect 40 0 5 0;
#X connect 41 0 5 0;
#X connect 42 0 5 0;
#X connect 43 0 5 0;
#X connect 44 0 5 0;
#X connect 45 0 46 0;
#X connect 47 0 45 0;
#X connect 48 0 45 0;
#X connect 49 0 45 0;
#X connect 50 0 45 0;
#X connect 51 0 47 0;
#X connect 52 0 48 0;
#X connect 53 0 49 0;
#X connect 54 0 50 0;
#X restore 2 586 pd udpsend===============;
#X floatatom 485 311 5 0 0 0 - - -;
#X obj 556 251 r bombbig;
#X obj 215 219 s bombbig;
#X obj 215 188 metro 2000;
#X text -13 147 key c reset speed;
#X msg 213 77 1500;
#X text -13 163 key v boom;
#X obj 556 353 s tomodule_c;
#X obj 553 3 r s-m;
#X obj 553 24 tgl 15 0 empty empty empty 17 7 0 10 -262144 -1 -1 0
1;
#X text 176 120 speed;
#X text 108 120 num;
#X obj 80 275 s a2-allvol;
#X floatatom 367 497 5 0 0 0 - - -;
#X obj 367 521 s a2-noise;
#X obj 466 465 s a2-bomb;
#X text -13 129 key z reset all;
#X obj 106 187 s module_b_drag;
#N canvas 511 201 526 572 module_b 0;
#X obj 65 355 f;
#X obj 98 355 + 1;
#X msg 80 327 0;
#X obj 133 355 % 40;
#X obj 80 301 sel 1;
#X obj 42 432 pack f f;
#X floatatom 87 406 5 0 0 0 - choice_num -;
#X obj 42 453 s switch;
#X obj 42 327 sel 1;
#X floatatom 65 382 5 0 0 0 - - choice_num;
#X obj 183 155 spigot;
#X obj 183 106 gemkeyboard;
#X floatatom 183 131 5 0 0 0 - - -;
#X msg 183 206 1;
#X obj -4 260 spigot;
#X obj -19 402 s gem-bgcolor;
#X obj -4 314 s s-m;
#X obj -4 287 tgl 15 0 empty empty empty 17 7 0 10 -262144 -1 -1 0
1;
#X obj -4 238 tgl 15 0 empty empty empty 17 7 0 10 -262144 -1 -1 0
1;
#X obj -4 209 r mouseleft;
#X obj 29 231 r module_b_drag;
#X obj 200 230 s bombbig;
#X obj 183 293 s split_stop;
#X obj 183 271 tgl 15 0 empty empty empty 17 7 0 10 -262144 -1 -1 0
1;
#X obj 28 108 sel 1;
#X obj 28 154 s data-info;
#X msg 28 129 1;
#X obj -7 176 s gem-drop;
#X obj 28 83 r module_b_drag;
#X msg 275 227 0;
#X obj 275 255 s forceh;
#X obj 339 256 s forcew;
#X obj 183 180 sel 6 9 8;
#X connect 0 0 1 0;
#X connect 0 0 9 0;
#X connect 1 0 3 0;
#X connect 2 0 0 1;
#X connect 2 0 15 0;
#X connect 3 0 0 1;
#X connect 4 0 2 0;
#X connect 5 0 7 0;
#X connect 6 0 5 1;
#X connect 8 0 0 0;
#X connect 10 0 32 0;
#X connect 11 0 12 0;
#X connect 12 0 10 0;
#X connect 13 0 4 0;
#X connect 13 0 23 0;
#X connect 14 0 17 0;
#X connect 17 0 16 0;
#X connect 17 0 8 0;
#X connect 17 0 5 0;
#X connect 18 0 14 0;
#X connect 19 0 18 0;
#X connect 20 0 14 1;
#X connect 23 0 22 0;
#X connect 24 0 26 0;
#X connect 26 0 25 0;
#X connect 26 0 27 0;
#X connect 28 0 24 0;
#X connect 28 0 10 1;
#X connect 29 0 31 0;
#X connect 29 0 30 0;
#X connect 32 0 13 0;
#X connect 32 1 21 0;
#X connect 32 2 29 0;
#X restore -12 188 pd module_b meta;
#X obj 140 73 r a2-noise;
#X obj 485 341 > 10;
#N canvas 322 42 1100 679 read 0;
#X obj 708 221 moocow/any2wchars;
#X floatatom 731 276 5 0 0 0 - - -;
#X floatatom 818 279 5 0 0 0 - - -;
#X floatatom 866 276 5 0 0 0 - - -;
#X floatatom 953 273 5 0 0 0 - - -;
#X obj 731 332 expr $f1*16+$f2;
#X obj 866 329 expr $f1*16+$f2;
#X obj 731 390 expr $f1*256+$f2;
#X floatatom 731 417 5 0 0 0 - - -;
#X floatatom 731 362 5 0 0 0 - - -;
#X floatatom 866 352 5 0 0 0 - - -;
#X obj 708 243 unpack 0 0 0 0 0;
#X obj 337 132 prepent set;
#X msg 337 191 u 5 9 7 3 u 6 7 d 0;
#X obj 337 112 sfruit/symbol-s2l;
#X obj 337 151 t b a;
#X obj 362 294 f 0;
#X symbolatom 771 140 10 0 0 0 - - -;
#X msg 771 116 symbol;
#X obj 708 169 list2symbol;
#X obj 708 193 s2l;
#X obj 771 92 loadbang;
#X obj 336 271 t a b;
#X obj 390 293 + 1;
#X obj 313 324 + 1;
#X obj 395 338 f 0;
#X obj 369 315 t a b;
#X msg 427 262 0;
#X obj 423 337 + 1;
#X obj 395 369 + 1;
#X floatatom 313 348 5 0 0 0 - - -;
#X floatatom 395 391 5 0 0 0 - - -;
#N canvas 286 121 951 501 string 0;
#X obj 59 126 repeat 7;
#X obj 59 157 f 0;
#X obj 89 157 + 1;
#X msg 157 85 set string;
#X msg 99 235 adddollar 1;
#X msg 116 125 1;
#X obj 102 47 t f b b b f;
#X msg 114 264 adddollar 2;
#X msg 126 289 adddollar 3;
#X msg 141 318 adddollar 4;
#X msg 188 231 adddollar 5;
#X msg 203 260 adddollar 6;
#X msg 215 285 adddollar 7;
#X msg 230 314 adddollar 8;
#X msg 275 230 adddollar 9;
#X msg 292 262 adddollar 10;
#X obj 101 15 inlet;
#X obj 532 415 outlet;
#X msg 366 226 adddollar 11;
#X msg 381 255 adddollar 12;
#X msg 393 279 adddollar 13;
#X msg 408 309 adddollar 14;
#X msg 453 225 adddollar 15;
#X msg 470 257 adddollar 16;
#X obj 217 119 sel 1 2 3 4 5 6 7 8 9 10 11 12 13 14 15 16 17 18 19
20 21 22 23 24 25;
#X msg 559 225 adddollar 17;
#X msg 574 254 adddollar 18;
#X msg 586 278 adddollar 19;
#X msg 601 308 adddollar 20;
#X msg 646 224 adddollar 21;
#X msg 663 256 adddollar 22;
#X msg 686 283 adddollar 23;
#X msg 701 313 adddollar 24;
#X msg 739 224 adddollar 25;
#X connect 0 0 1 0;
#X connect 1 0 2 0;
#X connect 1 0 24 0;
#X connect 2 0 1 1;
#X connect 3 0 17 0;
#X connect 4 0 17 0;
#X connect 5 0 1 1;
#X connect 6 1 0 0;
#X connect 6 2 5 0;
#X connect 6 3 3 0;
#X connect 6 4 0 1;
#X connect 7 0 17 0;
#X connect 8 0 17 0;
#X connect 9 0 17 0;
#X connect 10 0 17 0;
#X connect 11 0 17 0;
#X connect 12 0 17 0;
#X connect 13 0 17 0;
#X connect 14 0 17 0;
#X connect 15 0 17 0;
#X connect 16 0 6 0;
#X connect 18 0 17 0;
#X connect 19 0 17 0;
#X connect 20 0 17 0;
#X connect 21 0 17 0;
#X connect 22 0 17 0;
#X connect 23 0 17 0;
#X connect 24 0 4 0;
#X connect 24 1 7 0;
#X connect 24 2 8 0;
#X connect 24 3 9 0;
#X connect 24 4 10 0;
#X connect 24 5 11 0;
#X connect 24 6 12 0;
#X connect 24 7 13 0;
#X connect 24 8 14 0;
#X connect 24 9 15 0;
#X connect 24 10 18 0;
#X connect 24 11 19 0;
#X connect 24 12 20 0;
#X connect 24 13 21 0;
#X connect 24 14 22 0;
#X connect 24 15 23 0;
#X connect 24 16 25 0;
#X connect 24 17 26 0;
#X connect 24 18 27 0;
#X connect 24 19 28 0;
#X connect 24 20 29 0;
#X connect 24 21 30 0;
#X connect 24 22 31 0;
#X connect 24 23 32 0;
#X connect 24 24 33 0;
#X connect 25 0 17 0;
#X connect 26 0 17 0;
#X connect 27 0 17 0;
#X connect 28 0 17 0;
#X connect 29 0 17 0;
#X connect 30 0 17 0;
#X connect 31 0 17 0;
#X connect 32 0 17 0;
#X connect 33 0 17 0;
#X restore 506 523 pd string;
#X obj 380 416 sel;
#X msg 506 549 string \$1 \$2;
#X obj 337 227 t a a b b b;
#X obj 518 119 loadbang;
#X msg 518 140 5;
#X obj 337 248 repack 5;
#X obj 418 293 repack 5;
#X obj 337 -38 r word;
#X obj 337 33 t a b;
#X obj 394 57 + 1;
#X obj 364 57 f 0;
#X floatatom 394 82 5 0 0 0 - - -;
#X msg 382 19 0;
#X obj 434 83 s section-index;
#X obj 593 310 r section-index;
#X obj 382 -2 r \$0-reset;
#X obj 801 518 + 1;
#X obj 771 518 f 0;
#X floatatom 771 544 5 0 0 0 - - -;
#X obj 731 438 t a a b;
#X msg 831 492 0;
#X obj 831 460 r \$0-reset;
#N canvas 265 153 689 609 read 0;
#X obj 113 58 + 1;
#X floatatom 164 109 5 0 0 0 - - -;
#X obj 131 136 repeat;
#X obj 131 191 f;
#X obj 160 192 + 1;
#X msg 148 160 0;
#X obj 202 275 v \$0-total;
#X obj 202 308 +;
#X obj 202 359 v \$0-total;
#X obj 203 252 t b f;
#X msg 207 107 0;
#X obj 207 133 v \$0-total;
#X obj 38 313 expr $f2-$f1;
#X floatatom 38 338 5 0 0 0 - - -;
#X floatatom 202 333 5 0 0 0 - - -;
#X floatatom 38 265 5 0 0 0 - - -;
#X obj -46 340 outlet;
#X obj 74 366 repeat;
#X obj 38 285 t f b f f;
#X obj 37 414 f;
#X obj 68 416 + 1;
#X obj -26 525 list append;
#X obj 106 473 t l;
#X obj 37 499 list prepend;
#X obj 218 84 s \$0-charreset;
#X obj 133 474 r \$0-charreset;
#X obj -26 561 outlet;
#X obj 113 83 t b f b f b b b;
#X obj 113 23 inlet;
#X obj 37 451 tabread moduleb-char;
#X obj 203 225 tabread moduleb-section;
#X obj 38 242 tabread moduleb-section;
#X connect 0 0 27 0;
#X connect 1 0 2 1;
#X connect 2 0 3 0;
#X connect 3 0 4 0;
#X connect 4 0 3 1;
#X connect 4 0 30 0;
#X connect 5 0 3 1;
#X connect 6 0 7 0;
#X connect 7 0 12 1;
#X connect 7 0 14 0;
#X connect 9 0 6 0;
#X connect 9 1 7 1;
#X connect 10 0 11 0;
#X connect 12 0 13 0;
#X connect 13 0 19 1;
#X connect 14 0 8 0;
#X connect 15 0 18 0;
#X connect 17 0 19 0;
#X connect 18 0 16 0;
#X connect 18 1 17 0;
#X connect 18 2 12 0;
#X connect 18 3 17 1;
#X connect 19 0 20 0;
#X connect 19 0 29 0;
#X connect 20 0 19 1;
#X connect 21 0 26 0;
#X connect 22 0 23 1;
#X connect 23 0 22 0;
#X connect 23 0 21 1;
#X connect 25 0 23 1;
#X connect 27 0 21 0;
#X connect 27 1 31 0;
#X connect 27 2 2 0;
#X connect 27 3 1 0;
#X connect 27 4 5 0;
#X connect 27 5 10 0;
#X connect 27 6 24 0;
#X connect 28 0 0 0;
#X connect 29 0 23 0;
#X connect 30 0 9 0;
#X connect 31 0 15 0;
#X restore 520 460 pd read;
#X floatatom 520 426 5 0 20 0 - - -;
#X obj 523 375 hsl 100 15 0 39 0 0 empty empty sub 5 8 0 10 -262144
-1 -1 0 1;
#X obj 520 399 int;
#N canvas 0 22 620 360 itoa 0;
#X obj 35 28 inlet;
#X msg -18 141 1;
#X msg 26 126 2;
#X msg 68 131 3;
#X msg 105 129 4;
#X msg 146 144 5;
#X msg 175 107 6;
#X msg 211 108 7;
#X msg 245 108 8;
#X msg 280 106 9;
#X msg 312 108 10;
#X msg 346 108 11;
#X msg 381 106 12;
#X msg 413 109 13;
#X msg 445 107 14;
#X msg 500 110 15;
#X msg -28 108 0;
#X obj 230 259 outlet;
#X obj 32 65 select 48 49 50 51 52 53 54 55 56 57 97 98 99 100 101
102;
#X connect 0 0 18 0;
#X connect 1 0 17 0;
#X connect 2 0 17 0;
#X connect 3 0 17 0;
#X connect 4 0 17 0;
#X connect 5 0 17 0;
#X connect 6 0 17 0;
#X connect 7 0 17 0;
#X connect 8 0 17 0;
#X connect 9 0 17 0;
#X connect 10 0 17 0;
#X connect 11 0 17 0;
#X connect 12 0 17 0;
#X connect 13 0 17 0;
#X connect 14 0 17 0;
#X connect 15 0 17 0;
#X connect 16 0 17 0;
#X connect 18 0 16 0;
#X connect 18 1 1 0;
#X connect 18 2 2 0;
#X connect 18 3 3 0;
#X connect 18 4 4 0;
#X connect 18 5 5 0;
#X connect 18 6 6 0;
#X connect 18 7 7 0;
#X connect 18 8 8 0;
#X connect 18 9 9 0;
#X connect 18 10 10 0;
#X connect 18 11 11 0;
#X connect 18 12 12 0;
#X connect 18 13 13 0;
#X connect 18 14 14 0;
#X connect 18 15 15 0;
#X restore 731 301 pd itoa;
#N canvas 0 22 620 360 itoa 0;
#X obj 35 28 inlet;
#X msg -18 141 1;
#X msg 26 126 2;
#X msg 68 131 3;
#X msg 105 129 4;
#X msg 146 144 5;
#X msg 175 107 6;
#X msg 211 108 7;
#X msg 245 108 8;
#X msg 280 106 9;
#X msg 312 108 10;
#X msg 346 108 11;
#X msg 381 106 12;
#X msg 413 109 13;
#X msg 445 107 14;
#X msg 500 110 15;
#X msg -28 108 0;
#X obj 230 259 outlet;
#X obj 32 65 select 48 49 50 51 52 53 54 55 56 57 97 98 99 100 101
102;
#X connect 0 0 18 0;
#X connect 1 0 17 0;
#X connect 2 0 17 0;
#X connect 3 0 17 0;
#X connect 4 0 17 0;
#X connect 5 0 17 0;
#X connect 6 0 17 0;
#X connect 7 0 17 0;
#X connect 8 0 17 0;
#X connect 9 0 17 0;
#X connect 10 0 17 0;
#X connect 11 0 17 0;
#X connect 12 0 17 0;
#X connect 13 0 17 0;
#X connect 14 0 17 0;
#X connect 15 0 17 0;
#X connect 16 0 17 0;
#X connect 18 0 16 0;
#X connect 18 1 1 0;
#X connect 18 2 2 0;
#X connect 18 3 3 0;
#X connect 18 4 4 0;
#X connect 18 5 5 0;
#X connect 18 6 6 0;
#X connect 18 7 7 0;
#X connect 18 8 8 0;
#X connect 18 9 9 0;
#X connect 18 10 10 0;
#X connect 18 11 11 0;
#X connect 18 12 12 0;
#X connect 18 13 13 0;
#X connect 18 14 14 0;
#X connect 18 15 15 0;
#X restore 816 302 pd itoa;
#N canvas 0 22 620 360 itoa 0;
#X obj 35 28 inlet;
#X msg -18 141 1;
#X msg 26 126 2;
#X msg 68 131 3;
#X msg 105 129 4;
#X msg 146 144 5;
#X msg 175 107 6;
#X msg 211 108 7;
#X msg 245 108 8;
#X msg 280 106 9;
#X msg 312 108 10;
#X msg 346 108 11;
#X msg 381 106 12;
#X msg 413 109 13;
#X msg 445 107 14;
#X msg 500 110 15;
#X msg -28 108 0;
#X obj 230 259 outlet;
#X obj 32 65 select 48 49 50 51 52 53 54 55 56 57 97 98 99 100 101
102;
#X connect 0 0 18 0;
#X connect 1 0 17 0;
#X connect 2 0 17 0;
#X connect 3 0 17 0;
#X connect 4 0 17 0;
#X connect 5 0 17 0;
#X connect 6 0 17 0;
#X connect 7 0 17 0;
#X connect 8 0 17 0;
#X connect 9 0 17 0;
#X connect 10 0 17 0;
#X connect 11 0 17 0;
#X connect 12 0 17 0;
#X connect 13 0 17 0;
#X connect 14 0 17 0;
#X connect 15 0 17 0;
#X connect 16 0 17 0;
#X connect 18 0 16 0;
#X connect 18 1 1 0;
#X connect 18 2 2 0;
#X connect 18 3 3 0;
#X connect 18 4 4 0;
#X connect 18 5 5 0;
#X connect 18 6 6 0;
#X connect 18 7 7 0;
#X connect 18 8 8 0;
#X connect 18 9 9 0;
#X connect 18 10 10 0;
#X connect 18 11 11 0;
#X connect 18 12 12 0;
#X connect 18 13 13 0;
#X connect 18 14 14 0;
#X connect 18 15 15 0;
#X restore 870 300 pd itoa;
#N canvas 0 22 620 360 itoa 0;
#X obj 35 28 inlet;
#X msg -18 141 1;
#X msg 26 126 2;
#X msg 68 131 3;
#X msg 105 129 4;
#X msg 146 144 5;
#X msg 175 107 6;
#X msg 211 108 7;
#X msg 245 108 8;
#X msg 280 106 9;
#X msg 312 108 10;
#X msg 346 108 11;
#X msg 381 106 12;
#X msg 413 109 13;
#X msg 445 107 14;
#X msg 500 110 15;
#X msg -28 108 0;
#X obj 230 259 outlet;
#X obj 32 65 select 48 49 50 51 52 53 54 55 56 57 97 98 99 100 101
102;
#X connect 0 0 18 0;
#X connect 1 0 17 0;
#X connect 2 0 17 0;
#X connect 3 0 17 0;
#X connect 4 0 17 0;
#X connect 5 0 17 0;
#X connect 6 0 17 0;
#X connect 7 0 17 0;
#X connect 8 0 17 0;
#X connect 9 0 17 0;
#X connect 10 0 17 0;
#X connect 11 0 17 0;
#X connect 12 0 17 0;
#X connect 13 0 17 0;
#X connect 14 0 17 0;
#X connect 15 0 17 0;
#X connect 16 0 17 0;
#X connect 18 0 16 0;
#X connect 18 1 1 0;
#X connect 18 2 2 0;
#X connect 18 3 3 0;
#X connect 18 4 4 0;
#X connect 18 5 5 0;
#X connect 18 6 6 0;
#X connect 18 7 7 0;
#X connect 18 8 8 0;
#X connect 18 9 9 0;
#X connect 18 10 10 0;
#X connect 18 11 11 0;
#X connect 18 12 12 0;
#X connect 18 13 13 0;
#X connect 18 14 14 0;
#X connect 18 15 15 0;
#X restore 955 301 pd itoa;
#X obj 570 487 PRINT;
#X obj 337 -2 spigot;
#X obj 380 -38 r module_b_drag;
#X obj 700 583 tabwrite moduleb-char;
#X obj 418 488 gemhead;
#X obj 427 576 text3d;
#X msg 310 527 font Medium.ttc;
#X obj 310 506 loadbang;
#X obj 452 336 tabwrite moduleb-section;
#X msg 455 526 10;
#X connect 0 0 11 0;
#X connect 1 0 59 0;
#X connect 2 0 60 0;
#X connect 3 0 61 0;
#X connect 4 0 62 0;
#X connect 5 0 9 0;
#X connect 6 0 10 0;
#X connect 7 0 8 0;
#X connect 8 0 52 0;
#X connect 9 0 7 0;
#X connect 10 0 7 1;
#X connect 11 1 1 0;
#X connect 11 2 2 0;
#X connect 11 3 3 0;
#X connect 11 4 4 0;
#X connect 12 0 15 0;
#X connect 13 0 35 0;
#X connect 14 0 12 0;
#X connect 15 0 13 0;
#X connect 15 1 13 0;
#X connect 16 0 23 0;
#X connect 16 0 24 0;
#X connect 17 0 19 1;
#X connect 18 0 17 0;
#X connect 19 0 20 0;
#X connect 20 0 0 0;
#X connect 21 0 18 0;
#X connect 22 0 19 0;
#X connect 22 1 16 0;
#X connect 23 0 16 1;
#X connect 24 0 30 0;
#X connect 25 0 28 0;
#X connect 25 0 29 0;
#X connect 26 1 25 0;
#X connect 27 0 25 1;
#X connect 27 0 16 1;
#X connect 28 0 25 1;
#X connect 29 0 31 0;
#X connect 30 0 33 0;
#X connect 31 0 33 1;
#X connect 31 0 55 0;
#X connect 31 0 71 0;
#X connect 32 0 34 0;
#X connect 34 0 68 0;
#X connect 35 0 38 0;
#X connect 35 1 39 0;
#X connect 35 2 27 0;
#X connect 36 0 37 0;
#X connect 37 0 38 1;
#X connect 37 0 39 1;
#X connect 38 0 22 0;
#X connect 39 0 26 0;
#X connect 40 0 64 0;
#X connect 41 0 14 0;
#X connect 41 1 43 0;
#X connect 42 0 43 1;
#X connect 42 0 44 0;
#X connect 43 0 42 0;
#X connect 44 0 46 0;
#X connect 45 0 43 1;
#X connect 47 0 71 1;
#X connect 48 0 45 0;
#X connect 49 0 50 1;
#X connect 50 0 49 0;
#X connect 50 0 51 0;
#X connect 51 0 66 1;
#X connect 52 1 66 0;
#X connect 52 2 50 0;
#X connect 53 0 50 1;
#X connect 54 0 53 0;
#X connect 55 0 32 0;
#X connect 55 1 34 0;
#X connect 55 1 63 0;
#X connect 56 0 55 0;
#X connect 57 0 58 0;
#X connect 58 0 56 0;
#X connect 59 0 5 0;
#X connect 60 0 5 1;
#X connect 61 0 6 0;
#X connect 62 0 6 1;
#X connect 64 0 41 0;
#X connect 65 0 64 1;
#X connect 69 0 68 0;
#X connect 70 0 69 0;
#X connect 72 0 68 1;
#X restore 654 285 pd read word;
#X obj 517 666 qlist;
#X obj 555 613 s \$0-reset;
#X obj 536 588 t b b b;
#X obj 536 452 r module_b_drag;
#X obj 536 477 sel 1;
#X text 652 517 0 1 1 23 39 78 79;
#N canvas 0 22 450 300 (subpatch) 0;
#X array moduleb-section 100 float 3;
#A 0 0 2 2 2 2 2 2 2 2 2 2 2 2 2 2 2 2 2 2 2 2 2 2 2 2 2 2 2 2 2 2
2 2 2 2 2 2 2 2 2 2 0 0 0 0 0 0 0 0 0 0 0 0 0 0 0 0 0 0 0 0 0 0 0 0
0 0 0 0 0 0 0 0 0 0 0 0 0 0 0 0 0 0 0 0 0 0 0 0 0 0 0 0 0 0 0 0 0 0
0;
#X coords 0 0 100 2 100 50 1;
#X restore 702 353 graph;
#N canvas 0 22 450 300 (subpatch) 0;
#X array moduleb-char 160 float 3;
#A 0 26085 26376 22899 23376 19978 19979 29579 20803 21475 20062 31992
23663 35328 24335 28779 26604 31992 25991 31992 19988 26408 22303 31166
21576 36208 21484 26408 20806 39135 31649 35328 20045 36523 23544 26463
36000 39340 25153 31992 27663 21475 21450 22823 38263 26085 23546 22827
35211 33400 22767 32819 24515 22833 21475 21475 20045 22235 32173 35199
22899 23665 23665 20140 23588 22303 20063 31166 26007 25163 25903 26408
30446 30333 21242 19981 21475 31166 22899 22899 26576 0 0 0 0 0 0 0
0 0 0 0 0 0 0 0 0 0 0 0 0 0 0 0 0 0 0 0 0 0 0 0 0 0 0 0 0 0 0 0 0 0
0 0 0 0 0 0 0 0 0 0 0 0 0 0 0 0 0 0 0 0 0 0 0 0 0 0 0 0 0 0 0 0 0 0
0 0 0 0 0;
#X coords 0 0 160 99999 100 50 1;
#X restore 700 436 graph;
#X msg 677 583 \; moduleb-section const 0 \; moduleb-char const 0 \;
;
#X obj 536 554 t b b;
#X obj 536 526 bng 15 250 50 0 empty empty READ 20 5 0 10 -262144 -1
-1;
#X obj 536 502 del 100;
#X obj 32 320 spilt_obj 0;
#X obj 286 33 tgl 15 0 empty empty TEXT-TGL 17 7 0 10 -262144 -1 -1
1 1;
#X obj 286 57 s text-tgl;
#X msg 537 635 read two.txt;
#X obj 556 280 random 10;
#X obj 556 304 + 5;
#X obj 112 319 spilt_obj 10;
#X obj 33 346 spilt_obj 1;
#X obj 34 370 spilt_obj 2;
#X obj 34 393 spilt_obj 3;
#X obj 34 419 spilt_obj 4;
#X obj 35 445 spilt_obj 5;
#X obj 34 490 spilt_obj 7;
#X obj 34 513 spilt_obj 8;
#X obj 34 539 spilt_obj 9;
#X obj 111 342 spilt_obj 11;
#X obj 112 366 spilt_obj 12;
#X obj 112 389 spilt_obj 13;
#X obj 112 415 spilt_obj 14;
#X obj 113 441 spilt_obj 15;
#X obj 111 469 spilt_obj 16;
#X obj 112 492 spilt_obj 17;
#X obj 112 514 spilt_obj 18;
#X obj 112 540 spilt_obj 19;
#X obj 254 321 spilt_obj 20;
#X obj 253 347 spilt_obj 21;
#X obj 254 373 spilt_obj 22;
#X obj 254 394 spilt_obj 23;
#X obj 254 420 spilt_obj 24;
#X obj 253 444 spilt_obj 25;
#X obj 253 470 spilt_obj 26;
#X obj 254 492 spilt_obj 27;
#X obj 254 515 spilt_obj 28;
#X obj 254 541 spilt_obj 29;
#X obj 335 324 spilt_obj 30;
#X obj 334 346 spilt_obj 31;
#X obj 335 370 spilt_obj 32;
#X obj 335 393 spilt_obj 33;
#X obj 335 419 spilt_obj 34;
#X obj 335 441 spilt_obj 35;
#X obj 35 467 spilt_obj 6;
#X connect 1 0 105 0;
#X connect 3 0 9 0;
#X connect 4 0 11 0;
#X connect 4 0 72 0;
#X connect 5 0 14 0;
#X connect 5 0 18 0;
#X connect 5 0 72 1;
#X connect 6 0 3 1;
#X connect 7 0 10 0;
#X connect 8 0 7 1;
#X connect 11 0 13 0;
#X connect 11 0 17 0;
#X connect 12 0 11 1;
#X connect 14 0 16 0;
#X connect 15 0 14 1;
#X connect 19 0 3 0;
#X connect 20 0 7 0;
#X connect 21 0 66 0;
#X connect 22 0 65 0;
#X connect 23 0 67 0;
#X connect 24 0 68 0;
#X connect 25 0 69 0;
#X connect 26 0 27 0;
#X connect 27 0 28 0;
#X connect 28 0 29 0;
#X connect 29 0 30 0;
#X connect 30 0 31 0;
#X connect 31 0 32 0;
#X connect 32 0 33 0;
#X connect 33 0 34 0;
#X connect 34 0 38 0;
#X connect 35 0 39 0;
#X connect 36 0 37 0;
#X connect 37 0 26 0;
#X connect 38 0 35 0;
#X connect 39 0 40 0;
#X connect 40 0 41 0;
#X connect 41 0 42 0;
#X connect 42 0 43 0;
#X connect 43 0 44 0;
#X connect 44 0 45 0;
#X connect 45 0 46 0;
#X connect 46 0 47 0;
#X connect 47 0 48 0;
#X connect 48 0 49 0;
#X connect 49 0 50 0;
#X connect 50 0 51 0;
#X connect 51 0 52 0;
#X connect 52 0 53 0;
#X connect 53 0 54 0;
#X connect 54 0 55 0;
#X connect 55 0 56 0;
#X connect 56 0 57 0;
#X connect 57 0 58 0;
#X connect 58 0 59 0;
#X connect 59 0 60 0;
#X connect 60 0 61 0;
#X connect 61 0 62 0;
#X connect 62 0 63 0;
#X connect 63 0 64 0;
#X connect 64 0 101 0;
#X connect 65 0 5 0;
#X connect 66 0 4 0;
#X connect 67 0 19 0;
#X connect 68 0 20 0;
#X connect 69 0 66 0;
#X connect 69 1 65 0;
#X connect 69 2 67 0;
#X connect 69 3 68 0;
#X connect 72 0 73 0;
#X connect 72 0 88 0;
#X connect 73 0 95 0;
#X connect 74 0 70 0;
#X connect 74 0 79 0;
#X connect 75 0 85 0;
#X connect 75 0 78 0;
#X connect 75 0 123 0;
#X connect 77 0 76 0;
#X connect 78 0 100 0;
#X connect 79 0 103 0;
#X connect 80 0 91 0;
#X connect 81 0 83 0;
#X connect 81 0 91 1;
#X connect 82 0 93 0;
#X connect 85 0 77 0;
#X connect 86 0 74 0;
#X connect 88 0 108 0;
#X connect 89 0 86 0;
#X connect 89 0 126 0;
#X connect 91 0 90 0;
#X connect 93 0 81 0;
#X connect 96 0 97 0;
#X connect 97 0 25 0;
#X connect 101 0 102 0;
#X connect 107 0 2 0;
#X connect 108 0 74 0;
#X connect 112 0 110 0;
#X connect 112 1 111 0;
#X connect 112 2 125 0;
#X connect 113 0 114 0;
#X connect 114 0 121 0;
#X connect 119 0 112 0;
#X connect 119 1 118 0;
#X connect 120 0 119 0;
#X connect 121 0 120 0;
#X connect 122 0 26 1;
#X connect 123 0 124 0;
#X connect 125 0 110 0;
#X connect 126 0 127 0;
#X connect 127 0 73 0;
#X connect 128 0 39 1;
#X connect 129 0 27 1;
#X connect 130 0 28 1;
#X connect 131 0 29 1;
#X connect 132 0 30 1;
#X connect 133 0 31 1;
#X connect 134 0 33 1;
#X connect 135 0 34 1;
#X connect 136 0 38 1;
#X connect 137 0 40 1;
#X connect 138 0 41 1;
#X connect 139 0 42 1;
#X connect 140 0 43 1;
#X connect 141 0 44 1;
#X connect 142 0 45 1;
#X connect 143 0 46 1;
#X connect 144 0 47 1;
#X connect 145 0 48 1;
#X connect 146 0 49 1;
#X connect 147 0 50 1;
#X connect 148 0 51 1;
#X connect 149 0 52 1;
#X connect 150 0 53 1;
#X connect 151 0 54 1;
#X connect 152 0 55 1;
#X connect 153 0 56 1;
#X connect 154 0 57 1;
#X connect 155 0 58 1;
#X connect 156 0 59 1;
#X connect 157 0 60 1;
#X connect 158 0 61 1;
#X connect 159 0 62 1;
#X connect 160 0 63 1;
#X connect 161 0 64 1;
#X connect 162 0 32 1;
#X coords 0 -1 1 1 150 80 1 100 100;
