#N canvas 263 166 727 619 10;
#X obj -181 182 spigot;
#X obj -272 85 inlet;
#X obj -272 449 outlet~;
#X floatatom -154 274 5 0 0 0 - - -;
#X msg -154 304 0 \$1;
#X obj -226 86 inlet~;
#X obj -179 87 inlet;
#X obj -272 230 osc~ 440;
#X obj -272 416 *~;
#X obj -257 395 tgl 15 0 empty empty empty 17 7 0 10 -262144 -1 -1
1 1;
#X obj -179 111 unpack f f;
#X obj -181 355 perk-lowtom /key;
#X obj -26 262 loadbang;
#X obj -26 284 del 500;
#X floatatom -272 184 5 0 0 0 - - -;
#X obj -343 260 osc~ 440;
#X obj -272 332 *~;
#X obj -424 260 phasor~ 440;
#X obj -122 151 tgl 15 0 empty empty empty 17 7 0 10 -262144 -1 -1
0 1;
#X obj -181 203 t b f;
#X obj -424 216 / 2;
#X obj -424 238 * 3;
#X msg -27 304 1 0.6;
#X obj -479 236 noise~;
#X obj -343 218 / 4;
#X obj -343 238 * 5;
#X obj -458 182 / 8;
#X obj -458 204 * 15;
#X obj -479 263 lop~;
#X obj -424 287 *~ 0.1;
#X obj -343 287 *~ 0.2;
#X obj -479 286 *~ 0.05;
#X obj -272 279 *~ 0.65;
#X obj -154 232 expr ($f1-75)/1725;
#X obj -272 127 t f f f;
#X obj -199 443 split 110 1800;
#X msg -118 466 1800;
#X obj -199 509 k_range 110 1800 1 0.2;
#X floatatom -199 538 5 0 0 0 - - -;
#X obj -199 563 sig~;
#X obj -272 360 *~;
#X connect 0 0 19 0;
#X connect 1 0 34 0;
#X connect 3 0 4 0;
#X connect 4 0 11 1;
#X connect 5 0 16 1;
#X connect 6 0 10 0;
#X connect 7 0 32 0;
#X connect 8 0 2 0;
#X connect 9 0 8 1;
#X connect 10 0 9 0;
#X connect 10 1 18 0;
#X connect 11 0 2 0;
#X connect 12 0 13 0;
#X connect 13 0 22 0;
#X connect 14 0 7 0;
#X connect 14 0 20 0;
#X connect 14 0 24 0;
#X connect 14 0 26 0;
#X connect 15 0 30 0;
#X connect 16 0 40 0;
#X connect 17 0 29 0;
#X connect 18 0 0 1;
#X connect 19 0 11 0;
#X connect 19 1 33 0;
#X connect 20 0 21 0;
#X connect 21 0 17 0;
#X connect 22 0 11 1;
#X connect 23 0 28 0;
#X connect 24 0 25 0;
#X connect 25 0 15 0;
#X connect 26 0 27 0;
#X connect 27 0 28 1;
#X connect 28 0 31 0;
#X connect 29 0 16 0;
#X connect 30 0 16 0;
#X connect 31 0 16 0;
#X connect 32 0 16 0;
#X connect 33 0 3 0;
#X connect 34 0 14 0;
#X connect 34 1 0 0;
#X connect 34 2 35 0;
#X connect 35 0 37 0;
#X connect 35 1 36 0;
#X connect 36 0 37 0;
#X connect 37 0 38 0;
#X connect 38 0 39 0;
#X connect 39 0 40 1;
#X connect 40 0 8 0;
