#N canvas 487 148 953 604 10;
#X floatatom -235 321 5 0 0 2 tran_x_r - -;
#X obj -594 65 tgl 15 0 empty empty empty 17 7 0 10 -262144 -1 -1 0
1;
#X obj -392 282 tgl 15 0 empty empty empty 17 7 0 10 -262144 -1 -1
0 1;
#X obj -392 304 gemhead 1200;
#X obj -594 147 t a b;
#X floatatom -137 320 5 0 0 2 tran_y_r - -;
#X obj -236 284 route \$1;
#X obj -236 235 r tran_x_route;
#X obj -137 286 route \$1;
#X obj -137 237 r tran_y_route;
#X obj -594 116 gemhead 1400;
#N canvas 369 36 541 774 drag_sound 0;
#X floatatom -183 227 5 0 0 0 - - -;
#X obj 48 -272 metro 100;
#X obj 48 -297 tgl 15 0 empty empty empty 17 7 0 10 -262144 -1 -1 0
1;
#X obj 48 -326 inlet;
#X obj 48 -244 bng 15 250 50 0 empty empty empty 17 7 0 10 -262144
-1 -1;
#X obj -183 201 mtof;
#X obj -183 255 s l_o_\$1;
#X obj -25 129 s l_v_\$1;
#X obj 57 263 s r_o_\$1;
#X obj 215 144 s r_v_\$1;
#X obj 192 -251 metro 100;
#X obj 192 -276 tgl 15 0 empty empty empty 17 7 0 10 -262144 -1 -1
0 1;
#X obj 192 -223 bng 15 250 50 0 empty empty empty 17 7 0 10 -262144
-1 -1;
#X obj -182 -353 expr if($f1>$f2 \, 0 \, 1);
#X floatatom -182 -332 5 0 0 0 - - -;
#X obj -182 -312 sel 0 1;
#X msg -182 -282 1 0;
#X msg -150 -281 0 1;
#X obj -182 -257 s \$0-ch-toggle;
#X floatatom -182 -396 5 0 0 0 - - -;
#X obj -182 -417 route \$1;
#X obj -182 -466 r size_x_route;
#X floatatom -53 -398 5 0 0 0 - - -;
#X obj -53 -421 route \$1;
#X obj -53 -465 r size_y_route;
#X msg -182 -442 \$2 \$1;
#X msg -53 -443 \$2 \$1;
#X obj -183 -147 +;
#X obj -183 -122 +;
#X obj -183 -99 +;
#X obj -183 -74 +;
#X floatatom -183 -49 5 0 0 0 - - -;
#X obj -183 -229 expr if($f1>0.001 && $f1<0.2 \, 1 \, 0) \; if($f1>0.201
&& $f1<0.35 \, 2 \, 0) \; if($f1>0.351 && $f1<0.8 \, 3 \, 0) \; if($f1>0.801
&& $f1<1.5 \, 4 \, 0) \; if($f1>1.51 \, 5 \, 0) \;;
#X obj -183 29 random 4;
#X msg -183 72 0;
#X msg -152 116 7;
#X msg -135 139 11;
#X obj -183 176 + 42;
#X msg -168 95 4;
#X floatatom -149 176 5 0 0 0 - - -;
#X obj -156 4 expr (5-$f1)*12+42;
#X obj -183 50 sel 0 1 2 3 4;
#X msg -123 86 12;
#X obj -183 -23 t b f f;
#X obj -79 47 * 200;
#X msg -79 74 set \$1;
#X msg -25 104 800;
#X obj 57 217 mtof;
#X obj 57 -120 +;
#X obj 57 -101 +;
#X obj 57 -78 +;
#X obj 57 -55 +;
#X floatatom 57 -33 5 0 0 0 - - -;
#X obj 57 -202 expr if($f1>0.001 && $f1<0.2 \, 1 \, 0) \; if($f1>0.201
&& $f1<0.35 \, 2 \, 0) \; if($f1>0.351 && $f1<0.8 \, 3 \, 0) \; if($f1>0.801
&& $f1<1.5 \, 4 \, 0) \; if($f1>1.51 \, 5 \, 0) \;;
#X obj 57 45 random 4;
#X msg 57 88 0;
#X msg 88 132 7;
#X msg 105 155 11;
#X obj 57 192 + 42;
#X msg 72 111 4;
#X floatatom 91 192 5 0 0 0 - - -;
#X obj 84 20 expr (5-$f1)*12+42;
#X obj 57 66 sel 0 1 2 3 4;
#X msg 117 102 12;
#X obj 57 -7 t b f f;
#X obj 161 63 * 200;
#X msg 161 90 set \$1;
#X msg 215 120 800;
#X floatatom 57 241 5 0 0 0 - - -;
#X floatatom 243 -271 5 0 0 0 - - -;
#X floatatom 99 -296 5 0 0 0 - - -;
#X obj -182 -377 t f f;
#X obj -53 -377 t f f;
#X connect 0 0 6 0;
#X connect 1 0 4 0;
#X connect 2 0 1 0;
#X connect 3 0 2 0;
#X connect 3 0 11 0;
#X connect 4 0 46 0;
#X connect 5 0 0 0;
#X connect 10 0 12 0;
#X connect 11 0 10 0;
#X connect 12 0 67 0;
#X connect 13 0 14 0;
#X connect 14 0 15 0;
#X connect 15 0 16 0;
#X connect 15 1 17 0;
#X connect 16 0 18 0;
#X connect 17 0 18 0;
#X connect 19 0 71 0;
#X connect 20 0 19 0;
#X connect 21 0 25 0;
#X connect 22 0 72 0;
#X connect 23 0 22 0;
#X connect 24 0 26 0;
#X connect 25 0 20 0;
#X connect 26 0 23 0;
#X connect 27 0 28 0;
#X connect 28 0 29 0;
#X connect 29 0 30 0;
#X connect 30 0 31 0;
#X connect 31 0 43 0;
#X connect 32 0 27 0;
#X connect 32 1 27 1;
#X connect 32 2 28 1;
#X connect 32 3 29 1;
#X connect 32 4 30 1;
#X connect 33 0 41 0;
#X connect 34 0 37 0;
#X connect 35 0 37 0;
#X connect 36 0 37 0;
#X connect 37 0 5 0;
#X connect 38 0 37 0;
#X connect 39 0 37 1;
#X connect 40 0 39 0;
#X connect 41 0 34 0;
#X connect 41 1 38 0;
#X connect 41 2 35 0;
#X connect 41 3 36 0;
#X connect 41 4 42 0;
#X connect 42 0 37 0;
#X connect 43 0 33 0;
#X connect 43 1 40 0;
#X connect 43 2 44 0;
#X connect 44 0 45 0;
#X connect 44 0 70 0;
#X connect 45 0 46 0;
#X connect 46 0 7 0;
#X connect 47 0 68 0;
#X connect 48 0 49 0;
#X connect 49 0 50 0;
#X connect 50 0 51 0;
#X connect 51 0 52 0;
#X connect 52 0 64 0;
#X connect 53 0 48 0;
#X connect 53 1 48 1;
#X connect 53 2 49 1;
#X connect 53 3 50 1;
#X connect 53 4 51 1;
#X connect 54 0 62 0;
#X connect 55 0 58 0;
#X connect 56 0 58 0;
#X connect 57 0 58 0;
#X connect 58 0 47 0;
#X connect 59 0 58 0;
#X connect 60 0 58 1;
#X connect 61 0 60 0;
#X connect 62 0 55 0;
#X connect 62 1 59 0;
#X connect 62 2 56 0;
#X connect 62 3 57 0;
#X connect 62 4 63 0;
#X connect 63 0 58 0;
#X connect 64 0 54 0;
#X connect 64 1 61 0;
#X connect 64 2 65 0;
#X connect 65 0 66 0;
#X connect 65 0 69 0;
#X connect 66 0 67 0;
#X connect 67 0 9 0;
#X connect 68 0 8 0;
#X connect 69 0 10 1;
#X connect 70 0 1 1;
#X connect 71 0 13 0;
#X connect 71 1 32 0;
#X connect 72 0 13 1;
#X connect 72 1 53 0;
#X restore -783 274 pd drag_sound;
#X obj -627 494 cube;
#X obj -697 298 outlet;
#X obj -768 301 s add-obj;
#X obj -736 329 s \$0-display;
#X obj -392 257 r \$0-display;
#X obj -567 187 s \$0-gogem;
#X msg -236 259 \$2 \$1;
#X msg -137 259 \$2 \$1;
#X obj -452 266 loadbang;
#X floatatom -711 438 5 0 0 0 - - -;
#X obj -771 362 loadbang;
#N canvas 758 267 450 300 rotateXYZ 0;
#X obj 50 182 rotateXYZ;
#X obj 67 79 r \$0-rox;
#X obj 84 109 r \$0-roy;
#X obj 101 139 r \$0-roz;
#X obj 50 52 inlet;
#X obj 50 215 outlet;
#X connect 0 0 5 0;
#X connect 1 0 0 1;
#X connect 2 0 0 2;
#X connect 3 0 0 3;
#X connect 4 0 0 0;
#X restore -594 293 pd rotateXYZ;
#N canvas 0 22 450 300 rotateXYZ 0;
#X obj 50 182 rotateXYZ;
#X obj 48 136 r \$0-rox;
#X obj 61 109 r \$0-roy;
#X obj 107 139 r \$0-roz;
#X obj 41 46 inlet;
#X obj 55 240 outlet;
#X connect 0 0 5 0;
#X connect 1 0 0 1;
#X connect 2 0 0 2;
#X connect 3 0 0 3;
#X connect 4 0 0 0;
#X restore -392 366 pd rotateXYZ;
#N canvas 279 429 450 300 text-number 0;
#X obj -40 114 inlet;
#X obj 74 116 inlet;
#X msg 189 196 text \$1;
#X obj 52 160 separator;
#X obj 52 197 translateXYZ 0 0 0;
#X obj 52 270 text3d;
#X msg 264 221 3;
#X obj 52 225 colorRGB 1 1 1 1;
#X obj 119 158 f;
#X obj 148 113 randomF 0.1;
#X obj 148 158 +;
#X obj 120 69 t b b;
#X obj 149 135 - 0.05;
#X obj 265 181 loadbang;
#X obj 228 105 inlet;
#X obj 291 107 inlet;
#X obj 20 109 inlet;
#X obj 120 44 r \$0-gogem;
#X obj 162 224 r module2_alpha;
#X connect 0 0 3 0;
#X connect 1 0 8 0;
#X connect 2 0 5 0;
#X connect 3 0 4 0;
#X connect 4 0 7 0;
#X connect 6 0 5 1;
#X connect 7 0 5 0;
#X connect 8 0 10 0;
#X connect 8 0 4 2;
#X connect 9 0 12 0;
#X connect 10 0 8 1;
#X connect 11 0 8 0;
#X connect 11 1 9 0;
#X connect 12 0 10 1;
#X connect 13 0 6 0;
#X connect 14 0 2 0;
#X connect 15 0 4 3;
#X connect 16 0 4 1;
#X connect 17 0 11 0;
#X connect 18 0 7 4;
#X restore -268 551 pd text-number;
#N canvas 571 357 597 419 red-curve 0;
#X obj -90 -134 gemhead;
#X obj -90 180 curve 2;
#X obj -90 -158 tgl 15 0 empty empty empty 17 7 0 10 -262144 -1 -1
0 1;
#X obj -90 -182 r \$0-display;
#N canvas 0 22 450 300 rotateXYZ 0;
#X obj 50 182 rotateXYZ;
#X obj 48 136 r \$0-rox;
#X obj 61 109 r \$0-roy;
#X obj 107 139 r \$0-roz;
#X obj 41 46 inlet;
#X obj 55 240 outlet;
#X connect 0 0 5 0;
#X connect 1 0 0 1;
#X connect 2 0 0 2;
#X connect 3 0 0 3;
#X connect 4 0 0 0;
#X restore -90 -62 pd rotateXYZ;
#X obj -90 150 GEMglPointSize 2;
#X obj -90 -35 separator;
#X obj -90 -82 alpha;
#X obj -90 127 colorRGB 1 0 0 1;
#X obj -90 -111 t a b;
#X obj 65 133 outlet;
#X msg -165 103 draw point;
#X obj -165 79 loadbang;
#X msg -51 -99 1;
#X obj 25 -175 inlet;
#X obj 67 -175 inlet;
#X obj 52 78 r module2_alpha;
#X obj -8 -51 r \$0-color20;
#X obj -8 -25 unpack f f f;
#X floatatom -8 4 5 0 0 0 - - -;
#X floatatom 29 4 5 0 0 0 - - -;
#X floatatom 68 4 5 0 0 0 - - -;
#X obj -8 37 + 0;
#X obj 29 36 + 0;
#X obj 68 35 + 0;
#X obj 130 -117 sel 0 1;
#X obj 81 -26 t b b b;
#X obj 129 -86 t b b;
#X msg 155 -61 0 0 0;
#X obj 155 -36 unpack f f f;
#X obj 182 -87 t b b;
#X msg 209 -62 0 -1 -1;
#X obj 130 -149 r dir-\$1;
#X obj -38 -130 loadbang;
#X connect 0 0 9 0;
#X connect 2 0 0 0;
#X connect 3 0 2 0;
#X connect 4 0 6 0;
#X connect 4 0 10 0;
#X connect 5 0 1 0;
#X connect 6 0 8 0;
#X connect 7 0 4 0;
#X connect 8 0 5 0;
#X connect 9 0 7 0;
#X connect 11 0 1 0;
#X connect 12 0 11 0;
#X connect 13 0 7 1;
#X connect 14 0 1 1;
#X connect 15 0 1 2;
#X connect 16 0 8 4;
#X connect 17 0 18 0;
#X connect 18 0 19 0;
#X connect 18 1 20 0;
#X connect 18 2 21 0;
#X connect 19 0 22 0;
#X connect 20 0 23 0;
#X connect 21 0 24 0;
#X connect 22 0 8 1;
#X connect 23 0 8 2;
#X connect 24 0 8 3;
#X connect 25 0 27 0;
#X connect 25 1 30 0;
#X connect 26 0 19 0;
#X connect 26 1 20 0;
#X connect 26 2 21 0;
#X connect 27 0 26 0;
#X connect 27 1 28 0;
#X connect 28 0 29 0;
#X connect 29 0 22 1;
#X connect 29 1 23 1;
#X connect 29 2 24 1;
#X connect 30 0 26 0;
#X connect 30 1 31 0;
#X connect 31 0 29 0;
#X connect 32 0 25 0;
#X connect 33 0 13 0;
#X restore -268 484 pd red-curve;
#N canvas 778 282 541 310 float2int 0;
#X obj 82 68 inlet;
#X obj 253 71 inlet;
#X obj 253 183 int;
#X obj 253 154 * 100;
#X obj 253 206 / 100;
#X obj 253 249 outlet;
#X obj 305 11 r dir-\$1;
#X obj 305 35 sel 0 1;
#X msg 305 58 1;
#X msg 335 59 -1;
#X obj 82 120 expr abs(-14*($f2)-($f1));
#X obj 253 129 expr abs(15*($f2)-($f1));
#X floatatom 253 228 5 0 0 0 - - -;
#X floatatom 253 103 5 0 0 0 - - -;
#X floatatom 82 92 5 0 0 0 - - -;
#X connect 0 0 14 0;
#X connect 1 0 13 0;
#X connect 2 0 4 0;
#X connect 3 0 2 0;
#X connect 4 0 12 0;
#X connect 6 0 7 0;
#X connect 7 0 8 0;
#X connect 7 1 9 0;
#X connect 8 0 10 1;
#X connect 8 0 11 1;
#X connect 9 0 10 1;
#X connect 9 0 11 1;
#X connect 10 0 3 0;
#X connect 11 0 3 0;
#X connect 12 0 5 0;
#X connect 13 0 11 0;
#X connect 14 0 10 0;
#X restore -208 510 pd float2int;
#N canvas 571 26 769 709 walk-step 0;
#X msg -352 224 set \$1;
#X floatatom -425 189 5 0 0 0 - - -;
#X obj -425 220 * -1;
#X msg -425 243 set \$1;
#X msg -35 224 set \$1;
#X floatatom -104 169 5 0 0 0 - - -;
#X obj -104 200 * -1;
#X msg -104 223 set \$1;
#X obj -254 244 spigot;
#X obj -183 243 spigot;
#X obj -221 223 tgl 15 0 empty empty empty 17 7 0 10 -262144 -1 -1
0 1;
#X obj -150 221 tgl 15 0 empty empty empty 17 7 0 10 -262144 -1 -1
1 1;
#X obj -221 153 unpack f f;
#X obj -221 130 r \$0-ch-toggle;
#X obj -104 81 route \$1;
#X obj -104 35 r size_x_route;
#X obj -425 103 route \$1;
#X obj -425 54 r size_y_route;
#X msg -425 77 \$2 \$1;
#X msg -104 58 \$2 \$1;
#X obj -425 126 expr (($f1/4)*0.08)+0.003;
#X obj -104 104 expr (($f1/4)*0.08)+0.003;
#X obj 17 490 outlet;
#X obj -365 105 t b f;
#X floatatom -425 150 5 0 0 0 - - -;
#X obj -6 68 t b f;
#X floatatom -104 127 5 0 0 0 - - -;
#X obj -6 -9 r forceh;
#X obj -365 -3 r forcew;
#X floatatom -365 79 5 0 0 0 - - -;
#X obj -104 146 + 0;
#X obj -425 169 + 0;
#X floatatom -6 44 5 0 0 0 - - -;
#X obj -6 18 / 25;
#X obj -365 24 / 25;
#X obj -254 202 r \$0-gogem;
#X obj -183 201 r \$0-gogem;
#X floatatom -338 488 10 0 0 0 - - -;
#X obj -338 546 > 0;
#X obj -338 569 tgl 15 0 empty empty empty 17 7 0 10 -262144 -1 -1
0 1;
#X obj -338 590 s dir-\$1;
#X text -339 612 if force change \, walk direction change;
#X obj -249 431 tgl 15 0 empty empty empty 17 7 0 10 -262144 -1 -1
1 1;
#X obj -306 430 tgl 15 0 empty empty empty 17 7 0 10 -262144 -1 -1
0 1;
#X obj -307 403 unpack f f;
#X obj -307 380 r \$0-ch-toggle;
#X obj -339 454 spigot;
#X obj -282 455 spigot;
#X obj -693 465 swap;
#X obj -693 492 +;
#X floatatom -693 519 5 0 0 0 - - -;
#X obj -694 374 spigot;
#X obj -661 355 tgl 15 0 empty empty empty 17 7 0 10 -262144 -1 -1
0 1;
#X msg -694 435 -0.0202468;
#X obj -694 330 r \$0-gogem;
#X msg -693 570 0;
#X obj -693 592 s \$0-nono;
#X obj -659 464 r \$0-diff-x;
#X obj -469 319 unpack f f;
#X obj -469 296 r \$0-ch-toggle;
#X obj -642 567 outlet;
#X obj -456 455 swap;
#X floatatom -456 511 5 0 0 0 - - -;
#X obj -456 387 spigot;
#X obj -423 342 tgl 15 0 empty empty empty 17 7 0 10 -262144 -1 -1
1 1;
#X msg -456 427 -0.0228211;
#X obj -456 362 r \$0-gogem;
#X obj -456 484 +;
#X msg -456 561 0;
#X obj -456 583 s \$0-nono;
#X text -390 535 up;
#X obj -419 454 r \$0-diff-y;
#X obj -405 560 outlet;
#X obj -33 378 swap;
#X obj -33 407 +;
#X floatatom -33 434 5 0 0 0 - - -;
#X msg -33 350 0.0228211;
#X text -15 458 down;
#X obj -34 459 moses -14;
#X obj 2 378 r \$0-diff-y;
#X obj -196 395 swap;
#X floatatom -196 452 5 0 0 0 - - -;
#X msg -196 367 0.0202468;
#X obj -196 424 +;
#X obj -196 477 moses 15;
#X obj -164 396 r \$0-diff-x;
#X obj -196 556 outlet;
#X obj -693 544 moses -15;
#X obj -456 536 moses -14;
#X obj -625 545 moses 15;
#X obj -518 536 moses 14;
#X connect 0 0 82 0;
#X connect 1 0 0 0;
#X connect 1 0 2 0;
#X connect 2 0 3 0;
#X connect 2 0 46 0;
#X connect 3 0 53 0;
#X connect 4 0 76 0;
#X connect 5 0 6 0;
#X connect 5 0 4 0;
#X connect 6 0 7 0;
#X connect 6 0 47 0;
#X connect 7 0 65 0;
#X connect 8 0 82 0;
#X connect 9 0 76 0;
#X connect 10 0 8 1;
#X connect 11 0 9 1;
#X connect 12 0 11 0;
#X connect 12 1 10 0;
#X connect 13 0 12 0;
#X connect 14 0 21 0;
#X connect 15 0 19 0;
#X connect 16 0 20 0;
#X connect 17 0 18 0;
#X connect 18 0 16 0;
#X connect 19 0 14 0;
#X connect 20 0 24 0;
#X connect 21 0 26 0;
#X connect 23 0 24 0;
#X connect 23 1 31 1;
#X connect 24 0 31 0;
#X connect 25 0 26 0;
#X connect 25 1 30 1;
#X connect 26 0 30 0;
#X connect 27 0 33 0;
#X connect 28 0 34 0;
#X connect 29 0 23 0;
#X connect 30 0 5 0;
#X connect 31 0 1 0;
#X connect 32 0 25 0;
#X connect 33 0 32 0;
#X connect 34 0 29 0;
#X connect 35 0 8 0;
#X connect 36 0 9 0;
#X connect 37 0 38 0;
#X connect 38 0 39 0;
#X connect 39 0 40 0;
#X connect 42 0 47 1;
#X connect 43 0 46 1;
#X connect 44 0 42 0;
#X connect 44 1 43 0;
#X connect 45 0 44 0;
#X connect 46 0 37 0;
#X connect 47 0 37 0;
#X connect 48 0 49 0;
#X connect 48 1 49 1;
#X connect 49 0 50 0;
#X connect 50 0 48 1;
#X connect 50 0 87 0;
#X connect 50 0 89 0;
#X connect 51 0 53 0;
#X connect 52 0 51 1;
#X connect 53 0 48 0;
#X connect 54 0 51 0;
#X connect 55 0 56 0;
#X connect 57 0 48 1;
#X connect 58 0 64 0;
#X connect 58 1 52 0;
#X connect 59 0 58 0;
#X connect 61 0 67 0;
#X connect 61 1 67 1;
#X connect 62 0 61 1;
#X connect 62 0 88 0;
#X connect 62 0 90 0;
#X connect 63 0 65 0;
#X connect 64 0 63 1;
#X connect 65 0 61 0;
#X connect 66 0 63 0;
#X connect 67 0 62 0;
#X connect 68 0 69 0;
#X connect 71 0 61 1;
#X connect 73 0 74 0;
#X connect 73 1 74 1;
#X connect 74 0 75 0;
#X connect 75 0 73 1;
#X connect 75 0 78 0;
#X connect 76 0 73 0;
#X connect 78 1 22 0;
#X connect 79 0 73 1;
#X connect 80 0 83 0;
#X connect 80 1 83 1;
#X connect 81 0 80 1;
#X connect 81 0 84 0;
#X connect 82 0 80 0;
#X connect 83 0 81 0;
#X connect 84 0 86 0;
#X connect 85 0 80 1;
#X connect 87 0 55 0;
#X connect 87 1 60 0;
#X connect 88 0 68 0;
#X connect 88 1 72 0;
#X connect 89 1 55 0;
#X connect 90 1 68 0;
#X restore -368 186 pd walk-step;
#N canvas 0 22 119 254 color2zero 0;
#X obj -236 59 sel 1;
#X obj -236 160 line;
#X obj -236 82 t b b;
#X msg -237 186 1 \$1 \$1;
#X msg -208 109 0 0;
#X msg -236 131 1 400;
#X obj -235 14 inlet;
#X obj -236 225 s \$0-color20;
#X connect 0 0 2 0;
#X connect 1 0 3 0;
#X connect 2 0 5 0;
#X connect 2 1 4 0;
#X connect 3 0 7 0;
#X connect 4 0 1 0;
#X connect 5 0 1 0;
#X connect 6 0 0 0;
#X restore -752 252 pd color2zero;
#X obj -771 511 s \$0-draw-shape;
#X obj -558 468 r \$0-draw-shape;
#X obj -711 461 s \$0-z-depth;
#X obj -187 530 r \$0-z-depth;
#N canvas 807 176 450 300 close-gemhead 0;
#X msg -138 198 1;
#X obj -138 80 r switch;
#X obj -138 125 route \$1;
#X obj -138 148 tgl 15 0 empty empty empty 17 7 0 10 -262144 -1 -1
0 1;
#X obj -86 174 loadbang;
#X msg -86 201 0;
#X obj -138 175 sel 0;
#X obj -110 34 tgl 15 0 empty split_stop r 17 7 0 10 -260097 -1 -1
0 1;
#X obj -73 80 sel 1;
#X msg -73 103 0;
#X msg -138 101 \$2 \$1;
#X obj -77 30 r module-b;
#X obj -110 55 spigot;
#X obj -216 205 r \$0-nono;
#X obj -138 244 outlet;
#X obj -31 71 tgl 15 0 empty empty empty 17 7 0 10 -262144 -1 -1 1
1;
#X connect 0 0 14 0;
#X connect 1 0 10 0;
#X connect 2 0 3 0;
#X connect 3 0 6 0;
#X connect 4 0 5 0;
#X connect 5 0 14 0;
#X connect 6 0 0 0;
#X connect 7 0 12 0;
#X connect 8 0 9 0;
#X connect 9 0 14 0;
#X connect 10 0 2 0;
#X connect 11 0 12 1;
#X connect 11 0 15 0;
#X connect 12 0 8 0;
#X connect 13 0 14 0;
#X restore -594 41 pd close-gemhead;
#X obj -235 345 s \$0-diff-x;
#X obj -137 345 s \$0-diff-y;
#X obj -248 421 r \$0-diff-x;
#X obj -228 442 r \$0-diff-y;
#X msg -771 481 draw line;
#X obj -711 394 randomF 7;
#X obj -452 311 + 0.2;
#X obj -452 289 random 2;
#X obj -711 416 - 6.5;
#X obj -558 495 cube;
#X obj -627 463 gate 2;
#X obj -627 420 r \$0-shape;
#X obj -425 560 cube;
#X obj -369 533 r \$0-draw-shape;
#X obj -392 560 cube;
#X obj -425 534 gate 2;
#X obj -425 491 r \$0-shape;
#X obj -100 198 s \$0-shape;
#X obj -159 57 r gogosize;
#X obj -159 91 del;
#X obj -81 69 loadbang;
#X obj -81 111 + \$1;
#X msg -81 90 0;
#X obj -159 114 t b b;
#X msg -132 136 1;
#X msg -159 176 2;
#X obj -301 89 r \$0-display;
#X obj -236 177 s \$0-sizech;
#X obj -81 134 * 4;
#X obj -159 154 del 150;
#N canvas 261 324 867 378 gem-color 0;
#X obj -118 77 r \$0-color20;
#X obj 5 223 r module2_alpha;
#X obj -138 213 colorRGB 1 1 1;
#X obj -118 103 unpack f f f;
#X obj -142 55 inlet;
#X obj -139 267 outlet;
#X floatatom -118 132 5 0 0 0 - - -;
#X floatatom -81 132 5 0 0 0 - - -;
#X floatatom -42 132 5 0 0 0 - - -;
#X obj -118 165 + 0;
#X obj -81 164 + 0;
#X obj -42 163 + 0;
#X obj -138 238 alpha;
#X obj 20 11 sel 0 1;
#X obj -29 102 t b b b;
#X obj 19 42 t b b;
#X msg 45 67 0 0 0;
#X obj 45 92 unpack f f f;
#X obj 72 41 t b b;
#X msg 99 66 0 -1 -1;
#X obj 20 -21 r dir-\$1;
#X connect 0 0 3 0;
#X connect 1 0 2 4;
#X connect 2 0 12 0;
#X connect 3 0 6 0;
#X connect 3 1 7 0;
#X connect 3 2 8 0;
#X connect 4 0 2 0;
#X connect 6 0 9 0;
#X connect 7 0 10 0;
#X connect 8 0 11 0;
#X connect 9 0 2 1;
#X connect 10 0 2 2;
#X connect 11 0 2 3;
#X connect 12 0 5 0;
#X connect 13 0 15 0;
#X connect 13 1 18 0;
#X connect 14 0 6 0;
#X connect 14 1 7 0;
#X connect 14 2 8 0;
#X connect 15 0 14 0;
#X connect 15 1 16 0;
#X connect 16 0 17 0;
#X connect 17 0 9 1;
#X connect 17 1 10 1;
#X connect 17 2 11 1;
#X connect 18 0 14 0;
#X connect 18 1 19 0;
#X connect 19 0 17 0;
#X connect 20 0 13 0;
#X restore -594 256 pd gem-color;
#N canvas 396 448 475 341 gem-color 0;
#X obj -118 77 r \$0-color20;
#X obj 5 223 r module2_alpha;
#X obj -138 213 colorRGB 1 1 1;
#X obj -118 103 unpack f f f;
#X obj -142 55 inlet;
#X obj -139 267 outlet;
#X floatatom -118 132 5 0 0 0 - - -;
#X floatatom -81 132 5 0 0 0 - - -;
#X floatatom -42 132 5 0 0 0 - - -;
#X obj -118 165 + 0;
#X obj -81 164 + 0;
#X obj -42 163 + 0;
#X obj -138 238 alpha;
#X obj 20 11 sel 0 1;
#X obj -29 102 t b b b;
#X obj 19 42 t b b;
#X msg 45 67 0 0 0;
#X obj 45 92 unpack f f f;
#X obj 72 41 t b b;
#X msg 99 66 0 -1 -1;
#X obj 20 -18 r dir-\$1;
#X connect 0 0 3 0;
#X connect 1 0 2 4;
#X connect 2 0 12 0;
#X connect 3 0 6 0;
#X connect 3 1 7 0;
#X connect 3 2 8 0;
#X connect 4 0 2 0;
#X connect 6 0 9 0;
#X connect 7 0 10 0;
#X connect 8 0 11 0;
#X connect 9 0 2 1;
#X connect 10 0 2 2;
#X connect 11 0 2 3;
#X connect 12 0 5 0;
#X connect 13 0 15 0;
#X connect 13 1 18 0;
#X connect 14 0 6 0;
#X connect 14 1 7 0;
#X connect 14 2 8 0;
#X connect 15 0 14 0;
#X connect 15 1 16 0;
#X connect 16 0 17 0;
#X connect 17 0 9 1;
#X connect 17 1 10 1;
#X connect 17 2 11 1;
#X connect 18 0 14 0;
#X connect 18 1 19 0;
#X connect 19 0 17 0;
#X connect 20 0 13 0;
#X restore -392 332 pd gem-color;
#N canvas 141 331 450 300 gem-translate 0;
#X obj -83 62 t b f;
#X floatatom -83 126 5 0 0 0 - - -;
#X obj -140 62 t b f;
#X floatatom -136 129 5 0 0 0 - - -;
#X obj -136 102 +;
#X obj -83 103 +;
#X obj -84 224 pack f f 0;
#X obj -312 187 translateXYZ 0 0 0;
#X obj -140 34 r \$0-chx;
#X obj -83 34 r \$0-chy;
#X obj -27 166 r \$0-z-depth;
#X obj -217 37 r \$0-diff-x;
#X obj -216 13 r \$0-diff-y;
#X obj -83 173 t b f;
#X obj -311 138 inlet;
#X obj -312 216 outlet;
#X obj -87 257 outlet;
#X obj -61 0 inlet;
#X obj 8 4 inlet;
#X connect 0 0 5 0;
#X connect 0 1 5 1;
#X connect 1 0 13 0;
#X connect 1 0 7 2;
#X connect 2 0 4 0;
#X connect 2 1 4 1;
#X connect 3 0 6 0;
#X connect 3 0 7 1;
#X connect 4 0 3 0;
#X connect 5 0 1 0;
#X connect 6 0 16 0;
#X connect 7 0 15 0;
#X connect 8 0 2 0;
#X connect 9 0 0 0;
#X connect 10 0 6 2;
#X connect 10 0 7 3;
#X connect 11 0 4 0;
#X connect 12 0 5 0;
#X connect 13 0 3 0;
#X connect 13 1 6 1;
#X connect 14 0 7 0;
#X connect 17 0 4 0;
#X connect 18 0 5 0;
#X restore -594 322 pd gem-translate;
#N canvas 0 22 455 570 gem-translate 0;
#X obj 29 178 t b f;
#X floatatom 8 230 5 0 0 0 - - -;
#X obj -111 180 t b f;
#X floatatom -119 269 5 0 0 0 - - -;
#X obj -119 205 -;
#X obj 8 205 -;
#X obj -236 327 translateXYZ 0 0 0;
#X obj -83 304 pack f f 0;
#X obj -111 154 r \$0-chx;
#X obj 29 152 r \$0-chy;
#X obj -26 276 r \$0-z-depth;
#X obj -11 126 r \$0-diff-y;
#X obj -155 123 r \$0-diff-x;
#X obj -107 241 t b f;
#X obj -240 270 inlet;
#X obj -236 365 outlet;
#X obj -79 384 outlet;
#X obj -53 65 inlet;
#X obj -9 69 inlet;
#X connect 0 0 5 0;
#X connect 0 1 5 1;
#X connect 1 0 13 0;
#X connect 1 0 6 2;
#X connect 2 0 4 0;
#X connect 2 1 4 1;
#X connect 3 0 7 0;
#X connect 3 0 6 1;
#X connect 4 0 3 0;
#X connect 5 0 1 0;
#X connect 6 0 15 0;
#X connect 7 0 16 0;
#X connect 8 0 2 0;
#X connect 9 0 0 0;
#X connect 10 0 7 2;
#X connect 10 0 6 3;
#X connect 11 0 5 0;
#X connect 12 0 4 0;
#X connect 13 0 3 0;
#X connect 13 1 7 1;
#X connect 14 0 6 0;
#X connect 17 0 4 0;
#X connect 18 0 5 0;
#X restore -392 397 pd gem-translate;
#N canvas 260 268 450 300 gem-scale 0;
#X floatatom -194 136 5 0 0 0 - - -;
#X floatatom -129 137 5 0 0 0 - - -;
#N canvas 782 143 244 630 choice 0;
#X obj 53 -456 inlet;
#X obj 53 -430 sel 0 1;
#X obj 40 47 outlet;
#X obj 40 -90 swap;
#X obj 40 -13 -;
#X floatatom 40 19 5 0 0 0 - - -;
#X obj 21 -302 t f f;
#X obj 21 -208 spigot;
#X obj 53 -229 tgl 15 0 empty empty empty 17 7 0 10 -262144 -1 -1 1
1;
#X obj 78 -207 spigot;
#X obj 110 -228 tgl 15 0 empty empty empty 17 7 0 10 -262144 -1 -1
0 1;
#X obj 21 -179 t b f f;
#X floatatom 40 -69 5 0 0 0 - - -;
#X floatatom 61 -48 5 0 0 0 - - -;
#X obj 40 -152 / 2;
#X floatatom 40 -125 5 0 0 0 - - -;
#X floatatom 21 -481 5 0 0 0 - - -;
#X obj 21 -504 route \$1;
#X obj 21 -553 r size_x_route;
#X msg 53 -390 0 1;
#X msg 87 -389 1 0;
#X obj 53 -338 unpack f f;
#X obj 2 -390 v \$0-sx;
#X obj -25 -418 t b f;
#X obj -25 -367 del 1;
#X msg 21 -528 \$2 \$1;
#X connect 0 0 1 0;
#X connect 1 0 19 0;
#X connect 1 1 20 0;
#X connect 3 0 12 0;
#X connect 3 1 13 0;
#X connect 4 0 5 0;
#X connect 5 0 2 0;
#X connect 6 0 7 0;
#X connect 6 1 9 0;
#X connect 7 0 11 0;
#X connect 8 0 7 1;
#X connect 9 0 5 0;
#X connect 10 0 9 1;
#X connect 11 1 14 0;
#X connect 11 2 3 1;
#X connect 12 0 4 0;
#X connect 13 0 4 1;
#X connect 14 0 15 0;
#X connect 15 0 3 0;
#X connect 16 0 23 0;
#X connect 17 0 16 0;
#X connect 18 0 25 0;
#X connect 19 0 21 0;
#X connect 20 0 21 0;
#X connect 21 0 8 0;
#X connect 21 1 10 0;
#X connect 22 0 6 0;
#X connect 23 0 24 0;
#X connect 23 1 22 0;
#X connect 24 0 22 0;
#X connect 25 0 17 0;
#X restore -194 111 pd choice;
#X obj -221 207 scaleXYZ 1 1 1;
#X obj -194 85 unpack f f;
#X obj -194 65 r \$0-ch-toggle;
#N canvas 1048 143 254 655 choice 0;
#X obj 53 -456 inlet;
#X obj 53 -430 sel 0 1;
#X obj 40 47 outlet;
#X obj 40 -90 swap;
#X obj 40 -13 -;
#X floatatom 40 19 5 0 0 0 - - -;
#X obj 21 -302 t f f;
#X obj 21 -208 spigot;
#X obj 53 -229 tgl 15 0 empty empty empty 17 7 0 10 -262144 -1 -1 0
1;
#X obj 78 -207 spigot;
#X obj 110 -228 tgl 15 0 empty empty empty 17 7 0 10 -262144 -1 -1
1 1;
#X obj 21 -179 t b f f;
#X floatatom 40 -69 5 0 0 0 - - -;
#X floatatom 61 -48 5 0 0 0 - - -;
#X obj 40 -152 / 2;
#X floatatom 40 -125 5 0 0 0 - - -;
#X floatatom 21 -481 5 0 0 0 - - -;
#X msg 21 -529 \$2 \$1;
#X obj 21 -504 route \$1;
#X msg 53 -390 0 1;
#X msg 87 -389 1 0;
#X obj 53 -338 unpack f f;
#X obj 21 -553 r size_y_route;
#X obj -25 -418 t b f;
#X obj -25 -367 del 1;
#X obj 2 -390 v \$0-sy;
#X connect 0 0 1 0;
#X connect 1 0 19 0;
#X connect 1 1 20 0;
#X connect 3 0 12 0;
#X connect 3 1 13 0;
#X connect 4 0 5 0;
#X connect 5 0 2 0;
#X connect 6 0 7 0;
#X connect 6 1 9 0;
#X connect 7 0 11 0;
#X connect 8 0 7 1;
#X connect 9 0 5 0;
#X connect 10 0 9 1;
#X connect 11 1 14 0;
#X connect 11 2 3 1;
#X connect 12 0 4 0;
#X connect 13 0 4 1;
#X connect 14 0 15 0;
#X connect 15 0 3 0;
#X connect 16 0 23 0;
#X connect 17 0 18 0;
#X connect 18 0 16 0;
#X connect 19 0 21 0;
#X connect 20 0 21 0;
#X connect 21 0 8 0;
#X connect 21 1 10 0;
#X connect 22 0 17 0;
#X connect 23 0 24 0;
#X connect 23 1 25 0;
#X connect 24 0 25 0;
#X connect 25 0 6 0;
#X restore -129 110 pd choice;
#N canvas 817 490 301 232 to1========== 0;
#X obj -151 72 demux 0 1;
#X msg -151 99 0;
#X obj -49 75 demux 0 1;
#X msg -49 102 0;
#X obj -100 -6 unpack f f;
#X obj -100 -30 r \$0-ch-toggle;
#X obj -151 129 s \$0-chx;
#X obj -49 137 s \$0-chy;
#X obj -151 16 inlet;
#X obj -49 22 inlet;
#X connect 0 0 1 0;
#X connect 0 1 6 0;
#X connect 1 0 6 0;
#X connect 2 0 3 0;
#X connect 2 1 7 0;
#X connect 3 0 7 0;
#X connect 4 0 0 1;
#X connect 4 1 2 1;
#X connect 5 0 4 0;
#X connect 8 0 0 0;
#X connect 9 0 2 0;
#X restore -114 207 pd to1==========;
#N canvas 812 480 450 300 ch-size== 0;
#X obj 38 30 inlet;
#X obj 76 141 f;
#X obj 116 45 t b b;
#X obj 109 140 + 0;
#X obj 38 58 t f b;
#X msg 65 81 0;
#X obj 76 198 outlet;
#X obj 228 34 inlet;
#X obj 266 145 f;
#X obj 306 49 t b b;
#X obj 299 144 + 0;
#X obj 228 62 t f b;
#X msg 255 85 0;
#X obj 266 202 outlet;
#X obj 175 11 bng 15 250 50 0 empty empty empty 17 7 0 10 -262144 -1
-1;
#X obj 132 84 randomF 1;
#X obj 322 88 randomF 1;
#X obj 322 112 - 0.5;
#X obj 132 108 - 0.5;
#X floatatom 76 167 5 0 0 0 - - -;
#X floatatom 265 170 5 0 0 0 - - -;
#X obj 177 -21 r \$0-sizech;
#X connect 0 0 4 0;
#X connect 1 0 3 0;
#X connect 1 0 19 0;
#X connect 2 0 1 0;
#X connect 2 1 15 0;
#X connect 3 0 1 1;
#X connect 4 0 1 0;
#X connect 4 1 5 0;
#X connect 5 0 3 1;
#X connect 7 0 11 0;
#X connect 8 0 10 0;
#X connect 8 0 20 0;
#X connect 9 0 8 0;
#X connect 9 1 16 0;
#X connect 10 0 8 1;
#X connect 11 0 8 0;
#X connect 11 1 12 0;
#X connect 12 0 10 1;
#X connect 14 0 2 0;
#X connect 14 0 9 0;
#X connect 15 0 18 0;
#X connect 16 0 17 0;
#X connect 17 0 10 1;
#X connect 18 0 3 1;
#X connect 19 0 6 0;
#X connect 20 0 13 0;
#X connect 21 0 14 0;
#X restore -194 167 pd ch-size==;
#X obj -215 8 inlet;
#X obj -222 241 outlet;
#X obj -45 95 inlet;
#X obj -64 239 outlet;
#X obj -4 239 outlet;
#X connect 0 0 7 0;
#X connect 0 0 8 0;
#X connect 1 0 7 1;
#X connect 1 0 8 1;
#X connect 2 0 0 0;
#X connect 3 0 10 0;
#X connect 4 0 2 0;
#X connect 4 1 6 0;
#X connect 5 0 4 0;
#X connect 6 0 1 0;
#X connect 8 0 3 1;
#X connect 8 0 12 0;
#X connect 8 1 3 2;
#X connect 8 1 13 0;
#X connect 9 0 3 0;
#X connect 11 0 3 3;
#X restore -594 376 pd gem-scale;
#N canvas 403 322 450 300 gem-scale 0;
#X obj -221 207 scaleXYZ 1 1 1;
#X obj -221 85 inlet;
#X obj -222 241 outlet;
#X obj -195 153 inlet;
#X obj -154 152 inlet;
#X obj -114 151 inlet;
#X connect 0 0 2 0;
#X connect 1 0 0 0;
#X connect 3 0 0 1;
#X connect 4 0 0 2;
#X connect 5 0 0 3;
#X restore -392 463 pd gem-scale;
#X obj -452 342 t f f;
#N canvas 594 106 495 448 random-rotate 0;
#X obj -153 -37 r \$0-display;
#X msg -153 -7 0;
#X floatatom 177 259 5 0 0 0 - - -;
#X obj -66 281 s \$0-rox;
#X obj 38 282 s \$0-roy;
#X obj 177 285 s \$0-roz;
#X floatatom 38 256 5 0 0 0 - - -;
#X floatatom -66 256 5 0 0 0 - - -;
#X obj -66 156 f;
#X obj -33 155 + 0;
#X obj -65 -64 r gogosize;
#X floatatom -66 183 5 0 0 0 - - -;
#X obj -66 232 line;
#X msg -66 208 \$1 1000;
#X obj -66 36 t b b b;
#X obj -65 -31 random 3;
#X obj -65 -3 sel 0 1 2;
#X obj 38 156 f;
#X obj 71 155 + 0;
#X floatatom 38 183 5 0 0 0 - - -;
#X obj 38 232 line;
#X msg 38 208 \$1 1000;
#X obj 38 36 t b b b;
#X obj 177 155 f;
#X obj 210 154 + 0;
#X floatatom 177 182 5 0 0 0 - - -;
#X obj 177 231 line;
#X msg 177 207 \$1 1000;
#X obj 177 35 t b b b;
#X obj -10 79 randomF 10;
#X obj -10 103 - 5;
#X obj 75 74 randomF 10;
#X obj 75 98 - 5;
#X obj 219 74 randomF 10;
#X obj 219 98 - 5;
#X obj -10 126 * 10;
#X obj 75 121 * 10;
#X obj 219 121 * 10;
#X connect 0 0 1 0;
#X connect 1 0 8 0;
#X connect 1 0 17 0;
#X connect 1 0 23 0;
#X connect 2 0 5 0;
#X connect 6 0 4 0;
#X connect 7 0 3 0;
#X connect 8 0 9 0;
#X connect 8 0 11 0;
#X connect 9 0 8 1;
#X connect 10 0 15 0;
#X connect 11 0 13 0;
#X connect 12 0 7 0;
#X connect 13 0 12 0;
#X connect 14 0 8 0;
#X connect 14 1 29 0;
#X connect 15 0 16 0;
#X connect 16 0 14 0;
#X connect 16 1 22 0;
#X connect 16 2 28 0;
#X connect 17 0 18 0;
#X connect 17 0 19 0;
#X connect 18 0 17 1;
#X connect 19 0 21 0;
#X connect 20 0 6 0;
#X connect 21 0 20 0;
#X connect 22 0 17 0;
#X connect 22 1 31 0;
#X connect 23 0 24 0;
#X connect 23 0 25 0;
#X connect 24 0 23 1;
#X connect 25 0 27 0;
#X connect 26 0 2 0;
#X connect 27 0 26 0;
#X connect 28 0 23 0;
#X connect 28 1 33 0;
#X connect 29 0 30 0;
#X connect 30 0 35 0;
#X connect 31 0 32 0;
#X connect 32 0 36 0;
#X connect 33 0 34 0;
#X connect 34 0 37 0;
#X connect 35 0 9 1;
#X connect 36 0 18 1;
#X connect 37 0 24 1;
#X restore -485 64 pd random-rotate;
#N canvas 167 271 490 424 text 0;
#X obj 88 140 separator;
#X obj 88 79 inlet;
#X obj 134 241 separator;
#X obj 88 185 outlet;
#X obj 134 333 text3d;
#X msg 220 286 string \$1;
#X obj 215 330 loadbang;
#X obj 220 236 tabread moduleb-char;
#X obj 220 205 expr ($f1*2);
#X msg -10 205 font Medium.ttc;
#X floatatom 220 262 5 0 0 0 - - -;
#X obj -10 144 r \$0-font;
#X obj -10 170 sel 1;
#X obj 220 175 init \$1;
#X obj 167 137 r text-tgl;
#X obj 134 166 spigot;
#X obj 134 209 t a b;
#X obj 88 108 t a a;
#X msg 215 354 5;
#X connect 0 0 3 0;
#X connect 1 0 17 0;
#X connect 2 0 4 0;
#X connect 5 0 4 0;
#X connect 6 0 18 0;
#X connect 7 0 10 0;
#X connect 8 0 7 0;
#X connect 9 0 4 0;
#X connect 10 0 5 0;
#X connect 11 0 12 0;
#X connect 12 0 9 0;
#X connect 13 0 8 0;
#X connect 14 0 15 1;
#X connect 15 0 16 0;
#X connect 16 0 2 0;
#X connect 16 1 13 0;
#X connect 17 0 0 0;
#X connect 17 1 15 0;
#X connect 18 0 4 1;
#X restore -594 349 pd text;
#N canvas 814 272 490 424 text 0;
#X obj 102 144 separator;
#X obj 102 59 inlet;
#X obj 129 241 separator;
#X obj 102 189 outlet;
#X obj 129 333 text3d;
#X msg 220 282 string \$1;
#X obj 214 334 loadbang;
#X obj 220 236 tabread moduleb-char;
#X obj 220 180 expr ($f1*2)+1;
#X floatatom 220 259 5 0 0 0 - - -;
#X floatatom 220 206 5 0 0 0 - - -;
#X obj 220 156 init \$1;
#X msg 2 300 font Light.ttc;
#X obj 2 247 r \$0-font;
#X obj 2 273 sel 1;
#X obj 162 85 r text-tgl;
#X obj 102 88 t a a;
#X obj 129 112 spigot;
#X obj 129 167 t a b;
#X msg 214 358 5;
#X connect 0 0 3 0;
#X connect 1 0 16 0;
#X connect 2 0 4 0;
#X connect 5 0 4 0;
#X connect 6 0 19 0;
#X connect 7 0 9 0;
#X connect 8 0 10 0;
#X connect 9 0 5 0;
#X connect 10 0 7 0;
#X connect 11 0 8 0;
#X connect 12 0 4 0;
#X connect 13 0 14 0;
#X connect 14 0 12 0;
#X connect 15 0 17 1;
#X connect 16 0 0 0;
#X connect 16 1 17 0;
#X connect 17 0 18 0;
#X connect 18 0 2 0;
#X connect 18 1 11 0;
#X connect 19 0 4 1;
#X restore -392 425 pd text;
#X obj -783 221 t f f f f f f;
#X obj -664 253 s \$0-font;
#X obj -594 88 t f f f;
#X obj -467 115 sel 1;
#X obj -467 137 t b b;
#X obj -461 221 s \$0-shape;
#X msg -424 167 1;
#X msg -483 193 2;
#X obj -482 166 del 100;
#X connect 0 0 35 0;
#X connect 1 0 77 0;
#X connect 2 0 3 0;
#X connect 3 0 66 0;
#X connect 4 0 65 0;
#X connect 4 1 17 0;
#X connect 5 0 36 0;
#X connect 6 0 0 0;
#X connect 7 0 18 0;
#X connect 8 0 5 0;
#X connect 9 0 19 0;
#X connect 10 0 4 0;
#X connect 16 0 2 0;
#X connect 18 0 6 0;
#X connect 19 0 8 0;
#X connect 20 0 42 0;
#X connect 21 0 32 0;
#X connect 22 0 40 0;
#X connect 22 0 39 0;
#X connect 23 0 67 0;
#X connect 24 0 68 0;
#X connect 26 0 25 0;
#X connect 27 0 25 3;
#X connect 28 0 67 1;
#X connect 28 0 27 0;
#X connect 28 1 67 2;
#X connect 28 1 27 0;
#X connect 28 2 68 1;
#X connect 28 2 27 1;
#X connect 28 3 68 2;
#X connect 28 3 27 1;
#X connect 31 0 44 0;
#X connect 33 0 25 4;
#X connect 34 0 1 0;
#X connect 37 0 25 1;
#X connect 38 0 25 2;
#X connect 39 0 30 0;
#X connect 40 0 43 0;
#X connect 41 0 71 0;
#X connect 42 0 41 0;
#X connect 43 0 21 0;
#X connect 45 0 12 0;
#X connect 45 1 44 0;
#X connect 46 0 45 0;
#X connect 48 0 49 0;
#X connect 50 0 47 0;
#X connect 50 1 49 0;
#X connect 51 0 50 0;
#X connect 53 0 54 0;
#X connect 54 0 58 0;
#X connect 55 0 57 0;
#X connect 56 0 63 0;
#X connect 57 0 56 0;
#X connect 58 0 64 0;
#X connect 58 1 59 0;
#X connect 59 0 52 0;
#X connect 60 0 52 0;
#X connect 63 0 54 1;
#X connect 64 0 60 0;
#X connect 64 0 62 0;
#X connect 65 0 23 0;
#X connect 66 0 24 0;
#X connect 67 0 73 0;
#X connect 67 1 26 0;
#X connect 68 0 74 0;
#X connect 68 1 26 1;
#X connect 69 0 45 1;
#X connect 69 1 70 1;
#X connect 69 2 70 2;
#X connect 70 0 50 1;
#X connect 71 0 69 1;
#X connect 71 1 70 3;
#X connect 73 0 69 0;
#X connect 74 0 70 0;
#X connect 75 0 11 0;
#X connect 75 1 14 0;
#X connect 75 2 29 0;
#X connect 75 3 15 0;
#X connect 75 4 13 0;
#X connect 75 5 76 0;
#X connect 77 0 10 0;
#X connect 77 1 75 0;
#X connect 77 2 78 0;
#X connect 78 0 79 0;
#X connect 79 0 83 0;
#X connect 79 1 81 0;
#X connect 81 0 80 0;
#X connect 82 0 80 0;
#X connect 83 0 82 0;
